<svg width="252" height="32" viewBox="0 0 252 32" fill="none" xmlns="http://www.w3.org/2000/svg">
<path d="M14.0455 8.5C13.9848 7.74242 13.7008 7.15151 13.1932 6.72727C12.6932 6.30303 11.9318 6.09091 10.9091 6.09091C10.2576 6.09091 9.72348 6.17045 9.30682 6.32954C8.89773 6.48106 8.5947 6.68939 8.39773 6.95454C8.20076 7.2197 8.09848 7.52273 8.09091 7.86364C8.07576 8.14394 8.125 8.39773 8.23864 8.625C8.35985 8.8447 8.54924 9.04545 8.80682 9.22727C9.06439 9.40151 9.39394 9.56061 9.79545 9.70455C10.197 9.84848 10.6742 9.97727 11.2273 10.0909L13.1364 10.5C14.4242 10.7727 15.5265 11.1326 16.4432 11.5795C17.3598 12.0265 18.1098 12.553 18.6932 13.1591C19.2765 13.7576 19.7045 14.4318 19.9773 15.1818C20.2576 15.9318 20.4015 16.75 20.4091 17.6364C20.4015 19.1667 20.0189 20.4621 19.2614 21.5227C18.5038 22.5833 17.4205 23.3902 16.0114 23.9432C14.6098 24.4962 12.9242 24.7727 10.9545 24.7727C8.93182 24.7727 7.16667 24.4735 5.65909 23.875C4.15909 23.2765 2.99242 22.3561 2.15909 21.1136C1.33333 19.8636 0.916667 18.2652 0.909091 16.3182H6.90909C6.94697 17.0303 7.125 17.6288 7.44318 18.1136C7.76136 18.5985 8.20833 18.9659 8.78409 19.2159C9.36742 19.4659 10.0606 19.5909 10.8636 19.5909C11.5379 19.5909 12.1023 19.5076 12.5568 19.3409C13.0114 19.1742 13.3561 18.9432 13.5909 18.6477C13.8258 18.3523 13.947 18.0152 13.9545 17.6364C13.947 17.2803 13.8295 16.9697 13.6023 16.7045C13.3826 16.4318 13.0189 16.1894 12.5114 15.9773C12.0038 15.7576 11.3182 15.553 10.4545 15.3636L8.13636 14.8636C6.07576 14.4167 4.45076 13.6705 3.26136 12.625C2.07955 11.572 1.49242 10.1364 1.5 8.31818C1.49242 6.84091 1.88636 5.54924 2.68182 4.44318C3.48485 3.32954 4.5947 2.46212 6.01136 1.84091C7.43561 1.2197 9.06818 0.90909 10.9091 0.90909C12.7879 0.90909 14.4129 1.22348 15.7841 1.85227C17.1553 2.48106 18.2121 3.36742 18.9545 4.51136C19.7045 5.64773 20.0833 6.97727 20.0909 8.5H14.0455ZM33.3125 7.04545V11.5909H21.8125V7.04545H33.3125ZM24.0398 2.86364H30.3125V18.8864C30.3125 19.1288 30.3542 19.3333 30.4375 19.5C30.5208 19.6591 30.6496 19.7803 30.8239 19.8636C30.9981 19.9394 31.2216 19.9773 31.4943 19.9773C31.6837 19.9773 31.9034 19.9545 32.1534 19.9091C32.411 19.8636 32.6004 19.8258 32.7216 19.7955L33.6307 24.2045C33.3504 24.2879 32.9489 24.3902 32.4261 24.5114C31.911 24.6326 31.2973 24.7121 30.5852 24.75C29.1458 24.8258 27.9375 24.678 26.9602 24.3068C25.983 23.928 25.2481 23.3333 24.7557 22.5227C24.2633 21.7121 24.0246 20.697 24.0398 19.4773V2.86364ZM35.8722 24.5V7.04545H41.9631V10.3636H42.1449C42.4631 9.13636 42.9669 8.23864 43.6562 7.67045C44.3532 7.10227 45.1676 6.81818 46.0994 6.81818C46.3722 6.81818 46.6411 6.84091 46.9062 6.88636C47.179 6.92424 47.4403 6.98106 47.6903 7.05682V12.4091C47.3797 12.303 46.9972 12.2235 46.5426 12.1705C46.0881 12.1174 45.6979 12.0909 45.3722 12.0909C44.7585 12.0909 44.2055 12.2311 43.7131 12.5114C43.2282 12.7841 42.8456 13.1705 42.5653 13.6705C42.285 14.1629 42.1449 14.7424 42.1449 15.4091V24.5H35.8722ZM57.1108 24.8182C55.2472 24.8182 53.6411 24.4621 52.2926 23.75C50.9517 23.0303 49.9176 22 49.1903 20.6591C48.4706 19.3106 48.1108 17.697 48.1108 15.8182C48.1108 14.0152 48.4744 12.4394 49.2017 11.0909C49.929 9.74242 50.9555 8.69318 52.2812 7.94318C53.607 7.19318 55.1714 6.81818 56.9744 6.81818C58.2926 6.81818 59.4858 7.02273 60.554 7.43182C61.6222 7.84091 62.535 8.43561 63.2926 9.21591C64.0502 9.98864 64.6335 10.928 65.0426 12.0341C65.4517 13.1402 65.6562 14.3864 65.6562 15.7727V17.2273H50.0653V13.7727H59.8835C59.8759 13.2727 59.7472 12.8333 59.4972 12.4545C59.2547 12.0682 58.9252 11.7689 58.5085 11.5568C58.0994 11.3371 57.6335 11.2273 57.1108 11.2273C56.6032 11.2273 56.1373 11.3371 55.7131 11.5568C55.2888 11.7689 54.9479 12.0644 54.6903 12.4432C54.4403 12.822 54.3078 13.2652 54.2926 13.7727V17.5C54.2926 18.0606 54.41 18.5606 54.6449 19C54.8797 19.4394 55.2169 19.7841 55.6562 20.0341C56.0956 20.2841 56.6259 20.4091 57.2472 20.4091C57.679 20.4091 58.0729 20.3485 58.429 20.2273C58.7926 20.1061 59.1032 19.9318 59.3608 19.7045C59.6184 19.4697 59.8078 19.1894 59.929 18.8636H65.6562C65.4593 20.0758 64.9934 21.1288 64.2585 22.0227C63.5237 22.9091 62.5502 23.5985 61.3381 24.0909C60.1335 24.5758 58.7244 24.8182 57.1108 24.8182ZM74.4886 14.6818V24.5H68.2159V7.04545H74.1705V10.3636H74.3523C74.7311 9.25758 75.3977 8.39015 76.3523 7.76136C77.3144 7.13258 78.4356 6.81818 79.7159 6.81818C80.9508 6.81818 82.0227 7.10227 82.9318 7.67045C83.8485 8.23106 84.5568 9.00379 85.0568 9.98864C85.5644 10.9735 85.8144 12.0985 85.8068 13.3636V24.5H79.5341V14.6818C79.5417 13.8182 79.322 13.1402 78.875 12.6477C78.4356 12.1553 77.822 11.9091 77.0341 11.9091C76.5189 11.9091 76.0682 12.0227 75.6818 12.25C75.303 12.4697 75.0114 12.7879 74.8068 13.2045C74.6023 13.6136 74.4962 14.1061 74.4886 14.6818ZM97.3125 31.4091C95.5625 31.4091 94.0625 31.1591 92.8125 30.6591C91.5701 30.1667 90.6042 29.4848 89.9148 28.6136C89.233 27.75 88.8504 26.7576 88.767 25.6364H94.8125C94.8731 26.0076 95.0246 26.3068 95.267 26.5341C95.5095 26.7614 95.8201 26.9242 96.1989 27.0227C96.5852 27.1288 97.017 27.1818 97.4943 27.1818C98.3049 27.1818 98.9754 26.9848 99.5057 26.5909C100.044 26.197 100.312 25.4848 100.312 24.4545V21.5H100.131C99.9034 22.0909 99.5549 22.5947 99.0852 23.0114C98.6155 23.4205 98.0511 23.7348 97.392 23.9545C96.733 24.1667 96.0095 24.2727 95.2216 24.2727C93.9792 24.2727 92.8352 23.9848 91.7898 23.4091C90.7519 22.8333 89.9186 21.9205 89.2898 20.6705C88.6686 19.4205 88.358 17.7879 88.358 15.7727C88.358 13.6667 88.6837 11.9545 89.3352 10.6364C89.9943 9.31818 90.8428 8.35227 91.8807 7.73864C92.9261 7.125 94.0246 6.81818 95.1761 6.81818C96.0398 6.81818 96.7973 6.9697 97.4489 7.27273C98.1004 7.56818 98.6458 7.96591 99.0852 8.46591C99.5246 8.95833 99.858 9.5 100.085 10.0909H100.222V7.04545H106.494V24.4545C106.494 25.9318 106.112 27.1856 105.347 28.2159C104.589 29.2538 103.521 30.0455 102.142 30.5909C100.763 31.1364 99.1534 31.4091 97.3125 31.4091ZM97.5398 19.8182C98.1155 19.8182 98.608 19.6591 99.017 19.3409C99.4337 19.0152 99.7519 18.553 99.9716 17.9545C100.199 17.3485 100.312 16.6212 100.312 15.7727C100.312 14.9091 100.199 14.1705 99.9716 13.5568C99.7519 12.9356 99.4337 12.4621 99.017 12.1364C98.608 11.803 98.1155 11.6364 97.5398 11.6364C96.964 11.6364 96.4716 11.803 96.0625 12.1364C95.661 12.4621 95.3504 12.9356 95.1307 13.5568C94.9186 14.1705 94.8125 14.9091 94.8125 15.7727C94.8125 16.6364 94.9186 17.3712 95.1307 17.9773C95.3504 18.5758 95.661 19.0341 96.0625 19.3523C96.4716 19.6629 96.964 19.8182 97.5398 19.8182ZM120.094 7.04545V11.5909H108.594V7.04545H120.094ZM110.821 2.86364H117.094V18.8864C117.094 19.1288 117.135 19.3333 117.219 19.5C117.302 19.6591 117.431 19.7803 117.605 19.8636C117.779 19.9394 118.003 19.9773 118.276 19.9773C118.465 19.9773 118.685 19.9545 118.935 19.9091C119.192 19.8636 119.382 19.8258 119.503 19.7955L120.412 24.2045C120.132 24.2879 119.73 24.3902 119.207 24.5114C118.692 24.6326 118.079 24.7121 117.366 24.75C115.927 24.8258 114.719 24.678 113.741 24.3068C112.764 23.928 112.029 23.3333 111.537 22.5227C111.045 21.7121 110.806 20.697 110.821 19.4773V2.86364ZM129.301 14.6818V24.5H123.028V1.22727H129.074V10.3636H129.256C129.65 9.25 130.305 8.38258 131.222 7.76136C132.138 7.13258 133.241 6.81818 134.528 6.81818C135.763 6.81818 136.835 7.09848 137.744 7.65909C138.661 8.2197 139.369 8.99242 139.869 9.97727C140.377 10.9621 140.627 12.0909 140.619 13.3636V24.5H134.347V14.6818C134.354 13.8182 134.138 13.1402 133.699 12.6477C133.267 12.1553 132.65 11.9091 131.847 11.9091C131.339 11.9091 130.892 12.0227 130.506 12.25C130.127 12.4697 129.831 12.7879 129.619 13.2045C129.415 13.6136 129.309 14.1061 129.301 14.6818Z" fill="white"/>
<path d="M143.625 24.5V1.22727H153.716C155.489 1.22727 156.977 1.46591 158.182 1.94318C159.394 2.42045 160.307 3.0947 160.92 3.96591C161.542 4.83712 161.852 5.86364 161.852 7.04545C161.852 7.90151 161.663 8.68182 161.284 9.38636C160.913 10.0909 160.39 10.6818 159.716 11.1591C159.042 11.6288 158.254 11.9545 157.352 12.1364V12.3636C158.352 12.4015 159.261 12.6553 160.08 13.125C160.898 13.5871 161.549 14.2273 162.034 15.0455C162.519 15.8561 162.761 16.8106 162.761 17.9091C162.761 19.1818 162.428 20.3144 161.761 21.3068C161.102 22.2992 160.163 23.0795 158.943 23.6477C157.723 24.2159 156.269 24.5 154.58 24.5H143.625ZM149.943 19.4545H152.898C153.958 19.4545 154.754 19.2576 155.284 18.8636C155.814 18.4621 156.08 17.8712 156.08 17.0909C156.08 16.5455 155.955 16.0833 155.705 15.7045C155.455 15.3258 155.098 15.0379 154.636 14.8409C154.182 14.6439 153.633 14.5455 152.989 14.5455H149.943V19.4545ZM149.943 10.6364H152.534C153.087 10.6364 153.576 10.5492 154 10.375C154.424 10.2008 154.754 9.95076 154.989 9.625C155.231 9.29167 155.352 8.88636 155.352 8.40909C155.352 7.68939 155.095 7.14015 154.58 6.76136C154.064 6.375 153.413 6.18182 152.625 6.18182H149.943V10.6364ZM173.455 24.8182C171.591 24.8182 169.985 24.4621 168.636 23.75C167.295 23.0303 166.261 22 165.534 20.6591C164.814 19.3106 164.455 17.697 164.455 15.8182C164.455 14.0152 164.818 12.4394 165.545 11.0909C166.273 9.74242 167.299 8.69318 168.625 7.94318C169.951 7.19318 171.515 6.81818 173.318 6.81818C174.636 6.81818 175.83 7.02273 176.898 7.43182C177.966 7.84091 178.879 8.43561 179.636 9.21591C180.394 9.98864 180.977 10.928 181.386 12.0341C181.795 13.1402 182 14.3864 182 15.7727V17.2273H166.409V13.7727H176.227C176.22 13.2727 176.091 12.8333 175.841 12.4545C175.598 12.0682 175.269 11.7689 174.852 11.5568C174.443 11.3371 173.977 11.2273 173.455 11.2273C172.947 11.2273 172.481 11.3371 172.057 11.5568C171.633 11.7689 171.292 12.0644 171.034 12.4432C170.784 12.822 170.652 13.2652 170.636 13.7727V17.5C170.636 18.0606 170.754 18.5606 170.989 19C171.223 19.4394 171.561 19.7841 172 20.0341C172.439 20.2841 172.97 20.4091 173.591 20.4091C174.023 20.4091 174.417 20.3485 174.773 20.2273C175.136 20.1061 175.447 19.9318 175.705 19.7045C175.962 19.4697 176.152 19.1894 176.273 18.8636H182C181.803 20.0758 181.337 21.1288 180.602 22.0227C179.867 22.9091 178.894 23.5985 177.682 24.0909C176.477 24.5758 175.068 24.8182 173.455 24.8182ZM189.423 24.7727C188.31 24.7727 187.325 24.5909 186.469 24.2273C185.62 23.8561 184.954 23.2955 184.469 22.5455C183.984 21.7955 183.741 20.8409 183.741 19.6818C183.741 18.7273 183.904 17.9129 184.23 17.2386C184.556 16.5568 185.01 16 185.594 15.5682C186.177 15.1364 186.855 14.8068 187.628 14.5795C188.408 14.3523 189.249 14.2045 190.151 14.1364C191.128 14.0606 191.912 13.9697 192.503 13.8636C193.101 13.75 193.533 13.5947 193.798 13.3977C194.063 13.1932 194.196 12.9242 194.196 12.5909V12.5455C194.196 12.0909 194.022 11.7424 193.673 11.5C193.325 11.2576 192.878 11.1364 192.332 11.1364C191.734 11.1364 191.245 11.2689 190.866 11.5341C190.495 11.7917 190.272 12.1894 190.196 12.7273H184.423C184.499 11.6667 184.836 10.6894 185.435 9.79545C186.041 8.89394 186.923 8.17424 188.082 7.63636C189.241 7.09091 190.688 6.81818 192.423 6.81818C193.673 6.81818 194.795 6.96591 195.787 7.26136C196.779 7.54924 197.624 7.95455 198.321 8.47727C199.018 8.99242 199.548 9.59848 199.912 10.2955C200.283 10.9848 200.469 11.7348 200.469 12.5455V24.5H194.605V22.0455H194.469C194.12 22.697 193.696 23.2235 193.196 23.625C192.704 24.0265 192.139 24.3182 191.503 24.5C190.874 24.6818 190.181 24.7727 189.423 24.7727ZM191.469 20.8182C191.946 20.8182 192.393 20.7197 192.81 20.5227C193.234 20.3258 193.579 20.0417 193.844 19.6705C194.109 19.2992 194.241 18.8485 194.241 18.3182V16.8636C194.075 16.9318 193.897 16.9962 193.707 17.0568C193.526 17.1174 193.329 17.1742 193.116 17.2273C192.912 17.2803 192.692 17.3295 192.457 17.375C192.23 17.4205 191.991 17.4621 191.741 17.5C191.257 17.5758 190.859 17.7008 190.548 17.875C190.245 18.0417 190.018 18.25 189.866 18.5C189.723 18.7424 189.651 19.0152 189.651 19.3182C189.651 19.803 189.821 20.1742 190.162 20.4318C190.503 20.6894 190.938 20.8182 191.469 20.8182ZM219.42 12.7273H213.648C213.617 12.3712 213.492 12.0644 213.273 11.8068C213.053 11.5492 212.769 11.3523 212.42 11.2159C212.08 11.072 211.701 11 211.284 11C210.746 11 210.284 11.0985 209.898 11.2955C209.511 11.4924 209.322 11.7727 209.33 12.1364C209.322 12.3939 209.432 12.6326 209.659 12.8523C209.894 13.072 210.345 13.2424 211.011 13.3636L214.557 14C216.345 14.3258 217.674 14.875 218.545 15.6477C219.424 16.4129 219.867 17.4394 219.875 18.7273C219.867 19.9697 219.496 21.0492 218.761 21.9659C218.034 22.875 217.038 23.5795 215.773 24.0795C214.515 24.572 213.08 24.8182 211.466 24.8182C208.799 24.8182 206.712 24.2727 205.205 23.1818C203.705 22.0909 202.867 20.6515 202.693 18.8636H208.92C209.004 19.4167 209.277 19.8447 209.739 20.1477C210.208 20.4432 210.799 20.5909 211.511 20.5909C212.087 20.5909 212.561 20.4924 212.932 20.2955C213.311 20.0985 213.504 19.8182 213.511 19.4545C213.504 19.1212 213.337 18.8561 213.011 18.6591C212.693 18.4621 212.193 18.303 211.511 18.1818L208.42 17.6364C206.64 17.3258 205.307 16.7348 204.42 15.8636C203.534 14.9924 203.095 13.8712 203.102 12.5C203.095 11.2879 203.413 10.2614 204.057 9.42045C204.708 8.57197 205.636 7.92803 206.841 7.48864C208.053 7.04167 209.489 6.81818 211.148 6.81818C213.67 6.81818 215.659 7.34091 217.114 8.38636C218.576 9.43182 219.345 10.8788 219.42 12.7273ZM232.688 7.04545V11.5909H221.188V7.04545H232.688ZM223.415 2.86364H229.688V18.8864C229.688 19.1288 229.729 19.3333 229.812 19.5C229.896 19.6591 230.025 19.7803 230.199 19.8636C230.373 19.9394 230.597 19.9773 230.869 19.9773C231.059 19.9773 231.278 19.9545 231.528 19.9091C231.786 19.8636 231.975 19.8258 232.097 19.7955L233.006 24.2045C232.725 24.2879 232.324 24.3902 231.801 24.5114C231.286 24.6326 230.672 24.7121 229.96 24.75C228.521 24.8258 227.313 24.678 226.335 24.3068C225.358 23.928 224.623 23.3333 224.131 22.5227C223.638 21.7121 223.4 20.697 223.415 19.4773V2.86364ZM251.014 12.7273H245.241C245.211 12.3712 245.086 12.0644 244.866 11.8068C244.647 11.5492 244.363 11.3523 244.014 11.2159C243.673 11.072 243.295 11 242.878 11C242.34 11 241.878 11.0985 241.491 11.2955C241.105 11.4924 240.916 11.7727 240.923 12.1364C240.916 12.3939 241.026 12.6326 241.253 12.8523C241.488 13.072 241.938 13.2424 242.605 13.3636L246.151 14C247.938 14.3258 249.268 14.875 250.139 15.6477C251.018 16.4129 251.461 17.4394 251.469 18.7273C251.461 19.9697 251.09 21.0492 250.355 21.9659C249.628 22.875 248.632 23.5795 247.366 24.0795C246.109 24.572 244.673 24.8182 243.06 24.8182C240.393 24.8182 238.306 24.2727 236.798 23.1818C235.298 22.0909 234.461 20.6515 234.287 18.8636H240.514C240.598 19.4167 240.87 19.8447 241.332 20.1477C241.802 20.4432 242.393 20.5909 243.105 20.5909C243.681 20.5909 244.154 20.4924 244.526 20.2955C244.904 20.0985 245.098 19.8182 245.105 19.4545C245.098 19.1212 244.931 18.8561 244.605 18.6591C244.287 18.4621 243.787 18.303 243.105 18.1818L240.014 17.6364C238.234 17.3258 236.901 16.7348 236.014 15.8636C235.128 14.9924 234.688 13.8712 234.696 12.5C234.688 11.2879 235.007 10.2614 235.651 9.42045C236.302 8.57197 237.23 7.92803 238.435 7.48864C239.647 7.04167 241.082 6.81818 242.741 6.81818C245.264 6.81818 247.253 7.34091 248.707 8.38636C250.17 9.43182 250.938 10.8788 251.014 12.7273Z" fill="#FF3F15"/>
</svg>
