<svg width="505" height="181" viewBox="0 0 505 181" fill="none" xmlns="http://www.w3.org/2000/svg">
<path d="M0 141.25V114L82.5 2.99999H125L44.25 114L24.5 108.25H162.25V141.25H0ZM94.25 178V141.25L95.5 108.25V75.5H133.75V178H94.25Z" fill="white"/>
<path d="M249.363 181C235.03 181 222.197 177.5 210.863 170.5C199.53 163.333 190.613 153 184.113 139.5C177.613 126 174.363 109.667 174.363 90.5C174.363 71.3333 177.613 55 184.113 41.5C190.613 28 199.53 17.75 210.863 10.75C222.197 3.58333 235.03 0 249.363 0C263.863 0 276.697 3.58333 287.863 10.75C299.197 17.75 308.113 28 314.613 41.5C321.113 55 324.363 71.3333 324.363 90.5C324.363 109.667 321.113 126 314.613 139.5C308.113 153 299.197 163.333 287.863 170.5C276.697 177.5 263.863 181 249.363 181ZM249.363 146.75C256.197 146.75 262.113 144.833 267.113 141C272.28 137.167 276.28 131.083 279.113 122.75C282.113 114.417 283.613 103.667 283.613 90.5C283.613 77.3333 282.113 66.5833 279.113 58.25C276.28 49.9167 272.28 43.8333 267.113 40C262.113 36.1667 256.197 34.25 249.363 34.25C242.697 34.25 236.78 36.1667 231.613 40C226.613 43.8333 222.613 49.9167 219.613 58.25C216.78 66.5833 215.363 77.3333 215.363 90.5C215.363 103.667 216.78 114.417 219.613 122.75C222.613 131.083 226.613 137.167 231.613 141C236.78 144.833 242.697 146.75 249.363 146.75Z" fill="white"/>
<path d="M342.041 141.25V114L424.541 2.99999H467.041L386.291 114L366.541 108.25H504.291V141.25H342.041ZM436.291 178V141.25L437.541 108.25V75.5H475.791V178H436.291Z" fill="white"/>
</svg>
