<svg width="20" height="15" viewBox="0 0 20 15" fill="none" xmlns="http://www.w3.org/2000/svg">
<path fill-rule="evenodd" clip-rule="evenodd" d="M19.546 0.611005C19.8272 0.892297 19.9852 1.27376 19.9852 1.67151C19.9852 2.06925 19.8272 2.45071 19.546 2.73201L8.30303 13.975C8.15445 14.1236 7.97805 14.2415 7.7839 14.3219C7.58976 14.4024 7.38167 14.4438 7.17153 14.4438C6.96138 14.4438 6.75329 14.4024 6.55915 14.3219C6.365 14.2415 6.1886 14.1236 6.04003 13.975L0.454026 8.39001C0.310761 8.25163 0.196488 8.08612 0.117874 7.90311C0.0392605 7.72011 -0.00211889 7.52328 -0.00384962 7.32411C-0.00558034 7.12494 0.0323724 6.92742 0.107794 6.74307C0.183215 6.55873 0.294595 6.39125 0.435434 6.25041C0.576273 6.10957 0.74375 5.99819 0.928095 5.92277C1.11244 5.84735 1.30996 5.8094 1.50913 5.81113C1.7083 5.81286 1.90513 5.85424 2.08813 5.93285C2.27114 6.01147 2.43666 6.12574 2.57503 6.26901L7.17103 10.865L17.424 0.611005C17.5633 0.471616 17.7287 0.36104 17.9108 0.285598C18.0928 0.210156 18.288 0.171326 18.485 0.171326C18.6821 0.171326 18.8772 0.210156 19.0593 0.285598C19.2413 0.36104 19.4067 0.471616 19.546 0.611005Z" fill="#4CAF50"/>
</svg>
