<svg width="69" height="68" viewBox="0 0 69 68" fill="none" xmlns="http://www.w3.org/2000/svg">
<path d="M34.5 0C15.7224 0 0.5 15.2224 0.5 34C0.5 52.7786 15.7224 68 34.5 68C53.2786 68 68.5 52.7786 68.5 34C68.5 15.2224 53.2786 0 34.5 0ZM34.5 63.8169C18.0961 63.8169 4.75 50.4039 4.75 33.9999C4.75 17.5959 18.0961 4.24987 34.5 4.24987C50.9039 4.24987 64.25 17.596 64.25 33.9999C64.25 50.4037 50.9039 63.8169 34.5 63.8169ZM48.0692 21.5592L28.1207 41.633L19.1372 32.6496C18.3074 31.8197 16.9623 31.8197 16.1314 32.6496C15.3016 33.4794 15.3016 34.8245 16.1314 35.6543L26.6491 46.1731C27.4789 47.0018 28.8241 47.0018 29.6549 46.1731C29.7506 46.0774 29.8324 45.9732 29.9068 45.8649L51.0761 24.5649C51.9048 23.7351 51.9048 22.39 51.0761 21.5592C50.2452 20.7294 48.9001 20.7294 48.0692 21.5592Z" fill="#4CAF50"/>
</svg>
