<svg width="61" height="61" viewBox="0 0 61 61" fill="none" xmlns="http://www.w3.org/2000/svg">
<g clip-path="url(#clip0_22_839)">
<path d="M60.6666 30.5C60.6666 13.9316 47.2351 0.5 30.6666 0.5C14.0982 0.5 0.666626 13.9316 0.666626 30.5C0.666626 45.4737 11.6373 57.8851 25.9791 60.1355V39.1719H18.3619V30.5H25.9791V23.8906C25.9791 16.3719 30.458 12.2187 37.3107 12.2187C40.5929 12.2187 44.026 12.8047 44.026 12.8047V20.1875H40.2432C36.5164 20.1875 35.3541 22.5001 35.3541 24.8727V30.5H43.6744L42.3444 39.1719H35.3541V60.1355C49.696 57.8851 60.6666 45.474 60.6666 30.5Z" fill="#1877F2"/>
<path d="M42.3444 39.1719L43.6744 30.5H35.3541V24.8727C35.3541 22.4998 36.5164 20.1875 40.2432 20.1875H44.026V12.8047C44.026 12.8047 40.5929 12.2188 37.3105 12.2188C30.458 12.2188 25.9791 16.3719 25.9791 23.8906V30.5H18.3619V39.1719H25.9791V60.1355C27.5298 60.3785 29.097 60.5004 30.6666 60.5C32.2362 60.5004 33.8035 60.3785 35.3541 60.1355V39.1719H42.3444Z" fill="white"/>
</g>
<defs>
<clipPath id="clip0_22_839">
<rect width="60" height="60" fill="white" transform="translate(0.666626 0.5)"/>
</clipPath>
</defs>
</svg>
