<svg width="309" height="96" viewBox="0 0 309 96" fill="none" xmlns="http://www.w3.org/2000/svg">
<path d="M257.781 15.6255H35.2187C30.9714 15.6255 19.7707 17.5876 16.9929 29.4434H276.007C273.247 17.5876 262.029 15.6255 257.781 15.6255Z" fill="url(#paint0_linear_39_278)"/>
<path d="M216.348 81.6824L151.563 90.6605C148.23 91.1242 144.789 91.1242 141.474 90.6605L76.6888 81.6824C65.2372 80.1008 57.0472 73.4059 57.0472 65.6408V39.8125C57.0472 15.6133 35.2551 15.6133 35.2551 15.6133H257.818C257.818 15.6133 236.026 15.6133 236.026 39.8125V65.6408C236.026 73.394 227.836 80.0889 216.384 81.6824H216.348Z" fill="url(#paint1_linear_39_278)"/>
<path d="M81.5012 46.1419L81.4899 49.5302C81.4877 50.0701 81.9259 50.5061 82.4634 50.5061L83.5182 50.5038C83.5182 50.5038 82.041 53.9395 78.0567 53.9848C77.2166 53.9938 76.4237 53.7927 75.8613 53.5827C77.3814 54.9086 79.351 55.6541 81.5215 55.6541C83.0552 55.6541 84.4985 55.252 85.7498 54.5472C85.8943 54.4659 86.0366 54.38 86.1767 54.292C86.1789 54.292 86.1812 54.2897 86.1812 54.2897C87.0508 53.6911 87.7306 53.0473 88.2614 52.4216C88.2637 52.4193 88.266 52.4148 88.2682 52.4126C90.4953 50.1672 90.0096 46.989 89.8222 45.9861C89.7431 45.5614 89.4179 45.1796 88.7673 45.1796C88.3156 45.1796 84.3359 45.1729 84.3359 45.1729H82.4747C81.9394 45.1729 81.5035 45.6066 81.5012 46.1419Z" fill="white"/>
<path d="M66 48.0896C66 48.1303 66 48.1687 66.0023 48.2094C66.0497 50.6738 66.7725 52.8988 68.087 54.7872C67.895 54.3309 67.8069 53.9176 67.6895 53.4409C67.4975 52.6887 67.3959 51.9004 67.3959 51.0894C67.3959 49.28 67.9018 47.5882 68.7804 46.1492C68.7849 46.1402 68.7895 46.1334 68.7962 46.1244C70.4179 43.4861 73.2909 41.6993 76.5886 41.5931H76.6202C76.7129 41.5908 76.8054 41.5886 76.8958 41.5886H76.941C78.1064 41.5456 79.2696 41.8461 80.0376 42.1058C80.5458 42.2775 81.0969 42.0042 81.2686 41.496C81.6593 40.3371 82.2692 38.5233 82.3211 38.3561C82.3437 38.2816 82.416 38.0082 82.4928 37.7236C82.6125 37.2786 82.3663 36.8178 81.9281 36.6687C81.0427 36.3638 79.5114 35.9436 78.0003 36.0069C74.2351 36.1627 70.8674 37.744 68.6675 40.4614C68.6426 40.493 68.6155 40.5246 68.5907 40.5585C67.5472 41.8913 66.7679 43.4431 66.3478 45.126C66.3365 45.1712 66.3252 45.2163 66.314 45.2638C66.3049 45.3022 66.2959 45.3406 66.2869 45.3767C66.2801 45.4038 66.2756 45.4309 66.2688 45.4558C66.0926 46.269 66 47.1093 66 47.9699V48.0512C66 48.0625 66 48.0761 66 48.0896Z" fill="white"/>
<path d="M72.8595 45.0804C73.5484 43.8403 74.6664 42.8713 76.0103 42.3721C75.134 42.4873 74.296 42.7312 73.519 43.0836C73.2593 43.2011 73.0041 43.3321 72.7601 43.4744C70.2869 44.9043 68.5725 47.4975 68.376 50.504C68.3738 50.5357 68.3715 50.5673 68.3693 50.6012C68.367 50.6351 68.3648 50.6667 68.3648 50.6983C68.3625 50.7322 68.3625 50.7638 68.3602 50.7977C68.3602 50.8271 68.358 50.8564 68.358 50.8858C68.358 50.9242 68.3557 50.9626 68.3557 51.001V51.1162C68.3557 53.0724 69.0107 55.0309 70.3208 56.6256C70.4088 56.7318 70.4992 56.8357 70.5918 56.9396C70.6234 56.9757 70.6573 57.0119 70.6912 57.048C70.716 57.0751 70.7409 57.1022 70.768 57.1293C71.6285 58.0216 72.6811 58.7264 73.8578 59.212C74.6032 59.5192 75.396 59.7383 76.2249 59.8603C76.5727 59.9122 76.9274 59.9484 77.2865 59.9642C77.413 59.971 78.6394 60.1404 80.7942 59.6796C80.9026 59.6525 81.011 59.6254 81.1194 59.5983C84.5075 58.6902 87.3353 56.3523 88.8373 53.2576C87.8322 54.43 86.5832 55.39 85.1173 55.966C84.0151 56.3997 82.7705 56.6595 81.5215 56.6595C78.4 56.6595 75.6241 55.1212 73.8691 52.7923C73.7788 52.6703 73.6907 52.5438 73.6071 52.4173C73.5981 52.4038 73.589 52.3924 73.5822 52.3789C73.0854 51.6222 72.6924 50.7909 72.4258 49.9031V49.8941C72.3152 49.5644 72.2316 49.221 72.1796 48.8686V48.8596C72.1367 48.5727 72.1164 48.2813 72.1164 47.9831C72.1074 46.9305 72.3807 45.9411 72.8595 45.0804Z" fill="white"/>
<path d="M102.158 45H100.336L100.348 43.834H102.158C102.686 43.834 103.127 43.7188 103.483 43.4883C103.842 43.2578 104.111 42.9277 104.291 42.498C104.475 42.0684 104.566 41.5566 104.566 40.9629V40.5C104.566 40.0391 104.514 39.6309 104.408 39.2754C104.307 38.9199 104.154 38.6211 103.951 38.3789C103.752 38.1367 103.506 37.9531 103.213 37.8281C102.924 37.7031 102.59 37.6406 102.211 37.6406H100.301V36.4688H102.211C102.777 36.4688 103.295 36.5645 103.764 36.7559C104.233 36.9434 104.637 37.2148 104.977 37.5703C105.32 37.9258 105.584 38.3516 105.768 38.8477C105.951 39.3438 106.043 39.8984 106.043 40.5117V40.9629C106.043 41.5762 105.951 42.1309 105.768 42.627C105.584 43.123 105.32 43.5488 104.977 43.9043C104.633 44.2559 104.223 44.5273 103.746 44.7188C103.274 44.9062 102.744 45 102.158 45ZM101.15 36.4688V45H99.6798V36.4688H101.15ZM110.534 45.1172C110.065 45.1172 109.641 45.041 109.262 44.8887C108.887 44.7324 108.567 44.5156 108.301 44.2383C108.04 43.9609 107.839 43.6348 107.698 43.2598C107.557 42.8848 107.487 42.4805 107.487 42.0469V41.8125C107.487 41.3164 107.559 40.8672 107.704 40.4648C107.848 40.0625 108.05 39.7188 108.307 39.4336C108.565 39.1445 108.87 38.9238 109.221 38.7715C109.573 38.6191 109.954 38.543 110.364 38.543C110.817 38.543 111.214 38.6191 111.553 38.7715C111.893 38.9238 112.175 39.1387 112.397 39.416C112.624 39.6895 112.792 40.0156 112.901 40.3945C113.014 40.7734 113.071 41.1914 113.071 41.6484V42.252H108.173V41.2383H111.676V41.127C111.669 40.873 111.618 40.6348 111.524 40.4121C111.434 40.1895 111.296 40.0098 111.108 39.873C110.921 39.7363 110.671 39.668 110.358 39.668C110.124 39.668 109.915 39.7188 109.731 39.8203C109.551 39.918 109.401 40.0605 109.28 40.248C109.159 40.4355 109.065 40.6621 108.999 40.9277C108.936 41.1895 108.905 41.4844 108.905 41.8125V42.0469C108.905 42.3242 108.942 42.582 109.016 42.8203C109.094 43.0547 109.208 43.2598 109.356 43.4355C109.505 43.6113 109.684 43.75 109.895 43.8516C110.106 43.9492 110.346 43.998 110.616 43.998C110.956 43.998 111.259 43.9297 111.524 43.793C111.79 43.6562 112.02 43.4629 112.216 43.2129L112.96 43.9336C112.823 44.1328 112.645 44.3242 112.426 44.5078C112.208 44.6875 111.94 44.834 111.624 44.9473C111.311 45.0605 110.948 45.1172 110.534 45.1172ZM118.089 43.2832C118.089 43.1426 118.054 43.0156 117.984 42.9023C117.913 42.7852 117.779 42.6797 117.579 42.5859C117.384 42.4922 117.095 42.4062 116.712 42.3281C116.376 42.2539 116.068 42.166 115.786 42.0645C115.509 41.959 115.271 41.832 115.072 41.6836C114.872 41.5352 114.718 41.3594 114.609 41.1562C114.499 40.9531 114.445 40.7188 114.445 40.4531C114.445 40.1953 114.501 39.9512 114.615 39.7207C114.728 39.4902 114.89 39.2871 115.101 39.1113C115.312 38.9355 115.568 38.7969 115.869 38.6953C116.173 38.5938 116.513 38.543 116.888 38.543C117.419 38.543 117.874 38.6328 118.253 38.8125C118.636 38.9883 118.929 39.2285 119.132 39.5332C119.335 39.834 119.437 40.1738 119.437 40.5527H118.025C118.025 40.3848 117.982 40.2285 117.896 40.084C117.814 39.9355 117.689 39.8164 117.521 39.7266C117.353 39.6328 117.142 39.5859 116.888 39.5859C116.646 39.5859 116.445 39.625 116.285 39.7031C116.128 39.7773 116.011 39.875 115.933 39.9961C115.859 40.1172 115.822 40.25 115.822 40.3945C115.822 40.5 115.841 40.5957 115.88 40.6816C115.923 40.7637 115.994 40.8398 116.091 40.9102C116.189 40.9766 116.322 41.0391 116.49 41.0977C116.661 41.1562 116.876 41.2129 117.134 41.2676C117.619 41.3691 118.035 41.5 118.382 41.6602C118.734 41.8164 119.003 42.0195 119.191 42.2695C119.378 42.5156 119.472 42.8281 119.472 43.207C119.472 43.4883 119.411 43.7461 119.29 43.9805C119.173 44.2109 119.001 44.4121 118.775 44.584C118.548 44.752 118.277 44.8828 117.96 44.9766C117.648 45.0703 117.296 45.1172 116.906 45.1172C116.331 45.1172 115.845 45.0156 115.447 44.8125C115.048 44.6055 114.745 44.3418 114.538 44.0215C114.335 43.6973 114.234 43.3613 114.234 43.0137H115.599C115.615 43.2754 115.687 43.4844 115.816 43.6406C115.949 43.793 116.113 43.9043 116.308 43.9746C116.507 44.041 116.712 44.0742 116.923 44.0742C117.177 44.0742 117.39 44.041 117.562 43.9746C117.734 43.9043 117.865 43.8105 117.954 43.6934C118.044 43.5723 118.089 43.4355 118.089 43.2832ZM122.58 38.6602V45H121.162V38.6602H122.58ZM121.068 36.9961C121.068 36.7812 121.139 36.6035 121.279 36.4629C121.424 36.3184 121.623 36.2461 121.877 36.2461C122.127 36.2461 122.324 36.3184 122.469 36.4629C122.613 36.6035 122.686 36.7812 122.686 36.9961C122.686 37.207 122.613 37.3828 122.469 37.5234C122.324 37.6641 122.127 37.7344 121.877 37.7344C121.623 37.7344 121.424 37.6641 121.279 37.5234C121.139 37.3828 121.068 37.207 121.068 36.9961ZM128.548 38.6602H129.831V44.8242C129.831 45.3945 129.71 45.8789 129.467 46.2773C129.225 46.6758 128.887 46.9785 128.454 47.1855C128.02 47.3965 127.518 47.502 126.948 47.502C126.706 47.502 126.436 47.4668 126.139 47.3965C125.846 47.3262 125.561 47.2129 125.284 47.0566C125.01 46.9043 124.782 46.7031 124.598 46.4531L125.26 45.6211C125.487 45.8906 125.737 46.0879 126.01 46.2129C126.284 46.3379 126.571 46.4004 126.872 46.4004C127.196 46.4004 127.471 46.3398 127.698 46.2188C127.928 46.1016 128.106 45.9277 128.231 45.6973C128.356 45.4668 128.419 45.1855 128.419 44.8535V40.0957L128.548 38.6602ZM124.241 41.9004V41.7773C124.241 41.2969 124.299 40.8594 124.417 40.4648C124.534 40.0664 124.702 39.7246 124.921 39.4395C125.139 39.1504 125.405 38.9297 125.717 38.7773C126.03 38.6211 126.383 38.543 126.778 38.543C127.188 38.543 127.538 38.6172 127.827 38.7656C128.12 38.9141 128.364 39.127 128.559 39.4043C128.755 39.6777 128.907 40.0059 129.016 40.3887C129.13 40.7676 129.214 41.1895 129.268 41.6543V42.0469C129.217 42.5 129.131 42.9141 129.01 43.2891C128.889 43.6641 128.729 43.9883 128.53 44.2617C128.331 44.5352 128.085 44.7461 127.792 44.8945C127.503 45.043 127.161 45.1172 126.766 45.1172C126.38 45.1172 126.03 45.0371 125.717 44.877C125.409 44.7168 125.143 44.4922 124.921 44.2031C124.702 43.9141 124.534 43.5742 124.417 43.1836C124.299 42.7891 124.241 42.3613 124.241 41.9004ZM125.653 41.7773V41.9004C125.653 42.1895 125.68 42.459 125.735 42.709C125.794 42.959 125.881 43.1797 125.999 43.3711C126.12 43.5586 126.272 43.707 126.456 43.8164C126.643 43.9219 126.864 43.9746 127.118 43.9746C127.45 43.9746 127.721 43.9043 127.932 43.7637C128.147 43.623 128.311 43.4336 128.424 43.1953C128.542 42.9531 128.624 42.6836 128.671 42.3867V41.3262C128.647 41.0957 128.598 40.8809 128.524 40.6816C128.454 40.4824 128.358 40.3086 128.237 40.1602C128.116 40.0078 127.964 39.8906 127.78 39.8086C127.596 39.7227 127.38 39.6797 127.13 39.6797C126.876 39.6797 126.655 39.7344 126.467 39.8438C126.28 39.9531 126.126 40.1035 126.005 40.2949C125.887 40.4863 125.799 40.709 125.741 40.9629C125.682 41.2168 125.653 41.4883 125.653 41.7773ZM133.056 40.0137V45H131.644V38.6602H132.974L133.056 40.0137ZM132.804 41.5957L132.347 41.5898C132.351 41.1406 132.413 40.7285 132.534 40.3535C132.659 39.9785 132.831 39.6562 133.05 39.3867C133.273 39.1172 133.538 38.9102 133.847 38.7656C134.156 38.6172 134.499 38.543 134.878 38.543C135.183 38.543 135.458 38.5859 135.704 38.6719C135.954 38.7539 136.167 38.8887 136.343 39.0762C136.523 39.2637 136.659 39.5078 136.753 39.8086C136.847 40.1055 136.894 40.4707 136.894 40.9043V45H135.476V40.8984C135.476 40.5938 135.431 40.3535 135.341 40.1777C135.255 39.998 135.128 39.8711 134.96 39.7969C134.796 39.7188 134.591 39.6797 134.345 39.6797C134.103 39.6797 133.886 39.7305 133.695 39.832C133.503 39.9336 133.341 40.0723 133.208 40.248C133.079 40.4238 132.98 40.627 132.909 40.8574C132.839 41.0879 132.804 41.334 132.804 41.5957ZM143.503 40.3594L144.973 39.3691C145.219 39.2051 145.395 39.0449 145.501 38.8887C145.606 38.7285 145.659 38.5293 145.659 38.291C145.659 38.0879 145.581 37.9004 145.424 37.7285C145.268 37.5566 145.047 37.4707 144.762 37.4707C144.563 37.4707 144.395 37.5176 144.258 37.6113C144.122 37.7012 144.018 37.8223 143.948 37.9746C143.881 38.123 143.848 38.2891 143.848 38.4727C143.848 38.6484 143.893 38.8301 143.983 39.0176C144.073 39.2012 144.196 39.3945 144.352 39.5977C144.508 39.7969 144.684 40.0117 144.879 40.2422L148.911 45H147.276L143.983 41.127C143.698 40.7832 143.446 40.4687 143.227 40.1836C143.008 39.8945 142.838 39.6152 142.717 39.3457C142.596 39.0723 142.536 38.791 142.536 38.502C142.536 38.0566 142.628 37.6738 142.811 37.3535C142.995 37.0332 143.254 36.7871 143.59 36.6152C143.926 36.4395 144.319 36.3516 144.768 36.3516C145.202 36.3516 145.575 36.4395 145.887 36.6152C146.204 36.7871 146.446 37.0156 146.614 37.3008C146.786 37.5859 146.872 37.8984 146.872 38.2383C146.872 38.5078 146.823 38.7539 146.725 38.9766C146.628 39.1992 146.493 39.4023 146.321 39.5859C146.149 39.7695 145.95 39.9434 145.723 40.1074L143.936 41.4082C143.729 41.5762 143.575 41.7383 143.473 41.8945C143.376 42.0469 143.311 42.1875 143.28 42.3164C143.249 42.4453 143.233 42.5586 143.233 42.6562C143.233 42.9062 143.286 43.1328 143.391 43.3359C143.501 43.5391 143.659 43.7012 143.866 43.8223C144.077 43.9395 144.333 43.998 144.633 43.998C144.958 43.998 145.272 43.9258 145.577 43.7812C145.881 43.6328 146.155 43.4238 146.397 43.1543C146.639 42.8848 146.831 42.5625 146.971 42.1875C147.116 41.8125 147.188 41.3965 147.188 40.9395H148.407C148.407 41.3535 148.366 41.7461 148.284 42.1172C148.206 42.4883 148.079 42.832 147.903 43.1484C147.731 43.4648 147.504 43.748 147.223 43.998C147.196 44.0254 147.165 44.0605 147.129 44.1035C147.098 44.1426 147.067 44.1758 147.036 44.2031C146.7 44.5117 146.323 44.7422 145.905 44.8945C145.491 45.043 145.049 45.1172 144.581 45.1172C144.014 45.1172 143.524 45.0137 143.11 44.8066C142.696 44.5996 142.376 44.3145 142.149 43.9512C141.926 43.5879 141.815 43.1719 141.815 42.7031C141.815 42.3555 141.887 42.0508 142.032 41.7891C142.176 41.5234 142.374 41.2773 142.624 41.0508C142.878 40.8203 143.17 40.5898 143.503 40.3594ZM156.07 45H154.248L154.26 43.834H156.07C156.598 43.834 157.039 43.7187 157.394 43.4883C157.754 43.2578 158.023 42.9277 158.203 42.498C158.387 42.0684 158.478 41.5566 158.478 40.9629V40.5C158.478 40.0391 158.426 39.6309 158.32 39.2754C158.219 38.9199 158.066 38.6211 157.863 38.3789C157.664 38.1367 157.418 37.9531 157.125 37.8281C156.836 37.7031 156.502 37.6406 156.123 37.6406H154.213V36.4687H156.123C156.689 36.4687 157.207 36.5645 157.676 36.7559C158.144 36.9434 158.549 37.2148 158.889 37.5703C159.232 37.9258 159.496 38.3516 159.68 38.8477C159.863 39.3437 159.955 39.8984 159.955 40.5117V40.9629C159.955 41.5762 159.863 42.1309 159.68 42.627C159.496 43.123 159.232 43.5488 158.889 43.9043C158.545 44.2559 158.135 44.5273 157.658 44.7187C157.185 44.9062 156.656 45 156.07 45ZM155.062 36.4687V45H153.592V36.4687H155.062ZM164.446 45.1172C163.977 45.1172 163.553 45.041 163.174 44.8887C162.799 44.7324 162.479 44.5156 162.213 44.2383C161.952 43.9609 161.75 43.6348 161.61 43.2598C161.469 42.8848 161.399 42.4805 161.399 42.0469V41.8125C161.399 41.3164 161.471 40.8672 161.616 40.4648C161.76 40.0625 161.961 39.7187 162.219 39.4336C162.477 39.1445 162.782 38.9238 163.133 38.7715C163.485 38.6191 163.866 38.543 164.276 38.543C164.729 38.543 165.125 38.6191 165.465 38.7715C165.805 38.9238 166.086 39.1387 166.309 39.416C166.536 39.6895 166.704 40.0156 166.813 40.3945C166.926 40.7734 166.983 41.1914 166.983 41.6484V42.252H162.084V41.2383H165.588V41.127C165.581 40.873 165.53 40.6348 165.436 40.4121C165.346 40.1895 165.208 40.0098 165.02 39.873C164.833 39.7363 164.583 39.668 164.27 39.668C164.036 39.668 163.827 39.7187 163.643 39.8203C163.463 39.918 163.313 40.0605 163.192 40.248C163.071 40.4355 162.977 40.6621 162.911 40.9277C162.848 41.1895 162.817 41.4844 162.817 41.8125V42.0469C162.817 42.3242 162.854 42.582 162.928 42.8203C163.006 43.0547 163.12 43.2598 163.268 43.4355C163.416 43.6113 163.596 43.75 163.807 43.8516C164.018 43.9492 164.258 43.998 164.528 43.998C164.868 43.998 165.17 43.9297 165.436 43.793C165.702 43.6562 165.932 43.4629 166.127 43.2129L166.872 43.9336C166.735 44.1328 166.557 44.3242 166.338 44.5078C166.12 44.6875 165.852 44.834 165.536 44.9473C165.223 45.0605 164.86 45.1172 164.446 45.1172ZM170.425 43.8809L171.978 38.6602H173.443L171.239 45H170.325L170.425 43.8809ZM169.235 38.6602L170.818 43.9043L170.894 45H169.98L167.765 38.6602H169.235ZM177.388 45.1172C176.92 45.1172 176.496 45.041 176.117 44.8887C175.742 44.7324 175.422 44.5156 175.156 44.2383C174.894 43.9609 174.693 43.6348 174.553 43.2598C174.412 42.8848 174.342 42.4805 174.342 42.0469V41.8125C174.342 41.3164 174.414 40.8672 174.558 40.4648C174.703 40.0625 174.904 39.7187 175.162 39.4336C175.42 39.1445 175.724 38.9238 176.076 38.7715C176.428 38.6191 176.808 38.543 177.219 38.543C177.672 38.543 178.068 38.6191 178.408 38.7715C178.748 38.9238 179.029 39.1387 179.252 39.416C179.478 39.6895 179.646 40.0156 179.756 40.3945C179.869 40.7734 179.926 41.1914 179.926 41.6484V42.252H175.027V41.2383H178.531V41.127C178.523 40.873 178.472 40.6348 178.379 40.4121C178.289 40.1895 178.15 40.0098 177.963 39.873C177.775 39.7363 177.525 39.668 177.213 39.668C176.978 39.668 176.769 39.7187 176.586 39.8203C176.406 39.918 176.256 40.0605 176.135 40.248C176.013 40.4355 175.92 40.6621 175.853 40.9277C175.791 41.1895 175.76 41.4844 175.76 41.8125V42.0469C175.76 42.3242 175.797 42.582 175.871 42.8203C175.949 43.0547 176.062 43.2598 176.211 43.4355C176.359 43.6113 176.539 43.75 176.75 43.8516C176.961 43.9492 177.201 43.998 177.47 43.998C177.81 43.998 178.113 43.9297 178.379 43.793C178.644 43.6562 178.875 43.4629 179.07 43.2129L179.814 43.9336C179.678 44.1328 179.5 44.3242 179.281 44.5078C179.062 44.6875 178.795 44.834 178.478 44.9473C178.166 45.0605 177.803 45.1172 177.388 45.1172ZM182.899 36V45H181.481V36H182.899ZM184.536 41.9004V41.7656C184.536 41.3086 184.603 40.8848 184.735 40.4941C184.868 40.0996 185.06 39.7578 185.31 39.4687C185.564 39.1758 185.872 38.9492 186.235 38.7891C186.603 38.625 187.017 38.543 187.478 38.543C187.942 38.543 188.356 38.625 188.72 38.7891C189.087 38.9492 189.398 39.1758 189.651 39.4687C189.905 39.7578 190.099 40.0996 190.231 40.4941C190.364 40.8848 190.431 41.3086 190.431 41.7656V41.9004C190.431 42.3574 190.364 42.7812 190.231 43.1719C190.099 43.5625 189.905 43.9043 189.651 44.1973C189.398 44.4863 189.089 44.7129 188.726 44.877C188.362 45.0371 187.95 45.1172 187.489 45.1172C187.024 45.1172 186.608 45.0371 186.241 44.877C185.878 44.7129 185.569 44.4863 185.315 44.1973C185.062 43.9043 184.868 43.5625 184.735 43.1719C184.603 42.7812 184.536 42.3574 184.536 41.9004ZM185.948 41.7656V41.9004C185.948 42.1855 185.978 42.4551 186.036 42.709C186.095 42.9629 186.187 43.1855 186.312 43.377C186.437 43.5684 186.597 43.7187 186.792 43.8281C186.987 43.9375 187.22 43.9922 187.489 43.9922C187.751 43.9922 187.978 43.9375 188.169 43.8281C188.364 43.7187 188.524 43.5684 188.649 43.377C188.774 43.1855 188.866 42.9629 188.925 42.709C188.987 42.4551 189.019 42.1855 189.019 41.9004V41.7656C189.019 41.4844 188.987 41.2187 188.925 40.9687C188.866 40.7148 188.773 40.4902 188.644 40.2949C188.519 40.0996 188.358 39.9473 188.163 39.8379C187.972 39.7246 187.743 39.668 187.478 39.668C187.212 39.668 186.981 39.7246 186.786 39.8379C186.595 39.9473 186.437 40.0996 186.312 40.2949C186.187 40.4902 186.095 40.7148 186.036 40.9687C185.978 41.2187 185.948 41.4844 185.948 41.7656ZM193.392 39.8789V47.4375H191.98V38.6602H193.281L193.392 39.8789ZM197.523 41.7715V41.8945C197.523 42.3555 197.468 42.7832 197.359 43.1777C197.254 43.5684 197.095 43.9102 196.884 44.2031C196.677 44.4922 196.422 44.7168 196.117 44.877C195.812 45.0371 195.461 45.1172 195.062 45.1172C194.668 45.1172 194.322 45.0449 194.025 44.9004C193.732 44.752 193.484 44.543 193.281 44.2734C193.078 44.0039 192.914 43.6875 192.789 43.3242C192.668 42.957 192.582 42.5547 192.531 42.1172V41.6426C192.582 41.1777 192.668 40.7559 192.789 40.377C192.914 39.998 193.078 39.6719 193.281 39.3984C193.484 39.125 193.732 38.9141 194.025 38.7656C194.318 38.6172 194.66 38.543 195.05 38.543C195.449 38.543 195.802 38.6211 196.111 38.7773C196.42 38.9297 196.679 39.1484 196.89 39.4336C197.101 39.7148 197.259 40.0547 197.365 40.4531C197.47 40.8477 197.523 41.2871 197.523 41.7715ZM196.111 41.8945V41.7715C196.111 41.4785 196.084 41.207 196.029 40.957C195.974 40.7031 195.888 40.4805 195.771 40.2891C195.654 40.0977 195.504 39.9492 195.32 39.8437C195.14 39.7344 194.924 39.6797 194.67 39.6797C194.42 39.6797 194.205 39.7227 194.025 39.8086C193.845 39.8906 193.695 40.0059 193.574 40.1543C193.453 40.3027 193.359 40.4766 193.293 40.6758C193.226 40.8711 193.179 41.084 193.152 41.3145V42.4512C193.199 42.7324 193.279 42.9902 193.392 43.2246C193.506 43.459 193.666 43.6465 193.873 43.7871C194.084 43.9238 194.353 43.9922 194.681 43.9922C194.935 43.9922 195.152 43.9375 195.332 43.8281C195.511 43.7187 195.658 43.5684 195.771 43.377C195.888 43.1816 195.974 42.957 196.029 42.7031C196.084 42.4492 196.111 42.1797 196.111 41.8945ZM200.496 39.9492V45H199.084V38.6602H200.414L200.496 39.9492ZM200.268 41.5957L199.787 41.5898C199.787 41.1523 199.842 40.748 199.951 40.377C200.061 40.0059 200.221 39.6836 200.432 39.4102C200.643 39.1328 200.905 38.9199 201.217 38.7715C201.534 38.6191 201.899 38.543 202.313 38.543C202.602 38.543 202.866 38.5859 203.104 38.6719C203.346 38.7539 203.555 38.8848 203.731 39.0645C203.91 39.2441 204.047 39.4746 204.141 39.7559C204.239 40.0371 204.287 40.377 204.287 40.7754V45H202.875V40.8984C202.875 40.5898 202.828 40.3477 202.735 40.1719C202.645 39.9961 202.514 39.8711 202.342 39.7969C202.174 39.7187 201.973 39.6797 201.739 39.6797C201.473 39.6797 201.246 39.7305 201.059 39.832C200.875 39.9336 200.725 40.0723 200.608 40.248C200.491 40.4238 200.405 40.627 200.35 40.8574C200.295 41.0879 200.268 41.334 200.268 41.5957ZM204.2 41.2207L203.537 41.3672C203.537 40.9844 203.59 40.623 203.696 40.2832C203.805 39.9395 203.963 39.6387 204.17 39.3809C204.381 39.1191 204.641 38.9141 204.95 38.7656C205.258 38.6172 205.612 38.543 206.01 38.543C206.334 38.543 206.623 38.5879 206.877 38.6777C207.135 38.7637 207.354 38.9004 207.534 39.0879C207.713 39.2754 207.85 39.5195 207.944 39.8203C208.037 40.1172 208.084 40.4766 208.084 40.8984V45H206.666V40.8926C206.666 40.5723 206.619 40.3242 206.526 40.1484C206.436 39.9727 206.307 39.8516 206.139 39.7852C205.971 39.7148 205.77 39.6797 205.535 39.6797C205.317 39.6797 205.123 39.7207 204.955 39.8027C204.791 39.8809 204.653 39.9922 204.539 40.1367C204.426 40.2773 204.34 40.4395 204.282 40.623C204.227 40.8066 204.2 41.0059 204.2 41.2207ZM212.692 45.1172C212.224 45.1172 211.8 45.041 211.421 44.8887C211.046 44.7324 210.726 44.5156 210.46 44.2383C210.198 43.9609 209.997 43.6348 209.856 43.2598C209.716 42.8848 209.645 42.4805 209.645 42.0469V41.8125C209.645 41.3164 209.718 40.8672 209.862 40.4648C210.007 40.0625 210.208 39.7187 210.466 39.4336C210.724 39.1445 211.028 38.9238 211.38 38.7715C211.731 38.6191 212.112 38.543 212.522 38.543C212.976 38.543 213.372 38.6191 213.712 38.7715C214.052 38.9238 214.333 39.1387 214.556 39.416C214.782 39.6895 214.95 40.0156 215.06 40.3945C215.173 40.7734 215.229 41.1914 215.229 41.6484V42.252H210.331V41.2383H213.835V41.127C213.827 40.873 213.776 40.6348 213.683 40.4121C213.593 40.1895 213.454 40.0098 213.267 39.873C213.079 39.7363 212.829 39.668 212.517 39.668C212.282 39.668 212.073 39.7187 211.89 39.8203C211.71 39.918 211.56 40.0605 211.438 40.248C211.317 40.4355 211.224 40.6621 211.157 40.9277C211.095 41.1895 211.063 41.4844 211.063 41.8125V42.0469C211.063 42.3242 211.101 42.582 211.175 42.8203C211.253 43.0547 211.366 43.2598 211.515 43.4355C211.663 43.6113 211.843 43.75 212.054 43.8516C212.265 43.9492 212.505 43.998 212.774 43.998C213.114 43.998 213.417 43.9297 213.683 43.793C213.948 43.6562 214.179 43.4629 214.374 43.2129L215.118 43.9336C214.981 44.1328 214.804 44.3242 214.585 44.5078C214.366 44.6875 214.099 44.834 213.782 44.9473C213.47 45.0605 213.106 45.1172 212.692 45.1172ZM218.091 40.0137V45H216.679V38.6602H218.009L218.091 40.0137ZM217.839 41.5957L217.382 41.5898C217.386 41.1406 217.449 40.7285 217.57 40.3535C217.695 39.9785 217.867 39.6562 218.086 39.3867C218.308 39.1172 218.574 38.9102 218.882 38.7656C219.191 38.6172 219.535 38.543 219.914 38.543C220.218 38.543 220.494 38.5859 220.74 38.6719C220.99 38.7539 221.203 38.8887 221.379 39.0762C221.558 39.2637 221.695 39.5078 221.789 39.8086C221.882 40.1055 221.929 40.4707 221.929 40.9043V45H220.511V40.8984C220.511 40.5937 220.466 40.3535 220.377 40.1777C220.291 39.998 220.164 39.8711 219.996 39.7969C219.832 39.7187 219.627 39.6797 219.38 39.6797C219.138 39.6797 218.922 39.7305 218.73 39.832C218.539 39.9336 218.377 40.0723 218.244 40.248C218.115 40.4238 218.015 40.627 217.945 40.8574C217.875 41.0879 217.839 41.334 217.839 41.5957ZM226.637 38.6602V39.6914H223.063V38.6602H226.637ZM224.094 37.1074H225.506V43.248C225.506 43.4434 225.533 43.5937 225.588 43.6992C225.647 43.8008 225.727 43.8691 225.828 43.9043C225.93 43.9395 226.049 43.957 226.186 43.957C226.283 43.957 226.377 43.9512 226.467 43.9395C226.557 43.9277 226.629 43.916 226.684 43.9043L226.69 44.9824C226.573 45.0176 226.436 45.0488 226.28 45.0762C226.127 45.1035 225.951 45.1172 225.752 45.1172C225.428 45.1172 225.141 45.0605 224.891 44.9473C224.641 44.8301 224.446 44.6406 224.305 44.3789C224.164 44.1172 224.094 43.7695 224.094 43.3359V37.1074ZM146.758 59H145.346V52.0508C145.346 51.5781 145.434 51.1816 145.609 50.8613C145.789 50.5371 146.045 50.293 146.377 50.1289C146.709 49.9609 147.101 49.877 147.555 49.877C147.695 49.877 147.834 49.8867 147.971 49.9062C148.107 49.9219 148.24 49.9473 148.369 49.9824L148.334 51.0723C148.256 51.0527 148.17 51.0391 148.076 51.0312C147.986 51.0234 147.889 51.0195 147.783 51.0195C147.568 51.0195 147.383 51.0605 147.226 51.1426C147.074 51.2207 146.957 51.3359 146.875 51.4883C146.797 51.6406 146.758 51.8281 146.758 52.0508V59ZM148.064 52.6602V53.6914H144.373V52.6602H148.064ZM150.868 53.8672V59H149.456V52.6602H150.803L150.868 53.8672ZM152.807 52.6191L152.795 53.9316C152.71 53.916 152.616 53.9043 152.514 53.8965C152.417 53.8887 152.319 53.8848 152.221 53.8848C151.979 53.8848 151.766 53.9199 151.583 53.9902C151.399 54.0566 151.245 54.1543 151.12 54.2832C150.999 54.4082 150.905 54.5605 150.838 54.7402C150.772 54.9199 150.733 55.1211 150.721 55.3437L150.399 55.3672C150.399 54.9687 150.438 54.5996 150.516 54.2598C150.594 53.9199 150.711 53.6211 150.868 53.3633C151.028 53.1055 151.227 52.9043 151.465 52.7598C151.708 52.6152 151.987 52.543 152.303 52.543C152.389 52.543 152.481 52.5508 152.579 52.5664C152.68 52.582 152.756 52.5996 152.807 52.6191ZM153.63 55.9004V55.7656C153.63 55.3086 153.696 54.8848 153.829 54.4941C153.962 54.0996 154.154 53.7578 154.404 53.4687C154.657 53.1758 154.966 52.9492 155.329 52.7891C155.696 52.625 156.111 52.543 156.571 52.543C157.036 52.543 157.45 52.625 157.814 52.7891C158.181 52.9492 158.491 53.1758 158.745 53.4687C158.999 53.7578 159.193 54.0996 159.325 54.4941C159.458 54.8848 159.525 55.3086 159.525 55.7656V55.9004C159.525 56.3574 159.458 56.7812 159.325 57.1719C159.193 57.5625 158.999 57.9043 158.745 58.1973C158.491 58.4863 158.183 58.7129 157.82 58.877C157.456 59.0371 157.044 59.1172 156.583 59.1172C156.118 59.1172 155.702 59.0371 155.335 58.877C154.972 58.7129 154.663 58.4863 154.409 58.1973C154.155 57.9043 153.962 57.5625 153.829 57.1719C153.696 56.7812 153.63 56.3574 153.63 55.9004ZM155.042 55.7656V55.9004C155.042 56.1855 155.071 56.4551 155.13 56.709C155.189 56.9629 155.28 57.1855 155.405 57.377C155.53 57.5684 155.691 57.7187 155.886 57.8281C156.081 57.9375 156.314 57.9922 156.583 57.9922C156.845 57.9922 157.071 57.9375 157.263 57.8281C157.458 57.7187 157.618 57.5684 157.743 57.377C157.868 57.1855 157.96 56.9629 158.019 56.709C158.081 56.4551 158.113 56.1855 158.113 55.9004V55.7656C158.113 55.4844 158.081 55.2187 158.019 54.9687C157.96 54.7148 157.866 54.4902 157.738 54.2949C157.613 54.0996 157.452 53.9473 157.257 53.8379C157.066 53.7246 156.837 53.668 156.571 53.668C156.306 53.668 156.075 53.7246 155.88 53.8379C155.689 53.9473 155.53 54.0996 155.405 54.2949C155.28 54.4902 155.189 54.7148 155.13 54.9687C155.071 55.2187 155.042 55.4844 155.042 55.7656ZM162.48 53.9492V59H161.068V52.6602H162.398L162.48 53.9492ZM162.252 55.5957L161.771 55.5898C161.771 55.1523 161.826 54.748 161.935 54.377C162.045 54.0059 162.205 53.6836 162.416 53.4102C162.627 53.1328 162.889 52.9199 163.201 52.7715C163.517 52.6191 163.883 52.543 164.297 52.543C164.586 52.543 164.849 52.5859 165.088 52.6719C165.33 52.7539 165.539 52.8848 165.715 53.0645C165.894 53.2441 166.031 53.4746 166.125 53.7559C166.223 54.0371 166.271 54.377 166.271 54.7754V59H164.859V54.8984C164.859 54.5898 164.812 54.3477 164.719 54.1719C164.629 53.9961 164.498 53.8711 164.326 53.7969C164.158 53.7187 163.957 53.6797 163.723 53.6797C163.457 53.6797 163.23 53.7305 163.043 53.832C162.859 53.9336 162.709 54.0723 162.592 54.248C162.474 54.4238 162.389 54.627 162.334 54.8574C162.279 55.0879 162.252 55.334 162.252 55.5957ZM166.183 55.2207L165.521 55.3672C165.521 54.9844 165.574 54.623 165.68 54.2832C165.789 53.9395 165.947 53.6387 166.154 53.3809C166.365 53.1191 166.625 52.9141 166.933 52.7656C167.242 52.6172 167.596 52.543 167.994 52.543C168.318 52.543 168.607 52.5879 168.861 52.6777C169.119 52.7637 169.338 52.9004 169.517 53.0879C169.697 53.2754 169.834 53.5195 169.928 53.8203C170.021 54.1172 170.068 54.4766 170.068 54.8984V59H168.65V54.8926C168.65 54.5723 168.603 54.3242 168.51 54.1484C168.42 53.9727 168.291 53.8516 168.123 53.7852C167.955 53.7148 167.754 53.6797 167.519 53.6797C167.301 53.6797 167.107 53.7207 166.939 53.8027C166.775 53.8809 166.637 53.9922 166.523 54.1367C166.41 54.2773 166.324 54.4395 166.265 54.623C166.211 54.8066 166.183 55.0059 166.183 55.2207ZM181.921 54.6406V57.8984C181.8 58.0586 181.61 58.2344 181.353 58.4258C181.099 58.6133 180.761 58.7754 180.339 58.9121C179.917 59.0488 179.392 59.1172 178.763 59.1172C178.228 59.1172 177.737 59.0273 177.292 58.8477C176.847 58.6641 176.462 58.3965 176.138 58.0449C175.818 57.6934 175.569 57.2656 175.394 56.7617C175.218 56.2539 175.13 55.6758 175.13 55.0273V54.4355C175.13 53.791 175.21 53.2168 175.37 52.7129C175.534 52.2051 175.769 51.7754 176.073 51.4238C176.378 51.0723 176.745 50.8066 177.175 50.627C177.609 50.4434 178.099 50.3516 178.646 50.3516C179.345 50.3516 179.923 50.4687 180.38 50.7031C180.841 50.9336 181.196 51.2539 181.446 51.6641C181.696 52.0742 181.855 52.543 181.921 53.0703H180.48C180.433 52.7734 180.341 52.5078 180.204 52.2734C180.071 52.0391 179.88 51.8555 179.63 51.7227C179.384 51.5859 179.064 51.5176 178.669 51.5176C178.329 51.5176 178.03 51.582 177.773 51.7109C177.515 51.8398 177.3 52.0293 177.128 52.2793C176.96 52.5293 176.833 52.834 176.747 53.1934C176.661 53.5527 176.618 53.9629 176.618 54.4238V55.0273C176.618 55.4961 176.667 55.9121 176.765 56.2754C176.866 56.6387 177.011 56.9453 177.198 57.1953C177.39 57.4453 177.622 57.6348 177.896 57.7637C178.169 57.8887 178.478 57.9512 178.821 57.9512C179.157 57.9512 179.433 57.9238 179.648 57.8691C179.862 57.8105 180.032 57.7422 180.157 57.6641C180.286 57.582 180.386 57.5039 180.456 57.4297V55.7363H178.681V54.6406H181.921ZM187.344 57.7285V54.7051C187.344 54.4785 187.303 54.2832 187.22 54.1191C187.138 53.9551 187.013 53.8281 186.845 53.7383C186.681 53.6484 186.474 53.6035 186.224 53.6035C185.994 53.6035 185.795 53.6426 185.627 53.7207C185.459 53.7988 185.328 53.9043 185.234 54.0371C185.14 54.1699 185.094 54.3203 185.094 54.4883H183.687C183.687 54.2383 183.748 53.9961 183.869 53.7617C183.99 53.5273 184.166 53.3184 184.396 53.1348C184.627 52.9512 184.902 52.8066 185.222 52.7012C185.543 52.5957 185.902 52.543 186.301 52.543C186.777 52.543 187.199 52.623 187.566 52.7832C187.937 52.9434 188.228 53.1855 188.439 53.5098C188.654 53.8301 188.761 54.2324 188.761 54.7168V57.5352C188.761 57.8242 188.781 58.084 188.82 58.3145C188.863 58.541 188.924 58.7383 189.002 58.9062V59H187.554C187.488 58.8477 187.435 58.6543 187.396 58.4199C187.361 58.1816 187.344 57.9512 187.344 57.7285ZM187.549 55.1445L187.56 56.0176H186.547C186.285 56.0176 186.054 56.043 185.855 56.0937C185.656 56.1406 185.49 56.2109 185.357 56.3047C185.224 56.3984 185.125 56.5117 185.058 56.6445C184.992 56.7773 184.959 56.9277 184.959 57.0957C184.959 57.2637 184.998 57.418 185.076 57.5586C185.154 57.6953 185.267 57.8027 185.416 57.8809C185.568 57.959 185.752 57.998 185.967 57.998C186.256 57.998 186.508 57.9395 186.722 57.8223C186.941 57.7012 187.113 57.5547 187.238 57.3828C187.363 57.207 187.429 57.041 187.437 56.8848L187.894 57.5117C187.847 57.6719 187.767 57.8437 187.654 58.0273C187.541 58.2109 187.392 58.3867 187.209 58.5547C187.029 58.7187 186.812 58.8535 186.558 58.959C186.308 59.0645 186.019 59.1172 185.691 59.1172C185.277 59.1172 184.908 59.0352 184.584 58.8711C184.26 58.7031 184.006 58.4785 183.822 58.1973C183.638 57.9121 183.547 57.5898 183.547 57.2305C183.547 56.8945 183.609 56.5977 183.734 56.3398C183.863 56.0781 184.051 55.8594 184.297 55.6836C184.547 55.5078 184.851 55.375 185.211 55.2852C185.57 55.1914 185.98 55.1445 186.441 55.1445H187.549ZM192.11 50V59H190.692V50L192.11 50ZM197.591 57.7285V54.7051C197.591 54.4785 197.55 54.2832 197.468 54.1191C197.386 53.9551 197.261 53.8281 197.093 53.7383C196.929 53.6484 196.722 53.6035 196.472 53.6035C196.241 53.6035 196.042 53.6426 195.874 53.7207C195.706 53.7988 195.575 53.9043 195.481 54.0371C195.388 54.1699 195.341 54.3203 195.341 54.4883H193.935C193.935 54.2383 193.995 53.9961 194.116 53.7617C194.237 53.5273 194.413 53.3184 194.644 53.1348C194.874 52.9512 195.149 52.8066 195.47 52.7012C195.79 52.5957 196.149 52.543 196.548 52.543C197.024 52.543 197.446 52.623 197.814 52.7832C198.185 52.9434 198.476 53.1855 198.687 53.5098C198.901 53.8301 199.009 54.2324 199.009 54.7168V57.5352C199.009 57.8242 199.028 58.084 199.067 58.3145C199.11 58.541 199.171 58.7383 199.249 58.9062V59H197.802C197.735 58.8477 197.683 58.6543 197.644 58.4199C197.608 58.1816 197.591 57.9512 197.591 57.7285ZM197.796 55.1445L197.808 56.0176H196.794C196.532 56.0176 196.302 56.043 196.103 56.0937C195.903 56.1406 195.737 56.2109 195.605 56.3047C195.472 56.3984 195.372 56.5117 195.306 56.6445C195.239 56.7773 195.206 56.9277 195.206 57.0957C195.206 57.2637 195.245 57.418 195.323 57.5586C195.401 57.6953 195.515 57.8027 195.663 57.8809C195.815 57.959 195.999 57.998 196.214 57.998C196.503 57.998 196.755 57.9395 196.97 57.8223C197.189 57.7012 197.36 57.5547 197.485 57.3828C197.61 57.207 197.677 57.041 197.685 56.8848L198.142 57.5117C198.095 57.6719 198.015 57.8437 197.901 58.0273C197.788 58.2109 197.64 58.3867 197.456 58.5547C197.276 58.7187 197.06 58.8535 196.806 58.959C196.556 59.0645 196.267 59.1172 195.939 59.1172C195.524 59.1172 195.155 59.0352 194.831 58.8711C194.507 58.7031 194.253 58.4785 194.069 58.1973C193.886 57.9121 193.794 57.5898 193.794 57.2305C193.794 56.8945 193.856 56.5977 193.981 56.3398C194.11 56.0781 194.298 55.8594 194.544 55.6836C194.794 55.5078 195.099 55.375 195.458 55.2852C195.817 55.1914 196.228 55.1445 196.689 55.1445H197.796ZM201.924 52.6602L203.131 54.7637L204.361 52.6602H205.914L203.992 55.7715L205.99 59H204.437L203.148 56.8086L201.859 59H200.3L202.293 55.7715L200.377 52.6602H201.924ZM209.08 58.3086L210.803 52.6602H212.315L209.772 59.9668C209.713 60.123 209.637 60.293 209.543 60.4766C209.45 60.6602 209.326 60.834 209.174 60.998C209.026 61.166 208.84 61.3008 208.618 61.4023C208.395 61.5078 208.125 61.5605 207.809 61.5605C207.684 61.5605 207.563 61.5488 207.446 61.5254C207.332 61.5059 207.225 61.4844 207.123 61.4609L207.118 60.3828C207.157 60.3867 207.203 60.3906 207.258 60.3945C207.317 60.3984 207.364 60.4004 207.399 60.4004C207.633 60.4004 207.828 60.3711 207.985 60.3125C208.141 60.2578 208.268 60.168 208.366 60.043C208.467 59.918 208.553 59.75 208.623 59.5391L209.08 58.3086ZM208.108 52.6602L209.614 57.4062L209.866 58.8945L208.887 59.1465L206.584 52.6602H208.108ZM218.543 50.4687V59H217.072V50.4687H218.543ZM224.065 50.4687V59H222.606V50.4687H224.065ZM226.742 50.4687V51.6406H219.951V50.4687H226.742Z" fill="white"/>
<rect x="100" y="54.7085" width="33.8459" height="1.34555" rx="0.672774" fill="white"/>
<path d="M133.846 50L135.509 53.9285L140 55.3822L135.509 56.8359L133.846 60.7644L132.184 56.8359L127.693 55.3822L132.184 53.9285L133.846 50Z" fill="white"/>
<defs>
<linearGradient id="paint0_linear_39_278" x1="146.491" y1="16.3152" x2="146.491" y2="28.4445" gradientUnits="userSpaceOnUse">
<stop stop-color="#DB4F00"/>
<stop offset="0.33" stop-color="#EB7900"/>
<stop offset="1" stop-color="#DB4F00"/>
</linearGradient>
<linearGradient id="paint1_linear_39_278" x1="146.492" y1="14.4241" x2="146.492" y2="88.8054" gradientUnits="userSpaceOnUse">
<stop stop-color="#E86E00"/>
<stop offset="0.05" stop-color="#F18800"/>
<stop offset="0.11" stop-color="#F89E00"/>
<stop offset="0.16" stop-color="#FDAC00"/>
<stop offset="0.21" stop-color="#FFB100"/>
<stop offset="1" stop-color="#E86E00"/>
</linearGradient>
</defs>
</svg>
