<svg width="61" height="61" viewBox="0 0 61 61" fill="none" xmlns="http://www.w3.org/2000/svg">
<g clip-path="url(#clip0_22_906)">
<path d="M21.2349 2.4748C15.24 4.5545 10.0699 8.50183 6.48421 13.737C2.8985 18.9722 1.08609 25.2192 1.3132 31.5606C1.54032 37.9019 3.79498 44.0033 7.74602 48.9686C11.6971 53.9338 17.1362 57.5012 23.2646 59.1467C28.233 60.4287 33.4384 60.485 38.4333 59.3107C42.9583 58.2943 47.1417 56.1203 50.5739 53.0014C54.1462 49.6561 56.7391 45.4005 58.0739 40.692C59.5248 35.5717 59.783 30.187 58.8286 24.9514H30.9286V36.5248H47.0864C46.7635 38.3707 46.0715 40.1324 45.0518 41.7046C44.0322 43.2768 42.7058 44.6272 41.1521 45.6748C39.179 46.9799 36.9549 47.8581 34.6224 48.2529C32.2831 48.6879 29.8836 48.6879 27.5443 48.2529C25.1733 47.7627 22.9303 46.7841 20.9583 45.3795C17.7903 43.1369 15.4115 39.951 14.1614 36.2764C12.8903 32.5329 12.8903 28.4745 14.1614 24.7311C15.0513 22.1071 16.5222 19.7179 18.4646 17.742C20.6873 15.4392 23.5014 13.7932 26.5981 12.9845C29.6948 12.1758 32.9544 12.2357 36.0193 13.1576C38.4135 13.8926 40.6029 15.1767 42.413 16.9076C44.2349 15.0951 46.0536 13.2779 47.8693 11.4561C48.8068 10.4764 49.8286 9.54355 50.7521 8.54043C47.9891 5.96922 44.7459 3.96851 41.2083 2.65293C34.7663 0.313817 27.7176 0.250955 21.2349 2.4748Z" fill="white"/>
<path d="M21.235 2.47317C27.7172 0.247816 34.7659 0.309022 41.2084 2.64661C44.7466 3.97113 47.9884 5.98148 50.7475 8.56224C49.81 9.56536 48.8209 10.5029 47.8647 11.4779C46.0459 13.2935 44.2288 15.1029 42.4131 16.906C40.603 15.1751 38.4136 13.8909 36.0194 13.156C32.9555 12.2309 29.696 12.1675 26.5985 12.9729C23.501 13.7783 20.6852 15.4213 18.46 17.7216C16.5177 19.6976 15.0467 22.0867 14.1569 24.7107L4.4397 17.1872C7.91786 10.2899 13.9401 5.01391 21.235 2.47317Z" fill="#E33629"/>
<path d="M1.86175 24.6406C2.38404 22.0522 3.25115 19.5454 4.43988 17.1875L14.1571 24.7297C12.8859 28.4732 12.8859 32.5315 14.1571 36.275C10.9196 38.775 7.6805 41.2875 4.43988 43.8125C1.46402 37.889 0.556439 31.1399 1.86175 24.6406Z" fill="#F8BD00"/>
<path d="M30.9281 24.9453H58.8281C59.7825 30.1809 59.5243 35.5656 58.0734 40.6859C56.7386 45.3944 54.1457 49.6501 50.5734 52.9953C47.4375 50.5484 44.2875 48.1203 41.1515 45.6734C42.7063 44.6247 44.0333 43.2729 45.053 41.6991C46.0727 40.1252 46.7642 38.3616 47.0859 36.5141H30.9281C30.9234 32.6609 30.9281 28.8031 30.9281 24.9453Z" fill="#587DBD"/>
<path d="M4.43481 43.8129C7.67544 41.3129 10.9145 38.8004 14.152 36.2754C15.4045 39.9513 17.7867 43.1374 20.9583 45.3785C22.9364 46.7766 25.1842 47.7473 27.5583 48.2285C29.8976 48.6635 32.297 48.6635 34.6364 48.2285C36.9689 47.8337 39.193 46.9555 41.1661 45.6504C44.302 48.0973 47.452 50.5254 50.5879 52.9723C47.1562 56.0929 42.9727 58.2686 38.4473 59.2863C33.4524 60.4606 28.247 60.4043 23.2786 59.1223C19.349 58.0731 15.6786 56.2235 12.4973 53.6895C9.1301 51.0161 6.37992 47.6471 4.43481 43.8129Z" fill="#319F43"/>
</g>
<defs>
<clipPath id="clip0_22_906">
<rect width="60" height="60" fill="white" transform="translate(0.333252 0.5)"/>
</clipPath>
</defs>
</svg>
