<svg width="24" height="24" viewBox="0 0 24 24" fill="none" xmlns="http://www.w3.org/2000/svg">
<path d="M7.32764 7.44828L11.8794 12L14.5345 1H8.84488L7.32764 7.44828Z" fill="#111315"/>
<path d="M12.9766 1L10.6211 10.7407L8.5918 8.71138L10.4049 1H12.9766Z" fill="#A60416"/>
<path d="M16.431 7.44828L11.8793 12L9.22412 1H14.9138L16.431 7.44828Z" fill="#212529"/>
<path d="M15.1695 8.71138L13.1402 10.7407L10.7847 1H13.3564L15.1695 8.71138Z" fill="#DD051D"/>
<path d="M11.8793 22.9998C15.1264 22.9998 17.7586 20.3676 17.7586 17.1205C17.7586 13.8735 15.1264 11.2412 11.8793 11.2412C8.63226 11.2412 6 13.8735 6 17.1205C6 20.3676 8.63226 22.9998 11.8793 22.9998Z" fill="#FCCD1D"/>
<path d="M11.8809 21.441C14.267 21.441 16.2012 19.5067 16.2012 17.1206C16.2012 14.7346 14.267 12.8003 11.8809 12.8003C9.49483 12.8003 7.56055 14.7346 7.56055 17.1206C7.56055 19.5067 9.49483 21.441 11.8809 21.441Z" fill="#F9A215"/>
<path d="M12.297 14.8183L12.7559 15.6186C12.7904 15.6774 12.8369 15.728 12.8925 15.7673C12.9481 15.8065 13.0115 15.8334 13.0783 15.8462L14.0001 16.0283C14.0794 16.0447 14.153 16.0816 14.2136 16.1353C14.2742 16.189 14.3196 16.2577 14.3453 16.3345C14.3711 16.4113 14.3762 16.4935 14.3602 16.5729C14.3442 16.6523 14.3076 16.7261 14.2542 16.7869L13.6207 17.4621C13.5729 17.512 13.5368 17.5719 13.5151 17.6376C13.4935 17.7032 13.4868 17.7728 13.4956 17.8414L13.6056 18.7518C13.6139 18.8355 13.6 18.92 13.5653 18.9966C13.5305 19.0733 13.4761 19.1394 13.4076 19.1883C13.3391 19.2372 13.2589 19.2671 13.1751 19.275C13.0913 19.283 13.0069 19.2686 12.9304 19.2335L12.0807 18.8542C12.0175 18.8259 11.949 18.8113 11.8797 18.8113C11.8104 18.8113 11.7419 18.8259 11.6787 18.8542L10.829 19.2335C10.7526 19.2686 10.6681 19.283 10.5844 19.275C10.5006 19.2671 10.4204 19.2372 10.3518 19.1883C10.2833 19.1394 10.2289 19.0733 10.1942 18.9966C10.1594 18.92 10.1455 18.8355 10.1539 18.7518L10.2639 17.8414C10.2726 17.7728 10.266 17.7032 10.2443 17.6376C10.2226 17.5719 10.1865 17.512 10.1387 17.4621L9.50523 16.7869C9.45179 16.7261 9.41524 16.6523 9.39925 16.5729C9.38326 16.4935 9.38838 16.4113 9.4141 16.3345C9.43983 16.2577 9.48525 16.189 9.54584 16.1353C9.60643 16.0816 9.68006 16.0447 9.75937 16.0283L10.6811 15.8462C10.7479 15.8334 10.8113 15.8065 10.8669 15.7673C10.9225 15.728 10.9691 15.6774 11.0035 15.6186L11.4625 14.8183C11.5055 14.746 11.5666 14.6861 11.6397 14.6445C11.7129 14.6029 11.7956 14.5811 11.8797 14.5811C11.9639 14.5811 12.0466 14.6029 12.1197 14.6445C12.1929 14.6861 12.2539 14.746 12.297 14.8183Z" fill="#FCCD1D"/>
</svg>
