<svg width="200" height="200" viewBox="0 0 200 200" fill="none" xmlns="http://www.w3.org/2000/svg">
<path d="M166.819 42.5886C171.806 38.3041 172.418 30.7265 167.572 26.2841C151.596 11.6393 131.199 2.50339 109.409 0.443938C83.6484 -1.99086 57.9464 5.65487 37.7048 21.7744C17.4631 37.8939 4.25791 61.2321 0.864155 86.8845C-2.5296 112.537 4.15236 138.506 19.5058 159.335C34.8593 180.163 57.6888 194.23 83.1968 198.578C108.705 202.926 134.905 197.217 156.292 182.651C177.679 168.085 192.586 145.796 197.883 120.468C202.362 99.044 199.67 76.8572 190.408 57.2637C187.598 51.3201 180.179 49.6631 174.611 53.1587C169.043 56.6543 167.461 63.9786 170.047 70.0226C176.158 84.3017 177.797 100.207 174.579 115.595C170.544 134.893 159.185 151.875 142.89 162.974C126.595 174.072 106.632 178.421 87.1973 175.109C67.7622 171.796 50.3678 161.078 38.6697 145.209C26.9715 129.339 21.8804 109.552 24.4662 90.007C27.0519 70.4618 37.1133 52.6799 52.5359 40.3981C67.9584 28.1163 87.5414 22.2908 107.169 24.146C122.82 25.6252 137.528 31.8962 149.36 41.9582C154.368 46.2173 161.833 46.873 166.819 42.5886Z" fill="url(#paint0_linear_39_139)"/>
<defs>
<linearGradient id="paint0_linear_39_139" x1="-41.0169" y1="89.3208" x2="83.0675" y2="-1.98698" gradientUnits="userSpaceOnUse">
<stop stop-color="#FFB100"/>
<stop offset="1" stop-color="#FF3F15"/>
</linearGradient>
</defs>
</svg>
