<svg width="100" height="100" viewBox="0 0 100 100" fill="none" xmlns="http://www.w3.org/2000/svg">
<path d="M96.4758 60C96.9406 59.9993 97.4009 60.0907 97.8302 60.2689C98.2595 60.447 98.6492 60.7085 98.977 61.038C99.3047 61.3676 99.5639 61.7588 99.7396 62.1891C99.9154 62.6194 100.004 63.0802 100.001 63.545V79.565C100.004 80.0277 99.9162 80.4865 99.742 80.9151C99.5678 81.3438 99.3109 81.7339 98.9858 82.0631C98.6607 82.3924 98.2739 82.6543 97.8475 82.8339C97.4211 83.0136 96.9635 83.1074 96.5008 83.11C96.0381 83.1074 95.5805 83.0136 95.1541 82.8339C94.7277 82.6543 94.3409 82.3924 94.0159 82.0631C93.6908 81.7339 93.4338 81.3438 93.2597 80.9151C93.0855 80.4865 92.9975 80.0277 93.0008 79.565V73.94C83.8958 89.22 66.9958 100 48.7858 100C26.7358 100 8.25582 86.395 0.240815 65.425C-0.0984322 64.5515 -0.0785608 63.5793 0.296096 62.7204C0.670753 61.8615 1.36981 61.1856 2.24082 60.84C4.04082 60.135 6.07082 61.04 6.77082 62.865C13.7708 81.175 29.7108 92.915 48.7858 92.915C65.6408 92.915 81.3858 82.005 88.7208 67.145L81.3658 67.195C80.9032 67.1957 80.4449 67.1051 80.0172 66.9285C79.5896 66.7519 79.201 66.4927 78.8736 66.1658C78.5462 65.8389 78.2864 65.4506 78.1092 65.0232C77.932 64.5958 77.8408 64.1377 77.8408 63.675C77.8288 62.7409 78.188 61.8403 78.8396 61.1709C79.4911 60.5016 80.3818 60.1182 81.3158 60.105L96.4758 60ZM51.2258 0C73.2658 0 91.7508 13.605 99.7658 34.575C100.105 35.4485 100.085 36.4207 99.7105 37.2796C99.3359 38.1385 98.6368 38.8144 97.7658 39.16C97.3357 39.3277 96.8766 39.4083 96.4151 39.3971C95.9535 39.3859 95.4988 39.2831 95.0774 39.0947C94.6559 38.9063 94.2761 38.6361 93.96 38.2997C93.6438 37.9632 93.3977 37.5674 93.2358 37.135C86.2358 18.825 70.2958 7.085 51.2208 7.085C34.3658 7.085 18.6208 17.995 11.2858 32.855L18.6408 32.805C19.1035 32.8043 19.5618 32.8949 19.9894 33.0715C20.417 33.2481 20.8057 33.5073 21.1331 33.8342C21.4605 34.1611 21.7202 34.5494 21.8974 34.9768C22.0746 35.4042 22.1658 35.8623 22.1658 36.325C22.1778 37.2591 21.8186 38.1597 21.167 38.8291C20.5155 39.4984 19.6249 39.8818 18.6908 39.895L3.52582 40C3.06103 40.0007 2.60071 39.9093 2.17143 39.7311C1.74215 39.553 1.3524 39.2915 1.02468 38.962C0.696958 38.6324 0.437752 38.2412 0.262021 37.8109C0.0862903 37.3806 -0.0024861 36.9198 0.000815415 36.455V20.435C0.000815415 18.475 1.56582 16.89 3.50082 16.89C5.43582 16.89 7.00082 18.475 7.00082 20.435V26.06C16.1058 10.78 33.0058 0 51.2158 0" fill="#FF3F15"/>
</svg>
