<svg width="24" height="24" viewBox="0 0 24 24" fill="none" xmlns="http://www.w3.org/2000/svg">
<path d="M15.2402 18.0044H8.76025V20.0001H15.2402V18.0044Z" fill="#CCCCCC"/>
<path d="M13.2499 14.6211H10.75V18.0032H13.2499V14.6211Z" fill="#333333"/>
<path d="M10.75 16.3126L12 16.9838L13.2499 16.4213V15.1401H10.75V16.3126Z" fill="black"/>
<path d="M18.0601 4H6.01562V4.99996H18.0601V4Z" fill="#333333"/>
<path d="M8.14087 13.14C3.94579 11.8333 4.00003 7.12071 4.00003 7.07321L4.01078 6.58398H6.97642V7.58394H5.02349C5.12599 8.6879 5.66422 11.321 8.43786 12.1838L8.14087 13.14Z" fill="#333333"/>
<path d="M15.8592 13.1402L15.5625 12.1852C18.3374 11.3215 18.8744 8.68837 18.9769 7.58541H17.0237V6.58545H19.9893L20.0001 7.07343C20.0001 7.12093 20.0543 11.8335 15.8592 13.1402Z" fill="#333333"/>
<path d="M12.0043 15.9451V5H6.59375V8.74485C6.59375 10.3093 7.25522 14.0404 12.0043 15.9451Z" fill="#CCCCCC"/>
<path d="M12.0054 15.9451V5H17.4162V8.74485C17.4162 10.3093 16.7547 14.0404 12.0054 15.9451Z" fill="#CCCCCC"/>
<path d="M11.999 8.97702C12.7997 8.97702 13.4487 8.32797 13.4487 7.52733C13.4487 6.72669 12.7997 6.07764 11.999 6.07764C11.1984 6.07764 10.5493 6.72669 10.5493 7.52733C10.5493 8.32797 11.1984 8.97702 11.999 8.97702Z" fill="white"/>
<path d="M11.9316 12.3477L10.5317 9.31104C10.5317 9.31104 9.0625 9.33053 9.0625 10.6825V12.3477H11.9316Z" fill="white"/>
<path d="M12.0679 12.3477L13.4678 9.31104C13.4678 9.31104 14.937 9.33053 14.937 10.6825V12.3477H12.0679Z" fill="white"/>
<path d="M12.0011 9.31104H10.9922L12.0011 11.5442L13.0101 9.31104H12.0011Z" fill="#E21B1B"/>
</svg>
