<svg width="24" height="24" viewBox="0 0 24 24" fill="none" xmlns="http://www.w3.org/2000/svg">
<path d="M19.9834 7.00478L19.9445 6.67943H17.9983C18.0956 6.02871 18.154 5.35885 18.1929 4.66986C18.2124 4.30622 17.9205 4 17.5896 4H6.43822C6.08792 4 5.81546 4.30622 5.83492 4.66986C5.85438 5.35885 5.93223 6.02871 6.02953 6.67943H4.08339L4.025 7.00478C4.00554 7.08134 3.79147 9.03349 5.07592 10.7943C5.91276 11.9426 7.21668 12.7273 8.90983 13.1292C9.45475 13.6651 10.0581 14.067 10.7003 14.3158C10.6224 15.1005 10.5251 15.866 10.4278 16.5742H13.6C13.4833 15.8469 13.386 15.1005 13.3081 14.3158C13.9503 14.0861 14.5536 13.6842 15.0986 13.1292C16.7917 12.7273 18.0956 11.9426 18.9325 10.7943C20.2169 9.03349 19.9834 7.08134 19.9834 7.00478ZM5.6403 10.3158C4.82292 9.20574 4.72562 8 4.72562 7.42584H6.1463C6.51607 9.24402 7.17776 10.8517 8.0146 12.0574C7.00261 11.6746 6.20469 11.0813 5.6403 10.3158ZM18.3681 10.3158C17.8037 11.0813 17.0058 11.6746 15.9938 12.0574C16.8501 10.8325 17.4923 9.24402 17.8621 7.42584H19.2828C19.2828 8 19.166 9.20574 18.3681 10.3158Z" fill="#FFC54D"/>
<path d="M15.3119 19.273H8.69503C8.50042 19.273 8.34473 19.1199 8.34473 18.9285V16.4788C8.34473 16.2874 8.50042 16.1343 8.69503 16.1343H15.3119C15.5065 16.1343 15.6622 16.2874 15.6622 16.4788V18.9285C15.6622 19.1199 15.5065 19.273 15.3119 19.273Z" fill="#C19D72"/>
<path d="M7.70285 20.0003H16.3048C16.4994 20.0003 16.6551 19.8471 16.6551 19.6558V18.9285C16.6551 18.7371 16.4994 18.584 16.3048 18.584H7.70285C7.50823 18.584 7.35254 18.7371 7.35254 18.9285V19.6558C7.35254 19.828 7.50823 20.0003 7.70285 20.0003Z" fill="#A88763"/>
<path d="M13.5622 17.9139H10.4484C10.3122 17.9139 10.2148 17.8182 10.2148 17.6842V17.2057C10.2148 17.0718 10.3122 16.9761 10.4484 16.9761H13.5622C13.6984 16.9761 13.7958 17.0718 13.7958 17.2057V17.6842C13.7958 17.8182 13.679 17.9139 13.5622 17.9139Z" fill="#FFC54D"/>
</svg>
