<svg width="40" height="40" viewBox="0 0 40 40" fill="none" xmlns="http://www.w3.org/2000/svg">
<path d="M11.8819 6.43992C9.8872 4.23992 4.7992 2.08526 1.8152 8.22926C0.503199 10.9173 2.0792 14.0079 3.73253 16.7999C5.8392 20.3999 8.54587 23.1999 10.4499 20.8853C13.8365 16.7599 11.8819 6.43992 11.8819 6.43992Z" fill="#9EA9AC" stroke="black" stroke-width="1.06667" stroke-miterlimit="10"/>
<path d="M28.1159 6.43997C30.1132 4.23997 35.1905 2.08264 38.1852 8.2293C39.4945 10.9173 37.9185 14.008 36.2759 16.8053C34.1612 20.4 31.4519 23.2053 29.5479 20.888C26.1612 16.76 28.1159 6.43997 28.1159 6.43997Z" fill="#9EA9AC" stroke="black" stroke-width="1.06667" stroke-miterlimit="10"/>
<path d="M14.2397 8.03744C11.8984 5.19211 3.5517 4.87211 4.37304 11.6588C4.77304 14.9761 5.99704 16.5441 8.0797 18.6188C11.0344 21.5521 14.525 21.8028 16.429 19.4801C19.8104 15.3548 14.2397 8.03744 14.2397 8.03744Z" fill="#5E6C70"/>
<path d="M25.7591 8.03744C28.1004 5.19211 36.4471 4.87211 35.6257 11.6588C35.2257 14.9761 34.0017 16.5441 31.9191 18.6188C28.9644 21.5521 25.4737 21.8028 23.5697 19.4801C20.1884 15.3548 25.7591 8.03744 25.7591 8.03744Z" fill="#5E6C70"/>
<path d="M30.4622 16.432C29.4969 20.56 30.2862 22.944 28.4996 25.544C27.0516 27.6534 23.2276 30.28 19.9983 30.28C16.7689 30.28 12.9476 27.6534 11.4942 25.544C9.70758 22.9414 10.4996 20.5574 9.53158 16.432C7.60625 8.19202 12.9822 2.48535 19.9983 2.48535C27.0142 2.48535 32.3929 8.19202 30.4622 16.432Z" fill="#B4BFC2" stroke="black" stroke-width="1.06667" stroke-miterlimit="10"/>
<path d="M25.5804 25.7066C26.951 25.2399 27.895 26.7279 28.0977 28.3599C28.3004 29.9919 29.783 30.9279 29.2284 31.4692C28.5777 32.1012 26.1297 30.4479 25.0684 28.7812C24.3164 27.5999 24.1937 26.1786 25.5804 25.7066Z" fill="#FCEEBB" stroke="black" stroke-width="0.533333" stroke-miterlimit="10"/>
<path d="M14.4224 25.7066C13.0517 25.2399 12.1077 26.7279 11.905 28.3599C11.7024 29.9919 10.217 30.9332 10.7717 31.4666C11.4224 32.0986 13.8704 30.4452 14.9317 28.7786C15.6864 27.5999 15.809 26.1786 14.4224 25.7066Z" fill="#FCEEBB" stroke="black" stroke-width="0.533333" stroke-miterlimit="10"/>
<path d="M15.3843 24.7254C16.235 27.1494 16.5203 34.0241 14.1603 34.5921C13.011 34.8588 12.027 34.1254 12.003 33.4588C11.979 32.7921 11.4536 31.5334 10.803 32.5601C10.003 32.2721 9.55764 33.0934 10.179 33.6934C10.1336 34.7814 11.5603 37.5148 14.4003 37.5148C20.635 37.5148 24.779 32.9308 24.267 24.6694" fill="#B4BFC2"/>
<path d="M15.3843 24.7254C16.235 27.1494 16.5203 34.0241 14.1603 34.5921C13.011 34.8588 12.027 34.1254 12.003 33.4588C11.979 32.7921 11.4536 31.5334 10.803 32.5601C10.003 32.2721 9.55764 33.0934 10.179 33.6934C10.1336 34.7814 11.5603 37.5148 14.4003 37.5148C20.635 37.5148 24.779 32.9308 24.267 24.6694" stroke="black" stroke-width="1.06667" stroke-linecap="round" stroke-linejoin="round"/>
<path d="M27.3755 16.9384C27.3755 17.8744 26.5248 18.8718 25.4768 18.8718C24.4288 18.8718 23.5781 18.3384 23.5781 17.4158C23.5781 16.4931 24.4288 15.4824 25.4795 15.4824C26.5301 15.4824 27.3755 15.9998 27.3755 16.9384Z" fill="#FCFCFC" stroke="black" stroke-width="0.504" stroke-linecap="round" stroke-linejoin="round"/>
<path d="M25.4708 17.9972C25.9789 17.9972 26.3908 17.6294 26.3908 17.1758C26.3908 16.7222 25.9789 16.3545 25.4708 16.3545C24.9627 16.3545 24.5508 16.7222 24.5508 17.1758C24.5508 17.6294 24.9627 17.9972 25.4708 17.9972Z" fill="black"/>
<path d="M16.425 17.4131C16.425 18.3491 15.5743 18.8691 14.5263 18.8691C13.4783 18.8691 12.625 17.8664 12.625 16.9384C12.625 16.0104 13.4757 15.4824 14.5263 15.4824C15.577 15.4824 16.425 16.4771 16.425 17.4131Z" fill="#FCFCFC" stroke="black" stroke-width="0.504" stroke-linecap="round" stroke-linejoin="round"/>
<path d="M14.5255 17.9972C15.0336 17.9972 15.4455 17.6294 15.4455 17.1758C15.4455 16.7222 15.0336 16.3545 14.5255 16.3545C14.0174 16.3545 13.6055 16.7222 13.6055 17.1758C13.6055 17.6294 14.0174 17.9972 14.5255 17.9972Z" fill="black"/>
<path d="M25.1981 7.7733C23.9234 7.1813 22.0648 6.80797 19.9981 6.80797C17.9314 6.80797 16.0754 7.1813 14.8008 7.7733C15.7314 6.79997 17.7021 6.1333 19.9981 6.1333C22.2941 6.1333 24.2648 6.79997 25.1981 7.7733Z" fill="#5E6C70"/>
<path d="M22.6052 11.1253C21.7798 10.7846 20.8926 10.6193 19.9999 10.6399C19.1073 10.6183 18.2201 10.7827 17.3945 11.1226C17.8665 10.6373 18.8479 10.3013 19.9999 10.3013C21.1519 10.3013 22.1332 10.6373 22.6052 11.1253Z" fill="#5E6C70"/>
<path d="M24.298 9.59975C23.2313 9.10908 21.706 8.79975 19.9966 8.79975C18.2873 8.79975 16.7513 9.10908 15.6953 9.59975C16.4606 8.79975 18.0953 8.23975 19.9966 8.23975C21.898 8.23975 23.5326 8.79975 24.298 9.59975Z" fill="#5E6C70"/>
</svg>
