<svg width="40" height="40" viewBox="0 0 40 40" fill="none" xmlns="http://www.w3.org/2000/svg">
<path d="M17.312 4.36788C17.4 5.54922 17.472 7.46922 17.112 8.77322C16.5626 10.7786 14.4453 8.85055 14.4453 8.85055C14.4924 7.2581 14.7124 5.67549 15.1013 4.13055C14.8914 3.88446 14.7602 3.58104 14.7246 3.25954C14.689 2.93805 14.7507 2.61328 14.9018 2.32725C15.0528 2.04122 15.2862 1.8071 15.5718 1.65517C15.8573 1.50325 16.1819 1.44051 16.5035 1.47508C16.8251 1.50965 17.1289 1.63993 17.3757 1.84907C17.6224 2.05821 17.8007 2.33659 17.8875 2.64818C17.9743 2.95977 17.9656 3.29024 17.8625 3.59683C17.7594 3.90342 17.5667 4.17202 17.3093 4.36788H17.312Z" fill="#B57210" stroke="black" stroke-width="0.533333" stroke-miterlimit="10"/>
<path d="M22.6817 4.36788C22.5937 5.54922 22.5217 7.46922 22.8817 8.77322C23.431 10.7786 25.5484 8.85055 25.5484 8.85055C25.5013 7.2581 25.2813 5.67549 24.8924 4.13055C25.1023 3.88446 25.2335 3.58104 25.2691 3.25954C25.3046 2.93805 25.2429 2.61328 25.0919 2.32725C24.9409 2.04122 24.7075 1.8071 24.4219 1.65517C24.1363 1.50325 23.8118 1.44051 23.4902 1.47508C23.1686 1.50965 22.8647 1.63993 22.618 1.84907C22.3712 2.05821 22.1929 2.33659 22.1061 2.64818C22.0193 2.95977 22.0281 3.29024 22.1311 3.59683C22.2342 3.90342 22.4269 4.17202 22.6844 4.36788H22.6817Z" fill="#B57210" stroke="black" stroke-width="0.533333" stroke-miterlimit="10"/>
<path d="M15.6094 38.8002V29.0908H24.4494V38.8002" fill="#E89C05"/>
<path d="M15.6094 38.8002V29.0908H24.4494V38.8002" stroke="black" stroke-width="1.06667" stroke-miterlimit="10"/>
<path d="M26.3125 13.9122C29.8832 7.32285 34.4352 6.44552 37.2298 8.19485C39.7365 9.77352 31.2512 18.9522 26.3125 13.9122Z" fill="#E89C05" stroke="black" stroke-width="1.06667" stroke-miterlimit="10"/>
<path d="M13.69 13.9122C10.1194 7.32285 5.56738 6.44552 2.77271 8.19485C0.268713 9.77352 8.75138 18.9522 13.69 13.9122Z" fill="#E89C05" stroke="black" stroke-width="1.06667" stroke-miterlimit="10"/>
<path d="M28.818 17.68C28.586 20.8 24.9567 28.576 23.7807 29.5334C22.6047 30.4907 19.9993 30.488 19.9993 30.488C19.9993 30.488 17.394 30.488 16.218 29.5307C15.042 28.5734 11.4127 20.8 11.1807 17.68C10.9487 14.56 12.434 12.5174 12.8953 11.672C13.3567 10.8267 12.8953 8.17605 14.122 7.38938C15.3487 6.60271 18.1593 8.40271 19.9887 8.40271C21.818 8.40271 24.6393 6.60005 25.8553 7.38938C27.0713 8.17871 26.6207 10.8267 27.082 11.672C27.5433 12.5174 29.05 14.5627 28.818 17.68Z" fill="#E89C05" stroke="black" stroke-width="1.06667" stroke-miterlimit="10"/>
<path d="M28.2897 17.6401C28.0604 20.6907 24.4124 28.3334 23.4471 29.1067C23.309 29.2118 23.1596 29.3013 23.0017 29.3734C22.8423 28.8069 22.7528 28.223 22.7351 27.6347C22.2924 19.8721 23.8017 14.4667 27.5351 13.5601C28.1336 14.8324 28.3935 16.2378 28.2897 17.6401Z" fill="#FFF1CE"/>
<path d="M17.2593 27.7922C17.2403 28.338 17.1653 28.8804 17.0353 29.4108C16.863 29.3333 16.7009 29.2347 16.5526 29.1175C15.5873 28.3335 11.9393 20.6908 11.7099 17.6508C11.6092 16.3013 11.8485 14.948 12.4059 13.7148C16.1819 14.5735 17.7046 20.0002 17.2593 27.7922Z" fill="#FFF1CE"/>
<path d="M24.649 30.488C24.649 32.1947 21.505 35.0507 19.9983 35.0507C18.4917 35.0507 15.3477 32.1947 15.3477 30.488C15.3477 28.7814 15.9103 23.1094 19.9983 23.1094C24.0863 23.1094 24.649 28.7814 24.649 30.488Z" fill="#795F54" stroke="black" stroke-width="1.06667" stroke-miterlimit="10"/>
<path d="M26.5997 18.1066C27.1078 18.1066 27.5197 17.6947 27.5197 17.1866C27.5197 16.6785 27.1078 16.2666 26.5997 16.2666C26.0916 16.2666 25.6797 16.6785 25.6797 17.1866C25.6797 17.6947 26.0916 18.1066 26.5997 18.1066Z" fill="black"/>
<path d="M13.4513 18.1066C13.9594 18.1066 14.3713 17.6947 14.3713 17.1866C14.3713 16.6785 13.9594 16.2666 13.4513 16.2666C12.9431 16.2666 12.5312 16.6785 12.5312 17.1866C12.5312 17.6947 12.9431 18.1066 13.4513 18.1066Z" fill="black"/>
<path d="M18.707 27.8028C19.1062 27.8028 19.4297 27.4792 19.4297 27.0801C19.4297 26.681 19.1062 26.3574 18.707 26.3574C18.3079 26.3574 17.9844 26.681 17.9844 27.0801C17.9844 27.4792 18.3079 27.8028 18.707 27.8028Z" fill="#232323"/>
<path d="M21.2969 27.8028C21.696 27.8028 22.0196 27.4792 22.0196 27.0801C22.0196 26.681 21.696 26.3574 21.2969 26.3574C20.8978 26.3574 20.5742 26.681 20.5742 27.0801C20.5742 27.4792 20.8978 27.8028 21.2969 27.8028Z" fill="#232323"/>
<path d="M17.4034 36.9998C17.4036 37.3842 17.2807 37.7585 17.0528 38.068C16.8248 38.3775 16.5038 38.6059 16.1367 38.7198V35.2798C16.5038 35.3937 16.8248 35.6221 17.0528 35.9316C17.2807 36.2411 17.4036 36.6154 17.4034 36.9998Z" fill="#C66700"/>
<path d="M23.9139 35.2798V38.7198C23.5463 38.6064 23.2247 38.3782 22.9962 38.0686C22.7678 37.7591 22.6445 37.3845 22.6445 36.9998C22.6445 36.6151 22.7678 36.2405 22.9962 35.9309C23.2247 35.6214 23.5463 35.3932 23.9139 35.2798Z" fill="#C66700"/>
</svg>
