<svg width="40" height="40" viewBox="0 0 40 40" fill="none" xmlns="http://www.w3.org/2000/svg">
<path d="M35.625 25.1624C35.625 33.7937 28.6313 35.6249 20 35.6249C11.3687 35.6249 4.375 33.7937 4.375 25.1624C4.375 21.3562 5.7375 14.8499 8.00625 11.5562C8.275 11.1624 8.55625 10.7812 8.85 10.4062C10.0184 8.92053 11.4149 7.6295 12.9875 6.58118C13.6033 6.17115 14.2512 5.81164 14.925 5.50618C16.5131 4.7612 18.2458 4.375 20 4.375C21.7542 4.375 23.4869 4.7612 25.075 5.50618C25.7488 5.81164 26.3967 6.17115 27.0125 6.58118C28.5851 7.6295 29.9816 8.92053 31.15 10.4062C31.4438 10.7812 31.725 11.1624 31.9937 11.5562C34.2625 14.8499 35.625 21.3562 35.625 25.1624Z" fill="#965500"/>
<path d="M14.6875 15.625C15.2053 15.625 15.625 15.2053 15.625 14.6875C15.625 14.1697 15.2053 13.75 14.6875 13.75C14.1697 13.75 13.75 14.1697 13.75 14.6875C13.75 15.2053 14.1697 15.625 14.6875 15.625Z" fill="#2D2D2D"/>
<path d="M25.3125 15.625C25.8303 15.625 26.25 15.2053 26.25 14.6875C26.25 14.1697 25.8303 13.75 25.3125 13.75C24.7947 13.75 24.375 14.1697 24.375 14.6875C24.375 15.2053 24.7947 15.625 25.3125 15.625Z" fill="#2D2D2D"/>
<path d="M33.1252 7.50004C33.1253 8.12663 32.937 8.73879 32.5849 9.25704C32.2327 9.77529 31.7328 10.1757 31.1502 10.4063C29.9818 8.92063 28.5853 7.62961 27.0127 6.58129C27.2323 5.86557 27.7016 5.25249 28.3351 4.85359C28.9687 4.45469 29.7243 4.29649 30.4647 4.40777C31.205 4.51905 31.8808 4.89241 32.3691 5.45992C32.8574 6.02743 33.1257 6.75138 33.1252 7.50004Z" fill="#703F00"/>
<path d="M12.9866 6.58133C11.414 7.62966 10.0175 8.92068 8.84912 10.4063C8.35786 10.2117 7.92397 9.89575 7.58801 9.48791C7.25204 9.08008 7.02498 8.59372 6.92804 8.07429C6.8311 7.55486 6.86745 7.01934 7.0337 6.51778C7.19994 6.01622 7.49065 5.565 7.87865 5.20631C8.26664 4.84762 8.73926 4.59317 9.2523 4.46674C9.76535 4.34032 10.3021 4.34605 10.8123 4.4834C11.3225 4.62075 11.7896 4.88523 12.1699 5.25212C12.5501 5.61902 12.8311 6.07634 12.9866 6.58133Z" fill="#703F00"/>
<path d="M22.83 31.8752H17.1675C16.8147 31.8773 16.4655 31.8048 16.1428 31.6623C15.82 31.5198 15.5311 31.3107 15.2949 31.0486C15.0588 30.7865 14.8808 30.4773 14.7727 30.1415C14.6645 29.8057 14.6287 29.4508 14.6675 29.1002L15.13 24.9752C15.227 24.0994 15.5587 23.266 16.09 22.5631C16.6214 21.8601 17.3327 21.3137 18.1488 20.9814C18.1534 21.0163 18.1639 21.0502 18.18 21.0814C18.2656 21.2596 18.4118 21.4014 18.5925 21.4814L19.9863 22.1064L21.38 21.4814C21.5607 21.4014 21.7069 21.2596 21.7925 21.0814C21.798 21.0483 21.798 21.0146 21.7925 20.9814C22.6195 21.3105 23.3414 21.8584 23.8809 22.5663C24.4203 23.2742 24.7571 24.1155 24.855 25.0002L25.3175 29.1252C25.3525 29.4728 25.3141 29.8239 25.205 30.1559C25.0959 30.4878 24.9185 30.7931 24.6841 31.0523C24.4497 31.3114 24.1636 31.5185 23.8443 31.6602C23.5249 31.802 23.1794 31.8752 22.83 31.8752Z" fill="#703F00"/>
<path d="M20 28.75C19.8342 28.75 19.6753 28.6842 19.5581 28.5669C19.4408 28.4497 19.375 28.2908 19.375 28.125V21.25C19.375 21.0842 19.4408 20.9253 19.5581 20.8081C19.6753 20.6908 19.8342 20.625 20 20.625C20.1658 20.625 20.3247 20.6908 20.4419 20.8081C20.5592 20.9253 20.625 21.0842 20.625 21.25V28.125C20.625 28.2908 20.5592 28.4497 20.4419 28.5669C20.3247 28.6842 20.1658 28.75 20 28.75Z" fill="#3E2C27"/>
<path d="M18.1241 30.0002C17.9906 29.9992 17.8609 29.9554 17.754 29.8753C17.6472 29.7952 17.5688 29.683 17.5304 29.5551C17.4919 29.4272 17.4955 29.2904 17.5404 29.1647C17.5854 29.039 17.6695 28.9309 17.7803 28.8565L19.6553 27.6065C19.7926 27.5328 19.9523 27.5131 20.1033 27.5511C20.2544 27.5892 20.3857 27.6822 20.4718 27.812C20.5578 27.9418 20.5922 28.0991 20.5684 28.2529C20.5445 28.4068 20.4641 28.5463 20.3428 28.644L18.4678 29.894C18.3672 29.9645 18.247 30.0016 18.1241 30.0002Z" fill="#3E2C27"/>
<path d="M21.874 30.0002C21.7512 30.0016 21.631 29.9645 21.5303 29.894L19.6553 28.644C19.534 28.5463 19.4536 28.4068 19.4297 28.2529C19.4059 28.0991 19.4403 27.9418 19.5264 27.812C19.6124 27.6822 19.7438 27.5892 19.8948 27.5511C20.0458 27.5131 20.2056 27.5328 20.3428 27.6065L22.2178 28.8565C22.3286 28.9309 22.4127 29.039 22.4577 29.1647C22.5027 29.2904 22.5062 29.4272 22.4678 29.5551C22.4293 29.683 22.351 29.7952 22.2441 29.8753C22.1373 29.9554 22.0076 29.9992 21.874 30.0002Z" fill="#3E2C27"/>
<path d="M21.8745 20.7874C21.8742 20.8538 21.8615 20.9195 21.837 20.9812C21.8425 21.0143 21.8425 21.0481 21.837 21.0812C21.7514 21.2593 21.6052 21.4011 21.4245 21.4812L20.0308 22.1062L18.637 21.4812C18.4563 21.4011 18.3101 21.2593 18.2245 21.0812C18.2084 21.0499 18.1979 21.0161 18.1933 20.9812C18.1688 20.9195 18.1561 20.8538 18.1558 20.7874C18.167 20.5735 18.2604 20.3723 18.4164 20.2256C18.5725 20.0788 18.7791 19.998 18.9933 19.9999H21.0058C21.2252 19.9897 21.4398 20.0668 21.6026 20.2144C21.7654 20.362 21.8632 20.568 21.8745 20.7874Z" fill="#3E2C27"/>
</svg>
