<svg width="40" height="40" viewBox="0 0 40 40" fill="none" xmlns="http://www.w3.org/2000/svg">
<path d="M36.6472 21.7331C36.6472 21.7331 38.0632 27.8851 36.9485 30.4238L36.0632 29.1171C36.0632 29.1171 33.9858 34.1545 31.0632 34.2318L30.9858 33.3091C27.6412 35.225 23.8537 36.2329 19.9992 36.2329C16.1447 36.2329 12.3572 35.225 9.01251 33.3091L8.93518 34.2318C6.00184 34.1545 3.93518 29.1171 3.93518 29.1171L3.05251 30.4238C1.93784 27.8851 3.35384 21.7331 3.35384 21.7331C3.35384 21.7331 3.43651 21.4238 2.08984 21.7331C2.72742 18.4853 3.97916 15.389 5.77784 12.6105C4.53251 9.82114 3.73251 4.61047 4.39918 3.93847C5.00718 3.3278 10.8765 4.4718 13.1778 5.41847C15.0898 4.3518 16.8178 3.76514 18.7778 3.76514C19.0098 3.76514 19.7938 4.71714 20.0125 4.71714C20.2312 4.71714 21.0152 3.76514 21.2472 3.76514C23.1938 3.76514 24.9218 4.35714 26.8472 5.41847C29.1512 4.46647 35.0125 3.3278 35.6232 3.93847C36.3005 4.61314 35.4952 9.82114 34.2472 12.6105C36.0375 15.3907 37.281 18.4869 37.9112 21.7331C36.5645 21.4238 36.6472 21.7331 36.6472 21.7331Z" fill="#EDB340" stroke="black" stroke-width="1.06667" stroke-miterlimit="40"/>
<path d="M36.9896 21.0667C37.0616 21.0667 37.1443 21.0667 37.2296 21.0667C37.1736 20.816 37.1123 20.568 37.0456 20.32C37.019 20.2107 36.9896 20.104 36.9603 19.9947C36.9123 19.816 36.8616 19.64 36.8083 19.4614C36.755 19.2827 36.699 19.1067 36.643 18.928C36.6003 18.7947 36.555 18.6614 36.5096 18.528C36.4643 18.3947 36.403 18.2187 36.347 18.064L36.3283 18.0134C36.2803 17.8774 36.227 17.7467 36.1763 17.608C36.1603 17.568 36.147 17.5307 36.131 17.4934C36.075 17.3467 36.0163 17.2027 35.9576 17.0587V17.04C35.763 17.128 35.5123 17.2294 35.187 17.3467C34.0963 17.7414 35.4696 20.4587 34.2616 24.3947L34.1816 24.6454C34.0809 24.9571 33.9477 25.2574 33.7843 25.5414C33.4113 26.1965 32.8553 26.7284 32.1843 27.072C32.002 27.1673 31.8131 27.2493 31.619 27.3174C30.459 27.736 29.1256 27.7254 27.9763 27.6027C26.7736 24.4507 23.659 20.584 20.003 20.584C16.3443 20.584 13.2296 24.4507 12.0376 27.6134C10.8883 27.736 9.55762 27.7467 8.39496 27.328C8.20085 27.26 8.01191 27.178 7.82963 27.0827C7.15983 26.7375 6.60418 26.2059 6.22962 25.552C6.06732 25.2675 5.9342 24.9673 5.83229 24.656L5.75229 24.408C4.54429 20.472 5.91762 17.7414 4.82696 17.36C4.50163 17.2427 4.25096 17.1414 4.05629 17.0534C3.93896 17.3414 3.82429 17.6294 3.71763 17.92C3.66963 18.048 3.62429 18.1867 3.57896 18.3067C3.53363 18.4267 3.49896 18.536 3.46163 18.6507C3.42429 18.7654 3.37096 18.9174 3.33096 19.0454C3.29096 19.1734 3.22429 19.3814 3.17629 19.5494C3.12829 19.7174 3.07762 19.888 3.03229 20.056C2.93896 20.3947 2.85362 20.736 2.76562 21.0774C2.85362 21.0774 2.93363 21.0774 3.00829 21.0774C3.14661 21.0664 3.28563 21.0868 3.41493 21.1372C3.54423 21.1875 3.66048 21.2664 3.75496 21.368C3.81154 21.4366 3.85194 21.5171 3.87318 21.6034C3.89441 21.6897 3.89593 21.7797 3.87762 21.8667C3.87762 21.8667 3.86163 21.9307 3.84029 22.0347C3.84029 22.088 3.81629 22.152 3.80029 22.224L3.78429 22.3014C3.78554 22.3182 3.78554 22.3352 3.78429 22.352C3.74696 22.536 3.70429 22.7654 3.65362 23.0294C3.60296 23.2934 3.53629 23.6347 3.46963 24C3.45007 24.1245 3.4314 24.2525 3.41363 24.384C3.41234 24.4071 3.41234 24.4303 3.41363 24.4534C3.39496 24.5814 3.37896 24.72 3.36296 24.8427C3.34696 24.9654 3.33362 25.072 3.32029 25.1894C3.30696 25.3067 3.29629 25.392 3.28563 25.496C3.12655 26.7179 3.1176 27.9547 3.25896 29.1787L3.49096 28.8374L4.05362 28L4.43229 28.9174L4.48296 29.0374C4.51762 29.12 4.55762 29.208 4.60029 29.304L4.67763 29.464C4.77096 29.6587 4.88029 29.8694 5.00296 30.0934C5.00201 30.1022 5.00201 30.1112 5.00296 30.12L5.08562 30.2614C5.14962 30.3787 5.22163 30.4987 5.29629 30.6187C5.40296 30.8 5.52029 30.9814 5.64562 31.1654C5.68562 31.2267 5.72562 31.288 5.77096 31.3467L6.00296 31.6667C6.29628 32.0609 6.62571 32.427 6.98696 32.76L7.09896 32.8587C7.14696 32.8987 7.19229 32.9387 7.24296 32.976C7.29362 33.0134 7.30963 33.032 7.34429 33.056C7.38607 33.0904 7.42969 33.1224 7.47496 33.152C7.57665 33.225 7.68261 33.2918 7.79229 33.352L7.91496 33.4187L8.08562 33.5014C8.13962 33.5255 8.19481 33.5468 8.25096 33.5654C8.30962 33.5867 8.36829 33.6054 8.42696 33.6214L8.45629 33.2614L8.52829 32.3734L9.27762 32.8587C9.27762 32.8587 9.60296 33.0667 10.1363 33.3334L10.2643 33.4L10.4243 33.48C10.4643 33.496 10.5043 33.5174 10.5443 33.536C10.7896 33.6534 11.0776 33.7814 11.3763 33.9147L11.443 33.944L11.7096 34.048L12.0483 34.184L12.363 34.304C12.6296 34.4 12.8963 34.496 13.1843 34.592L13.7416 34.768L14.0323 34.8534C14.2296 34.9094 14.4296 34.9627 14.6376 35.016L14.9496 35.0934C15.1603 35.144 15.3763 35.192 15.5976 35.24L15.931 35.3067C16.043 35.3307 16.155 35.352 16.2696 35.3707L16.6163 35.4294L16.851 35.4667L17.139 35.5067C17.323 35.5334 17.507 35.5547 17.6963 35.576L17.9976 35.6054L18.1283 35.6187L18.395 35.64C18.7505 35.6685 19.1061 35.6872 19.4616 35.696C19.6403 35.696 19.8216 35.696 19.995 35.696C20.1683 35.696 20.3576 35.696 20.5283 35.696C21.2758 35.6772 22.0217 35.6184 22.763 35.52L23.2083 35.456C23.5763 35.4 23.9336 35.336 24.275 35.264L24.723 35.168L25.2136 35.0507C25.5176 34.976 25.811 34.896 26.0936 34.8134C26.627 34.656 27.1283 34.488 27.5816 34.32L27.995 34.1627L28.0563 34.1387L28.2803 34.048C28.499 33.9574 28.7043 33.8685 28.8963 33.7814H28.9176L29.4296 33.5414C29.857 33.3402 30.2736 33.1167 30.6776 32.872L31.4216 32.3894L31.4963 33.2747L31.5256 33.6347C31.5843 33.6187 31.643 33.6 31.7016 33.5787C31.7578 33.5602 31.813 33.5388 31.867 33.5147L32.0216 33.44L32.1283 33.384L32.243 33.3174L32.387 33.2267L32.491 33.1547L32.6163 33.0614C32.683 33.0134 32.747 32.96 32.811 32.9067L32.955 32.7814L33.1043 32.64C33.203 32.544 33.3016 32.4454 33.395 32.3414C33.6597 32.0652 33.9072 31.7731 34.1363 31.4667C34.195 31.3867 34.251 31.304 34.307 31.2214C34.5736 30.8454 34.795 30.4667 34.9896 30.112C35.155 29.8107 35.2963 29.5307 35.411 29.288L35.523 29.0347L35.5736 28.9147L35.9523 27.9974L36.5096 28.8187L36.7496 29.1707C37.179 26.4587 36.1443 21.9067 36.1363 21.8694C36.1132 21.7807 36.1108 21.688 36.1293 21.5983C36.1478 21.5086 36.1867 21.4243 36.243 21.352C36.3379 21.2514 36.4544 21.1734 36.5837 21.124C36.713 21.0746 36.8517 21.055 36.9896 21.0667Z" fill="#D3D3D3"/>
<path d="M7.00045 32.7629C6.20644 31.9909 5.53713 31.1003 5.01645 30.1229C4.84647 28.189 5.09756 26.2412 5.75245 24.4136C6.26445 23.0296 6.98178 21.9122 7.78978 21.3096C6.94314 22.5843 6.4087 24.0405 6.22978 25.5602C5.92434 27.9884 6.18819 30.4543 7.00045 32.7629Z" fill="black"/>
<path d="M8.39353 27.3281C8.62261 29.5356 9.36112 31.6599 10.5509 33.5334C10.1245 33.3319 9.70884 33.1085 9.30553 32.8641L8.8602 33.0828C8.04857 31.1919 7.69498 29.1361 7.8282 27.0828C7.87001 26.1363 8.13793 25.2137 8.60953 24.3921C8.37348 25.3517 8.30046 26.3442 8.39353 27.3281Z" fill="black"/>
<path d="M34.9882 30.1147C34.4692 31.0962 33.7987 31.9899 33.0015 32.7627C33.8143 30.4551 34.079 27.9902 33.7748 25.5627C33.5959 24.0429 33.0615 22.5867 32.2148 21.312C33.0148 21.9147 33.7402 23.032 34.2522 24.416C34.9055 26.2403 35.1566 28.1843 34.9882 30.1147Z" fill="black"/>
<path d="M31.1426 33.0825L30.6972 32.8639C30.2932 33.1086 29.8766 33.332 29.4492 33.5332C30.639 31.6596 31.3775 29.5354 31.6066 27.3279C31.6993 26.3449 31.6263 25.3533 31.3906 24.3945C31.8622 25.2161 32.1301 26.1388 32.1719 27.0852C32.3044 29.1374 31.9518 31.192 31.1426 33.0825Z" fill="black"/>
<path d="M26.2978 16.8479C28.2285 15.6186 30.2978 15.0879 30.4525 15.6079C30.6072 16.1279 29.7032 19.6319 28.1725 19.9999C26.6418 20.3679 22.4018 19.3306 26.2978 16.8479Z" fill="#FFE7BD" stroke="black" stroke-width="0.533333" stroke-miterlimit="10"/>
<path d="M27.0398 18.6055C27.6098 18.6055 28.0718 18.1435 28.0718 17.5735C28.0718 17.0035 27.6098 16.5415 27.0398 16.5415C26.4699 16.5415 26.0078 17.0035 26.0078 17.5735C26.0078 18.1435 26.4699 18.6055 27.0398 18.6055Z" fill="black"/>
<path d="M13.703 16.8479C11.7724 15.6186 9.70304 15.0879 9.54837 15.6079C9.3937 16.1279 10.2977 19.6319 11.8284 19.9999C13.359 20.3679 17.599 19.3306 13.703 16.8479Z" fill="#FFE7BD" stroke="black" stroke-width="0.533333" stroke-miterlimit="10"/>
<path d="M12.9578 18.6055C13.5277 18.6055 13.9898 18.1435 13.9898 17.5735C13.9898 17.0035 13.5277 16.5415 12.9578 16.5415C12.3878 16.5415 11.9258 17.0035 11.9258 17.5735C11.9258 18.1435 12.3878 18.6055 12.9578 18.6055Z" fill="black"/>
<path d="M20 31.1198V28.9385" stroke="black" stroke-width="0.533333" stroke-linecap="round" stroke-linejoin="round"/>
<path d="M24.9673 33.2106C23.1486 35.8932 19.9993 33.5439 19.9993 33.5439C19.9993 33.5439 16.8473 35.8932 15.0312 33.2106C16.4206 33.4452 19.9993 32.6212 19.9993 30.2266C19.9993 32.6212 23.5779 33.4452 24.9673 33.2106Z" fill="#020100" stroke="black" stroke-width="0.533333" stroke-linecap="round" stroke-linejoin="round"/>
<path d="M27.5806 10.5949C25.714 9.3629 23.0126 8.58423 19.9993 8.58423C16.986 8.58423 14.2766 9.36023 12.418 10.5949C13.7673 8.5709 16.6526 7.1709 19.9993 7.1709C23.346 7.1709 26.2313 8.5709 27.5806 10.5949Z" fill="#020100"/>
<path d="M25.1381 13.1654C23.8795 12.3281 22.0395 11.8001 19.9968 11.8001C17.9541 11.8001 16.1168 12.3334 14.8555 13.1628C15.7701 11.7894 17.7275 10.8428 19.9968 10.8428C22.2661 10.8428 24.2235 11.7921 25.1381 13.1654Z" fill="#020100"/>
<path d="M28.332 6.50405C30.6547 5.63738 33.932 5.19472 34.3294 5.22672C34.364 5.69338 33.8307 9.47205 33.14 11.0587C31.5854 9.02138 28.332 6.50405 28.332 6.50405Z" fill="#C45E35"/>
<path d="M11.6667 6.50405C9.34401 5.63738 6.06668 5.19472 5.66934 5.22672C5.63734 5.69338 6.16801 9.47205 6.85868 11.0587C8.41334 9.02138 11.6667 6.50405 11.6667 6.50405Z" fill="#C45E35"/>
<path d="M24.4454 23.7601C24.4454 27.9387 20 28.3387 20 29.0054C20 28.3387 15.5547 27.9387 15.5547 23.7601C15.5547 21.2321 16.792 18.1601 18.0027 16.1147C18.8027 14.7814 18.9467 14.6641 20 14.6641C21.0534 14.6641 21.208 14.7867 22.0027 16.1254C23.2134 18.1654 24.4454 21.2374 24.4454 23.7601Z" fill="#DD8E2F" stroke="black" stroke-width="0.533333" stroke-miterlimit="10"/>
<path d="M23.2923 26.4239C22.5563 27.3305 21.5163 27.8159 20.7696 28.1625C20.5026 28.2756 20.2457 28.4112 20.0016 28.5679C19.7576 28.4112 19.5006 28.2756 19.2336 28.1625C18.4869 27.8159 17.4469 27.3305 16.7109 26.4239C17.7373 25.9289 18.8621 25.6719 20.0016 25.6719C21.1411 25.6719 22.2659 25.9289 23.2923 26.4239Z" fill="#D6512D"/>
</svg>
