<svg width="40" height="40" viewBox="0 0 40 40" fill="none" xmlns="http://www.w3.org/2000/svg">
<path d="M11.9029 29.8187C13.4843 29.2214 14.8843 32.2534 15.0549 34.352C15.2256 36.4507 7.20959 35.8854 5.43359 34.3307C9.33493 34.504 9.13759 30.8614 11.9029 29.8187Z" fill="#A7B6C4" stroke="black" stroke-width="0.533333" stroke-linecap="round" stroke-linejoin="round"/>
<path d="M30.4516 29.8187C28.8702 29.2214 27.4702 32.2534 27.2996 34.352C27.1289 36.4507 35.1449 35.8854 36.9209 34.3307C33.0116 34.504 33.2169 30.8614 30.4516 29.8187Z" fill="#A7B6C4" stroke="black" stroke-width="0.533333" stroke-linecap="round" stroke-linejoin="round"/>
<path d="M19.9219 11.0642C20.2205 7.77358 21.2819 1.41357 25.0685 1.41357C22.0525 2.59224 22.0125 10.0322 23.3565 11.0642C24.7005 12.0962 19.9219 11.0642 19.9219 11.0642Z" fill="#A7B6C4" stroke="black" stroke-width="0.533333" stroke-miterlimit="10"/>
<path d="M14.3582 20.0773L14.7902 25.1439C10.6355 26.4773 4.77954 29.3626 3.32354 32.8186C2.60621 28.3306 5.27821 22.2239 9.21954 19.2186C6.44621 15.1386 5.86754 8.49594 8.00087 4.47461C8.26754 8.20794 12.8915 12.8293 16.4035 15.4079L14.3582 20.0773Z" fill="#A7B6C4" stroke="black" stroke-width="0.8" stroke-miterlimit="10"/>
<path d="M30.3362 26.7174C30.3362 34.6188 26.2668 38.3201 21.2482 38.3201C16.2295 38.3201 12.1602 34.6188 12.1602 26.7174C12.1602 18.8161 16.2295 9.7041 21.2482 9.7041C26.2668 9.7041 30.3362 18.8134 30.3362 26.7174Z" fill="#6D839B" stroke="black" stroke-width="1.06667" stroke-miterlimit="10"/>
<path d="M23.8881 25.3518C23.1229 24.7881 22.1973 24.484 21.2468 24.484C20.2963 24.484 19.3707 24.7881 18.6055 25.3518C19.0721 23.7518 20.0801 22.6665 21.2481 22.6665C22.4161 22.6665 23.4215 23.7652 23.8881 25.3518Z" fill="#44372E" stroke="black" stroke-width="0.533333" stroke-miterlimit="10"/>
<path d="M29.8667 20.3814C30.4293 21.7467 30.4533 23.2667 29.6 23.6054C28.7467 23.944 27.8107 23.9227 27.248 22.5574C26.6853 21.192 26.872 19.624 27.5813 19.0907C28.2907 18.5574 29.2933 19.0134 29.8667 20.3814Z" fill="white" stroke="black" stroke-width="0.533333" stroke-miterlimit="10"/>
<path d="M29.0653 23.1998C28.82 23.2958 27.9773 23.5198 27.4653 22.2985C27.0626 21.3252 27.3933 20.5225 27.884 20.1305C28.3746 19.7385 29.076 20.2932 29.3986 21.0745C29.8066 22.0185 29.652 22.9732 29.0653 23.1998Z" fill="black"/>
<path d="M12.6438 20.3814C12.0811 21.7467 12.0571 23.2667 12.9104 23.6054C13.7638 23.944 14.6998 23.9227 15.2624 22.5574C15.8251 21.192 15.6384 19.624 14.9291 19.0907C14.2198 18.5574 13.2064 19.0134 12.6438 20.3814Z" fill="white" stroke="black" stroke-width="0.533333" stroke-miterlimit="10"/>
<path d="M13.4262 23.1998C13.6715 23.2958 14.5142 23.5198 15.0262 22.2985C15.4288 21.3252 15.0982 20.5225 14.6075 20.1305C14.1168 19.7385 13.4155 20.2932 13.0928 21.0745C12.6955 22.0185 12.8475 22.9732 13.4262 23.1998Z" fill="black"/>
<path d="M28.6615 32.8479C27.2748 35.9865 24.6854 37.7839 21.2508 37.7839C17.9921 37.7839 15.4961 36.1679 14.0508 33.3225C15.8988 31.7225 18.6161 30.7065 21.6481 30.7065C24.3814 30.7065 26.8481 31.5225 28.6615 32.8479Z" fill="#384856"/>
</svg>
