<svg width="40" height="40" viewBox="0 0 40 40" fill="none" xmlns="http://www.w3.org/2000/svg">
<path d="M20.5322 14.1332C22.594 14.1332 24.2655 11.9842 24.2655 9.3332C24.2655 6.68224 22.594 4.5332 20.5322 4.5332C18.4703 4.5332 16.7988 6.68224 16.7988 9.3332C16.7988 11.9842 18.4703 14.1332 20.5322 14.1332Z" fill="#85D839" stroke="black" stroke-width="1.06667" stroke-miterlimit="10" stroke-linecap="round" stroke-linejoin="round"/>
<path fill-rule="evenodd" clip-rule="evenodd" d="M14.3112 28.0654C14.3112 28.0654 12.578 33.2682 14.5196 35.3218C16.4612 37.3754 17.8657 37.1297 17.8657 32.1414C17.8657 27.1532 14.3112 28.0654 14.3112 28.0654Z" fill="#85D839" stroke="black" stroke-width="1.06667" stroke-miterlimit="10" stroke-linecap="round" stroke-linejoin="round"/>
<path fill-rule="evenodd" clip-rule="evenodd" d="M26.7533 28.0654C26.7533 28.0654 28.4865 33.2682 26.5449 35.3218C24.6033 37.3754 23.1987 37.1297 23.1987 32.1414C23.1987 27.1532 26.7533 28.0654 26.7533 28.0654Z" fill="#85D839" stroke="black" stroke-width="1.06667" stroke-miterlimit="10" stroke-linecap="round" stroke-linejoin="round"/>
<path fill-rule="evenodd" clip-rule="evenodd" d="M14.6655 14.8477C14.6655 14.8477 11.0182 11.6643 8.90419 12.0291C6.79033 12.3941 6.66553 15.3879 6.66553 16.3622C6.66553 17.3366 7.64419 23.6241 8.73726 23.1773C9.83033 22.7306 10.9005 18.5217 10.9005 18.5217C10.9005 18.5217 11.9454 19.7593 13.5637 19.887" fill="#85D839"/>
<path d="M14.6655 14.8477C14.6655 14.8477 11.0182 11.6643 8.90419 12.0291C6.79033 12.3941 6.66553 15.3879 6.66553 16.3622C6.66553 17.3366 7.64419 23.6241 8.73726 23.1773C9.83033 22.7306 10.9005 18.5217 10.9005 18.5217C10.9005 18.5217 11.9454 19.7593 13.5637 19.887" stroke="black" stroke-width="1.06667" stroke-miterlimit="10" stroke-linecap="round" stroke-linejoin="round"/>
<path fill-rule="evenodd" clip-rule="evenodd" d="M26.3984 14.8477C26.3984 14.8477 30.0458 11.6643 32.1598 12.0291C34.2736 12.3939 34.3984 15.3878 34.3984 16.3622C34.3984 17.3366 33.4196 23.6241 32.3267 23.1773C31.2331 22.7306 30.1635 18.5217 30.1635 18.5217C30.1635 18.5217 29.1186 19.7593 27.5003 19.887" fill="#85D839"/>
<path d="M26.3984 14.8477C26.3984 14.8477 30.0458 11.6643 32.1598 12.0291C34.2736 12.3939 34.3984 15.3878 34.3984 16.3622C34.3984 17.3366 33.4196 23.6241 32.3267 23.1773C31.2331 22.7306 30.1635 18.5217 30.1635 18.5217C30.1635 18.5217 29.1186 19.7593 27.5003 19.887" stroke="black" stroke-width="1.06667" stroke-miterlimit="10" stroke-linecap="round" stroke-linejoin="round"/>
<path fill-rule="evenodd" clip-rule="evenodd" d="M20.5343 31.7332C25.2474 31.7332 29.0676 27.1964 29.0676 21.5999C29.0676 16.0033 28.3642 12.5332 20.5343 12.5332C12.7044 12.5332 12.001 16.0033 12.001 21.5999C12.001 27.1964 15.8212 31.7332 20.5343 31.7332Z" fill="#8C6B3B" stroke="black" stroke-width="1.06667" stroke-miterlimit="10" stroke-linecap="round" stroke-linejoin="round"/>
<path fill-rule="evenodd" clip-rule="evenodd" d="M20.5322 15.1997L24.2655 17.333V21.5997L20.5322 23.733L16.7988 21.5997V17.333L20.5322 15.1997Z" fill="#26BBEC" stroke="black" stroke-width="1.06667" stroke-miterlimit="10" stroke-linecap="round" stroke-linejoin="round"/>
<path d="M20.5322 15.1997L24.2655 17.333V21.5997L20.5322 23.733L16.7988 21.5997V17.333L20.5322 15.1997Z" fill="#997843" stroke="black" stroke-width="1.06667" stroke-miterlimit="10" stroke-linecap="round" stroke-linejoin="round"/>
<path d="M19.4641 7.7334C18.8751 7.7334 18.3975 8.211 18.3975 8.80007L19.4641 7.7334Z" fill="#26BBEC"/>
<path d="M19.4641 7.7334C18.8751 7.7334 18.3975 8.211 18.3975 8.80007" stroke="black" stroke-width="1.06667" stroke-miterlimit="10" stroke-linecap="round" stroke-linejoin="round"/>
<path d="M21.6006 7.7334C22.1897 7.7334 22.6673 8.211 22.6673 8.80007L21.6006 7.7334Z" fill="#26BBEC"/>
<path d="M21.6006 7.7334C22.1897 7.7334 22.6673 8.211 22.6673 8.80007" stroke="black" stroke-width="1.06667" stroke-miterlimit="10" stroke-linecap="round" stroke-linejoin="round"/>
<path d="M20.5327 23.7334V31.2001" stroke="black" stroke-width="1.06667" stroke-miterlimit="10" stroke-linecap="round" stroke-linejoin="round"/>
<path d="M20.5327 15.1999V12.5332" stroke="black" stroke-width="1.06667" stroke-miterlimit="10" stroke-linecap="round" stroke-linejoin="round"/>
<path d="M16.7988 17.3334L13.0654 15.7334" stroke="black" stroke-width="1.06667" stroke-miterlimit="10" stroke-linecap="round" stroke-linejoin="round"/>
<path d="M16.7979 21.5996L12.5312 24.2663" stroke="black" stroke-width="1.06667" stroke-miterlimit="10" stroke-linecap="round" stroke-linejoin="round"/>
<path d="M24.2666 17.3334L27.9999 15.7334" stroke="black" stroke-width="1.06667" stroke-miterlimit="10" stroke-linecap="round" stroke-linejoin="round"/>
<path d="M24.2666 21.5996L28.5333 24.2663" stroke="black" stroke-width="1.06667" stroke-miterlimit="10" stroke-linecap="round" stroke-linejoin="round"/>
</svg>
