<svg width="40" height="40" viewBox="0 0 40 40" fill="none" xmlns="http://www.w3.org/2000/svg">
<path d="M20.1145 36.875C18.4204 36.8747 16.7445 36.5261 15.1908 35.8508C13.6372 35.1754 12.239 34.1879 11.0831 32.9493C9.92725 31.7108 9.03841 30.2479 8.47182 28.6513C7.90523 27.0548 7.67299 25.3588 7.78953 23.6687L8.63328 13.9437C8.83443 11.0078 10.1427 8.25779 12.2937 6.24949C14.4447 4.2412 17.278 3.12445 20.2208 3.125C23.1978 3.12583 26.061 4.26939 28.2195 6.31971C30.3779 8.37003 31.667 11.1707 31.8208 14.1437L32.4458 23.8812C32.5322 25.5546 32.2774 27.2281 31.6969 28.7999C31.1163 30.3717 30.2221 31.8091 29.0687 33.0245C27.9152 34.2399 26.5266 35.208 24.9873 35.8699C23.448 36.5319 21.7901 36.8738 20.1145 36.875Z" fill="#703F00"/>
<path d="M17.3255 23.6313L16.3442 33.4625C16.3189 33.7167 16.1984 33.9519 16.0069 34.121C15.8154 34.2901 15.5671 34.3806 15.3117 34.3743C15.0563 34.3679 14.8127 34.2653 14.6298 34.0869C14.4469 33.9086 14.3382 33.6677 14.3255 33.4125L13.813 23.125" fill="#EAEAEA"/>
<path d="M22.6782 23.6313L23.6595 33.4625C23.6848 33.7167 23.8053 33.9519 23.9968 34.121C24.1883 34.2901 24.4367 34.3806 24.692 34.3743C24.9474 34.3679 25.191 34.2653 25.3739 34.0869C25.5568 33.9086 25.6655 33.6677 25.6782 33.4125L26.1907 23.125" fill="#EAEAEA"/>
<path d="M21.876 14.3749C21.8749 14.5358 21.8293 14.6934 21.7444 14.8301C21.6595 14.9668 21.5385 15.0775 21.3948 15.1499L20.001 15.8624L18.6073 15.1624C18.4617 15.089 18.3394 14.9764 18.2544 14.8373C18.1694 14.6981 18.1249 14.538 18.126 14.3749C18.1248 14.2875 18.1396 14.2007 18.1698 14.1187C18.2203 13.9387 18.3282 13.7802 18.4772 13.6674C18.6261 13.5545 18.8079 13.4935 18.9948 13.4937H21.0073C21.1942 13.4935 21.376 13.5545 21.5249 13.6674C21.6739 13.7802 21.7818 13.9387 21.8323 14.1187C21.8625 14.2007 21.8773 14.2875 21.876 14.3749Z" fill="#3E2C27"/>
<path d="M28.751 18.7499C28.751 20.076 28.2242 21.3478 27.2865 22.2854C26.3488 23.2231 25.0771 23.7499 23.751 23.7499C23.3893 23.7519 23.0285 23.7121 22.676 23.6312C21.6398 23.4033 20.703 22.8517 20.001 22.0562C19.299 22.8517 18.3622 23.4033 17.326 23.6312C16.9734 23.7121 16.6127 23.7519 16.251 23.7499C14.9249 23.7499 13.6531 23.2231 12.7154 22.2854C11.7778 21.3478 11.251 20.076 11.251 18.7499C11.2507 17.927 11.4536 17.1168 11.8415 16.3911C12.2294 15.6654 12.7905 15.0467 13.4749 14.5898C14.1593 14.133 14.9458 13.8521 15.7648 13.772C16.5838 13.692 17.4099 13.8154 18.1697 14.1312C18.141 14.2092 18.1262 14.2917 18.126 14.3749C18.1272 14.5359 18.1727 14.6934 18.2576 14.8301C18.3425 14.9668 18.4635 15.0775 18.6072 15.1499L20.001 15.8624L21.3947 15.1624C21.5404 15.089 21.6626 14.9764 21.7476 14.8373C21.8327 14.6981 21.8771 14.538 21.876 14.3749C21.8772 14.2875 21.8624 14.2007 21.8322 14.1187C22.5931 13.8025 23.4203 13.6792 24.2403 13.7598C25.0602 13.8405 25.8476 14.1225 26.5323 14.5808C27.217 15.0391 27.7778 15.6595 28.1649 16.3869C28.552 17.1142 28.7533 17.926 28.751 18.7499Z" fill="#965500"/>
<path d="M15.9385 11.875C16.4562 11.875 16.876 11.4553 16.876 10.9375C16.876 10.4197 16.4562 10 15.9385 10C15.4207 10 15.001 10.4197 15.001 10.9375C15.001 11.4553 15.4207 11.875 15.9385 11.875Z" fill="#2D2D2D"/>
<path d="M24.0635 11.875C24.5812 11.875 25.001 11.4553 25.001 10.9375C25.001 10.4197 24.5812 10 24.0635 10C23.5457 10 23.126 10.4197 23.126 10.9375C23.126 11.4553 23.5457 11.875 24.0635 11.875Z" fill="#2D2D2D"/>
</svg>
