<svg width="40" height="40" viewBox="0 0 40 40" fill="none" xmlns="http://www.w3.org/2000/svg">
<path d="M35.625 21.8751L28.6125 17.9313C27.9244 17.5435 27.1467 17.3428 26.3569 17.3492C25.567 17.3557 24.7927 17.569 24.111 17.9681C23.4294 18.3671 22.8642 18.9378 22.4719 19.6233C22.0795 20.3088 21.8737 21.0852 21.875 21.8751V32.8001C21.8792 32.6822 21.86 32.5646 21.8185 32.4542C21.777 32.3437 21.714 32.2426 21.6333 32.1566C21.5525 32.0706 21.4555 32.0015 21.3479 31.9532C21.2403 31.9048 21.1242 31.8783 21.0063 31.8751H18.9937C18.8758 31.8783 18.7597 31.9048 18.6521 31.9532C18.5445 32.0015 18.4475 32.0706 18.3667 32.1566C18.286 32.2426 18.223 32.3437 18.1815 32.4542C18.14 32.5646 18.1208 32.6822 18.125 32.8001V21.8751C18.1263 21.0852 17.9205 20.3088 17.5281 19.6233C17.1358 18.9378 16.5706 18.3671 15.889 17.9681C15.2073 17.569 14.433 17.3557 13.6431 17.3492C12.8533 17.3428 12.0756 17.5435 11.3875 17.9313L4.375 21.8751L9.375 14.3751C10.5388 12.6281 12.1198 11.1988 13.975 10.2167C15.8302 9.23453 17.901 8.73045 20 8.75006C22.099 8.73045 24.1698 9.23453 26.025 10.2167C27.8802 11.1988 29.4612 12.6281 30.625 14.3751L35.625 21.8751Z" fill="#FFAB00"/>
<path d="M35.625 21.8751L33.125 23.1751C31.0009 24.18 29.0496 25.5154 27.3438 27.1313C25.7264 28.767 24.6377 30.8508 24.2188 33.1126C24.0747 33.8184 23.6911 34.4528 23.1331 34.9084C22.575 35.364 21.8767 35.6127 21.1562 35.6126H18.8125C18.0921 35.6127 17.3938 35.364 16.8357 34.9084C16.2776 34.4528 15.8941 33.8184 15.75 33.1126C14.7313 28.0313 11.4688 25.5626 6.875 23.1751L4.375 21.8751L11.3875 17.9313C12.0756 17.5435 12.8533 17.3428 13.6431 17.3493C14.433 17.3557 15.2073 17.5691 15.889 17.9681C16.5706 18.3671 17.1358 18.9378 17.5281 19.6233C17.9205 20.3089 18.1263 21.0852 18.125 21.8751V32.8001C18.1208 32.6822 18.14 32.5646 18.1815 32.4542C18.223 32.3438 18.286 32.2426 18.3667 32.1567C18.4475 32.0707 18.5445 32.0015 18.6521 31.9532C18.7597 31.9049 18.8758 31.8783 18.9937 31.8751H21.0063C21.1242 31.8783 21.2403 31.9049 21.3479 31.9532C21.4555 32.0015 21.5525 32.0707 21.6333 32.1567C21.714 32.2426 21.777 32.3438 21.8185 32.4542C21.86 32.5646 21.8792 32.6822 21.875 32.8001V21.8751C21.8737 21.0852 22.0795 20.3089 22.4719 19.6233C22.8642 18.9378 23.4294 18.3671 24.111 17.9681C24.7927 17.5691 25.567 17.3557 26.3569 17.3493C27.1467 17.3428 27.9244 17.5435 28.6125 17.9313L35.625 21.8751Z" fill="#EFC589"/>
<path d="M21.8756 32.8C21.8784 32.9692 21.8352 33.136 21.7504 33.2825C21.6656 33.4289 21.5425 33.5495 21.3943 33.6313L20.0006 34.375L18.6068 33.6313C18.4586 33.5495 18.3355 33.4289 18.2507 33.2825C18.166 33.136 18.1227 32.9692 18.1256 32.8C18.1214 32.6821 18.1406 32.5645 18.1821 32.4541C18.2236 32.3437 18.2865 32.2425 18.3673 32.1566C18.448 32.0706 18.545 32.0014 18.6526 31.9531C18.7603 31.9048 18.8764 31.8782 18.9943 31.875H21.0068C21.1247 31.8782 21.2409 31.9048 21.3485 31.9531C21.4561 32.0014 21.5531 32.0706 21.6338 32.1566C21.7146 32.2425 21.7775 32.3437 21.819 32.4541C21.8605 32.5645 21.8797 32.6821 21.8756 32.8Z" fill="#3E2C27"/>
<path d="M13.1814 10.6813C11.6644 11.6279 10.3668 12.8871 9.37512 14.375L9.05012 14.8625C8.37721 14.4223 7.8255 13.8203 7.44551 13.1117C7.06552 12.403 6.86941 11.6103 6.87512 10.8063V4.375L13.1814 10.6813Z" fill="#BD7F00"/>
<path d="M33.1253 4.375V10.8063C33.1265 11.6083 32.927 12.3979 32.5449 13.1031C32.1628 13.8084 31.6103 14.4067 30.9378 14.8438L30.6253 14.375C29.6351 12.8952 28.342 11.6426 26.8315 10.7L33.1253 4.375Z" fill="#BD7F00"/>
<path d="M14.6875 23.125C15.2053 23.125 15.625 22.7053 15.625 22.1875C15.625 21.6697 15.2053 21.25 14.6875 21.25C14.1697 21.25 13.75 21.6697 13.75 22.1875C13.75 22.7053 14.1697 23.125 14.6875 23.125Z" fill="#2D2D2D"/>
<path d="M25.3125 23.125C25.8303 23.125 26.25 22.7053 26.25 22.1875C26.25 21.6697 25.8303 21.25 25.3125 21.25C24.7947 21.25 24.375 21.6697 24.375 22.1875C24.375 22.7053 24.7947 23.125 25.3125 23.125Z" fill="#2D2D2D"/>
</svg>
