<svg width="40" height="40" viewBox="0 0 40 40" fill="none" xmlns="http://www.w3.org/2000/svg">
<path d="M38.6693 23.3815C38.6693 31.6242 26.0346 38.3148 20.0026 38.3148C13.9706 38.3148 1.33594 31.6348 1.33594 23.3815C1.33597 22.5755 1.41637 21.7715 1.57594 20.9815C1.51194 13.1335 6.66927 3.46682 8.55994 1.81349C9.62661 0.872154 14.6933 5.92549 15.7279 8.85349L16.1573 8.77615C16.1573 8.77615 18.6853 7.64815 20.0026 7.64815C21.3199 7.64815 23.8319 8.77349 23.8319 8.77349C23.9813 8.79749 24.1333 8.82415 24.2799 8.85349C25.3253 5.92015 30.3706 0.872154 31.4479 1.81349C33.3279 3.45615 38.5013 13.1495 38.4319 21.0135C38.59 21.7929 38.6695 22.5862 38.6693 23.3815Z" fill="#444444" stroke="black" stroke-width="1.06667" stroke-miterlimit="10"/>
<path d="M35.765 29.3841C31.9277 34.2615 24.333 37.7708 19.9997 37.7708C15.6664 37.7708 8.07171 34.2615 4.23438 29.3841C5.99971 24.7761 12.389 21.3628 19.9997 21.3628C27.6104 21.3628 33.9997 24.7761 35.765 29.3841Z" fill="#444444"/>
<path d="M35.765 29.3841C31.9277 34.2615 24.333 37.7708 19.9997 37.7708C15.6664 37.7708 8.07171 34.2615 4.23438 29.3841C5.99971 24.7761 12.389 21.3628 19.9997 21.3628C27.6104 21.3628 33.9997 24.7761 35.765 29.3841Z" fill="#BCBCBC"/>
<path d="M15.6764 19.4665C16.3347 19.4665 16.8684 18.9328 16.8684 18.2745C16.8684 17.6162 16.3347 17.0825 15.6764 17.0825C15.0181 17.0825 14.4844 17.6162 14.4844 18.2745C14.4844 18.9328 15.0181 19.4665 15.6764 19.4665Z" fill="black"/>
<path d="M19.9989 27.2934C19.3802 27.2934 16.9562 24.1228 17.1562 23.6294C17.3562 23.1361 18.1696 23.0508 19.9989 23.0508C21.8282 23.0508 22.6442 23.1334 22.8469 23.6294C23.0496 24.1254 20.6176 27.2934 19.9989 27.2934Z" fill="#333333" stroke="black" stroke-width="0.533333" stroke-miterlimit="10"/>
<path d="M23.6598 30.5521C23.4198 28.4135 19.9985 27.4668 19.9985 27.4668C19.9985 27.4668 16.5798 28.4081 16.3398 30.5468" stroke="black" stroke-width="0.533333" stroke-miterlimit="10"/>
<path d="M26.0312 25.1734L33.5219 22.9761" stroke="black" stroke-width="0.533333" stroke-miterlimit="10" stroke-linecap="round"/>
<path d="M26.5664 26.9441L33.5237 25.9414" stroke="black" stroke-width="0.533333" stroke-miterlimit="10" stroke-linecap="round"/>
<path d="M13.9672 25.1734L6.47656 22.9761" stroke="black" stroke-width="0.533333" stroke-miterlimit="10" stroke-linecap="round"/>
<path d="M13.4339 26.9441L6.47656 25.9414" stroke="black" stroke-width="0.533333" stroke-miterlimit="10" stroke-linecap="round"/>
<path d="M26.0312 28.7148L33.5219 29.1842" stroke="black" stroke-width="0.533333" stroke-miterlimit="10" stroke-linecap="round"/>
<path d="M13.9672 28.7148L6.47656 29.1842" stroke="black" stroke-width="0.533333" stroke-miterlimit="10" stroke-linecap="round"/>
<path d="M34.4213 11.0292C31.4239 9.74652 27.8613 9.27718 26.3359 9.12785C27.2959 7.15985 29.5173 4.71452 30.6026 3.97852C31.9973 5.75718 33.6346 8.98652 34.4213 11.0292Z" fill="#7F7F7F"/>
<path d="M5.57812 11.0292C6.37813 8.98652 8.01279 5.75718 9.40746 3.97852C10.4741 4.71452 12.7035 7.15985 13.6741 9.12785C12.1381 9.27718 8.57279 9.74652 5.57812 11.0292Z" fill="#7F7F7F"/>
<path d="M27.1525 18.2825C27.1525 19.5385 25.3899 20.5572 24.1339 20.5572C23.532 20.555 22.9554 20.3145 22.5306 19.8881C22.1057 19.4617 21.8672 18.8844 21.8672 18.2825C21.8672 17.0265 22.8859 16.3545 24.1419 16.3545C25.3979 16.3545 27.1525 17.0238 27.1525 18.2825Z" fill="#FFF797" stroke="black" stroke-width="0.533333" stroke-miterlimit="10"/>
<path d="M23.9071 19.432C24.5419 19.432 25.0565 18.9174 25.0565 18.2826C25.0565 17.6479 24.5419 17.1333 23.9071 17.1333C23.2724 17.1333 22.7578 17.6479 22.7578 18.2826C22.7578 18.9174 23.2724 19.432 23.9071 19.432Z" fill="black"/>
<path d="M12.8477 18.2825C12.8477 19.5385 14.6103 20.5572 15.8663 20.5572C16.4682 20.555 17.0447 20.3145 17.4696 19.8881C17.8944 19.4617 18.133 18.8844 18.133 18.2825C18.133 17.0265 17.1143 16.3545 15.8583 16.3545C14.6023 16.3545 12.8477 17.0238 12.8477 18.2825Z" fill="#FFF797" stroke="black" stroke-width="0.533333" stroke-miterlimit="10"/>
<path d="M16.0946 19.432C16.7294 19.432 17.244 18.9174 17.244 18.2826C17.244 17.6479 16.7294 17.1333 16.0946 17.1333C15.4599 17.1333 14.9453 17.6479 14.9453 18.2826C14.9453 18.9174 15.4599 19.432 16.0946 19.432Z" fill="black"/>
</svg>
