<svg width="40" height="40" viewBox="0 0 40 40" fill="none" xmlns="http://www.w3.org/2000/svg">
<path d="M33.125 35L20 38.125L6.875 35L8.29375 21.1938C8.55144 18.6599 9.62501 16.2783 11.3529 14.4073C13.0809 12.5362 15.3697 11.2769 17.875 10.8188C19.2799 10.5604 20.7201 10.5604 22.125 10.8188C24.6303 11.2769 26.9192 12.5362 28.6471 14.4073C30.375 16.2783 31.4486 18.6599 31.7062 21.1938L33.125 35Z" fill="#D8D9DD"/>
<path d="M15.3125 21.875C15.8303 21.875 16.25 21.4553 16.25 20.9375C16.25 20.4197 15.8303 20 15.3125 20C14.7947 20 14.375 20.4197 14.375 20.9375C14.375 21.4553 14.7947 21.875 15.3125 21.875Z" fill="#2D2D2D"/>
<path d="M24.6875 21.875C25.2053 21.875 25.625 21.4553 25.625 20.9375C25.625 20.4197 25.2053 20 24.6875 20C24.1697 20 23.75 20.4197 23.75 20.9375C23.75 21.4553 24.1697 21.875 24.6875 21.875Z" fill="#2D2D2D"/>
<path d="M17.875 10.8187C16.0612 11.1513 14.3508 11.9055 12.882 13.0204C11.4131 14.1354 10.2268 15.5799 9.41875 17.2375C9.3875 16.6125 9.375 15.9875 9.375 15.3125C9.375 7.89375 11.3313 1.875 13.75 1.875C15.6562 1.875 17.275 5.625 17.875 10.8187Z" fill="#AEADB3"/>
<path d="M30.624 15.3125C30.624 15.9375 30.624 16.6062 30.5803 17.2375C29.773 15.5793 28.587 14.1343 27.118 13.0192C25.649 11.9042 23.9382 11.1504 22.124 10.8187C22.724 5.625 24.374 1.875 26.249 1.875C28.6678 1.875 30.624 7.89375 30.624 15.3125Z" fill="#AEADB3"/>
<path d="M17.5 35C16.9974 34.9905 16.5052 34.855 16.0684 34.6061C15.6317 34.3571 15.2643 34.0026 15 33.575L13.2438 30.7688C13.0982 30.5362 12.8967 30.344 12.6575 30.2097C12.4183 30.0754 12.1493 30.0033 11.875 30C11.7092 30 11.5503 29.9342 11.4331 29.817C11.3158 29.6997 11.25 29.5408 11.25 29.375C11.25 29.2093 11.3158 29.0503 11.4331 28.9331C11.5503 28.8159 11.7092 28.75 11.875 28.75C12.3643 28.7484 12.8458 28.8722 13.2736 29.1096C13.7015 29.3471 14.0613 29.6902 14.3187 30.1063L16.075 32.9125C16.226 33.158 16.4348 33.3627 16.6832 33.5087C16.9317 33.6547 17.2121 33.7375 17.5 33.75C17.6658 33.75 17.8247 33.8159 17.9419 33.9331C18.0592 34.0503 18.125 34.2093 18.125 34.375C18.125 34.5408 18.0592 34.6997 17.9419 34.817C17.8247 34.9342 17.6658 35 17.5 35Z" fill="#AEADB3"/>
<path d="M20 35C19.8342 35 19.6753 34.9342 19.5581 34.8169C19.4408 34.6997 19.375 34.5408 19.375 34.375V31.875C19.375 31.7092 19.4408 31.5503 19.5581 31.4331C19.6753 31.3158 19.8342 31.25 20 31.25C20.1658 31.25 20.3247 31.3158 20.4419 31.4331C20.5592 31.5503 20.625 31.7092 20.625 31.875V34.375C20.625 34.5408 20.5592 34.6997 20.4419 34.8169C20.3247 34.9342 20.1658 35 20 35Z" fill="#AEADB3"/>
<path d="M22.5 35C22.3342 35 22.1753 34.9342 22.0581 34.8169C21.9408 34.6997 21.875 34.5408 21.875 34.375C21.875 34.2092 21.9408 34.0503 22.0581 33.9331C22.1753 33.8158 22.3342 33.75 22.5 33.75C22.7905 33.7412 23.0744 33.6608 23.3263 33.5157C23.5782 33.3707 23.7903 33.1656 23.9438 32.9187L25.7 30.1125C25.955 29.698 26.3116 29.3553 26.7359 29.1169C27.1602 28.8785 27.6383 28.7522 28.125 28.75C28.2908 28.75 28.4497 28.8158 28.5669 28.9331C28.6842 29.0503 28.75 29.2092 28.75 29.375C28.75 29.5408 28.6842 29.6997 28.5669 29.8169C28.4497 29.9342 28.2908 30 28.125 30C27.8486 30.0011 27.577 30.0722 27.3355 30.2067C27.094 30.3411 26.8904 30.5345 26.7438 30.7687L25 33.575C24.7357 34.0026 24.3683 34.3571 23.9316 34.6061C23.4948 34.855 23.0026 34.9904 22.5 35Z" fill="#AEADB3"/>
<path d="M17.5873 35.0001H17.4998C17.4177 34.9943 17.3376 34.9725 17.2639 34.9357C17.1903 34.899 17.1246 34.8482 17.0706 34.7861C17.0167 34.724 16.9755 34.6518 16.9494 34.5738C16.9233 34.4958 16.9128 34.4134 16.9185 34.3313C16.9243 34.2492 16.9461 34.1691 16.9828 34.0955C17.0196 34.0218 17.0704 33.9562 17.1325 33.9022C17.1946 33.8482 17.2667 33.807 17.3448 33.7809C17.4228 33.7548 17.5052 33.7443 17.5873 33.7501H17.7123C17.859 33.7754 17.9919 33.8522 18.087 33.9668C18.1821 34.0814 18.2332 34.2262 18.231 34.3751C18.2311 34.4587 18.2143 34.5416 18.1817 34.6187C18.1491 34.6957 18.1014 34.7655 18.0414 34.8238C17.9813 34.8821 17.9102 34.9277 17.8322 34.958C17.7542 34.9883 17.6709 35.0026 17.5873 35.0001Z" fill="#AEADB3"/>
<path d="M22.4986 34.9999H22.4111C22.2454 34.9999 22.0864 34.934 21.9692 34.8168C21.852 34.6996 21.7861 34.5406 21.7861 34.3749C21.7861 34.2091 21.852 34.0501 21.9692 33.9329C22.0864 33.8157 22.2454 33.7499 22.4111 33.7499C22.499 33.7317 22.5898 33.7341 22.6765 33.7568C22.7633 33.7796 22.8436 33.8221 22.9111 33.8811C22.9811 33.9424 23.0364 34.0186 23.0732 34.104C23.1099 34.1894 23.1272 34.2819 23.1236 34.3749C23.1236 34.5406 23.0578 34.6996 22.9406 34.8168C22.8234 34.934 22.6644 34.9999 22.4986 34.9999Z" fill="#AEADB3"/>
<path d="M22.5 35H17.5C17.3342 35 17.1753 34.9342 17.0581 34.8169C16.9408 34.6997 16.875 34.5408 16.875 34.375C16.875 34.2092 16.9408 34.0503 17.0581 33.9331C17.1753 33.8158 17.3342 33.75 17.5 33.75H22.5C22.6658 33.75 22.8247 33.8158 22.9419 33.9331C23.0592 34.0503 23.125 34.2092 23.125 34.375C23.125 34.5408 23.0592 34.6997 22.9419 34.8169C22.8247 34.9342 22.6658 35 22.5 35Z" fill="#AEADB3"/>
<path d="M22.5 30.2064C22.5 30.6064 22.1 30.9751 21.5937 31.2376C21.1011 31.498 20.5567 31.6453 20 31.6689C19.0812 31.6689 17.5 31.0126 17.5 30.2064C17.5015 30.0097 17.5465 29.8157 17.6319 29.6385C17.7172 29.4612 17.8408 29.3051 17.9938 29.1814C18.3189 28.8977 18.7373 28.7441 19.1688 28.7501H20.8313C21.2451 28.7243 21.6524 28.8628 21.9648 29.1354C22.2772 29.408 22.4695 29.7929 22.5 30.2064Z" fill="#3E2C27"/>
</svg>
