<svg width="40" height="40" viewBox="0 0 40 40" fill="none" xmlns="http://www.w3.org/2000/svg">
<path d="M33.125 27.0125C33.1235 28.3798 32.6462 29.704 31.7749 30.7578C30.9036 31.8115 29.6927 32.5292 28.35 32.7875L20 35.625L11.65 32.7875C10.3073 32.5292 9.09643 31.8115 8.22514 30.7578C7.35385 29.704 6.87649 28.3798 6.875 27.0125C6.87651 26.0968 7.09045 25.194 7.5 24.375L8.125 23.125C9.7704 19.8249 10.6263 16.1876 10.625 12.5C10.6259 12.2596 10.6426 12.0195 10.675 11.7813C10.8159 10.8125 11.238 9.90642 11.8891 9.17536C12.5401 8.44431 13.3915 7.92045 14.3375 7.66877C14.7572 7.55544 15.1902 7.49868 15.625 7.50002H24.375C24.8098 7.49868 25.2428 7.55544 25.6625 7.66877C26.6085 7.92045 27.4599 8.44431 28.1109 9.17536C28.762 9.90642 29.1841 10.8125 29.325 11.7813C29.3574 12.0195 29.3741 12.2596 29.375 12.5C29.3737 16.1876 30.2296 19.8249 31.875 23.125L32.5 24.375C32.9095 25.194 33.1235 26.0968 33.125 27.0125Z" fill="#87868A"/>
<path d="M19.9998 29.375C19.5389 29.3741 19.0838 29.2729 18.666 29.0784C18.2482 28.8839 17.8778 28.6007 17.5804 28.2487C17.2831 27.8966 17.0659 27.484 16.9441 27.0396C16.8222 26.5951 16.7986 26.1295 16.8748 25.675L19.2748 19.375C19.3003 19.2011 19.3876 19.0422 19.5208 18.9274C19.6539 18.8126 19.824 18.7496 19.9998 18.75C20.1756 18.7496 20.3456 18.8126 20.4787 18.9274C20.6119 19.0422 20.6992 19.2011 20.7248 19.375L23.1248 25.675C23.201 26.1295 23.1773 26.5951 23.0555 27.0396C22.9336 27.484 22.7164 27.8966 22.4191 28.2487C22.1217 28.6007 21.7513 28.8839 21.3335 29.0784C20.9157 29.2729 20.4606 29.3741 19.9998 29.375Z" fill="#EAEAEA"/>
<path d="M14.3375 7.66875C13.3915 7.92043 12.5401 8.44429 11.8891 9.17534C11.238 9.9064 10.8159 10.8125 10.675 11.7813C8.91634 11.4962 7.3166 10.5944 6.16224 9.23733C5.00788 7.88028 4.37432 6.15661 4.375 4.375H8.125C9.35085 4.3745 10.5581 4.67449 11.6412 5.2487C12.7242 5.82291 13.65 6.65384 14.3375 7.66875Z" fill="#646467"/>
<path d="M35.6251 4.375C35.6258 6.15661 34.9922 7.88028 33.8379 9.23733C32.6835 10.5944 31.0838 11.4962 29.3251 11.7813C29.1842 10.8125 28.7621 9.9064 28.111 9.17534C27.46 8.44429 26.6086 7.92043 25.6626 7.66875C26.3501 6.65384 27.2759 5.82291 28.3589 5.2487C29.442 4.67449 30.6493 4.3745 31.8751 4.375H35.6251Z" fill="#646467"/>
<path d="M17.5 32.5C17.3342 32.5 17.1753 32.4342 17.0581 32.3169C16.9408 32.1997 16.875 32.0408 16.875 31.875V31.25C16.875 31.0842 16.9408 30.9253 17.0581 30.8081C17.1753 30.6908 17.3342 30.625 17.5 30.625C17.6658 30.625 17.8247 30.6908 17.9419 30.8081C18.0592 30.9253 18.125 31.0842 18.125 31.25V31.875C18.125 32.0408 18.0592 32.1997 17.9419 32.3169C17.8247 32.4342 17.6658 32.5 17.5 32.5Z" fill="#646467"/>
<path d="M22.5 32.5C22.3342 32.5 22.1753 32.4342 22.0581 32.3169C21.9408 32.1997 21.875 32.0408 21.875 31.875V31.25C21.875 31.0842 21.9408 30.9253 22.0581 30.8081C22.1753 30.6908 22.3342 30.625 22.5 30.625C22.6658 30.625 22.8247 30.6908 22.9419 30.8081C23.0592 30.9253 23.125 31.0842 23.125 31.25V31.875C23.125 32.0408 23.0592 32.1997 22.9419 32.3169C22.8247 32.4342 22.6658 32.5 22.5 32.5Z" fill="#646467"/>
<path d="M25.3125 19.375C25.8303 19.375 26.25 18.9553 26.25 18.4375C26.25 17.9197 25.8303 17.5 25.3125 17.5C24.7947 17.5 24.375 17.9197 24.375 18.4375C24.375 18.9553 24.7947 19.375 25.3125 19.375Z" fill="#2D2D2D"/>
<path d="M14.6875 19.375C15.2053 19.375 15.625 18.9553 15.625 18.4375C15.625 17.9197 15.2053 17.5 14.6875 17.5C14.1697 17.5 13.75 17.9197 13.75 18.4375C13.75 18.9553 14.1697 19.375 14.6875 19.375Z" fill="#2D2D2D"/>
</svg>
