<svg width="40" height="40" viewBox="0 0 40 40" fill="none" xmlns="http://www.w3.org/2000/svg">
<path fill-rule="evenodd" clip-rule="evenodd" d="M30.1212 15.9999C32.4776 15.9999 34.9212 13.0228 34.9212 10.6666C34.9212 8.3103 33.0109 6.3999 30.6545 6.3999C28.2981 6.3999 25.8545 9.37697 25.8545 11.7332C25.8545 14.0895 27.7646 15.9999 30.1212 15.9999Z" fill="#595959" stroke="black" stroke-width="1.06667" stroke-miterlimit="10" stroke-linecap="round" stroke-linejoin="round"/>
<path fill-rule="evenodd" clip-rule="evenodd" d="M13.0544 15.9999C10.698 15.9999 8.25439 13.0228 8.25439 10.6666C8.25439 8.3103 10.1647 6.3999 12.5211 6.3999C14.8775 6.3999 17.3211 9.37697 17.3211 11.7332C17.3211 14.0895 15.4108 15.9999 13.0544 15.9999Z" fill="#595959" stroke="black" stroke-width="1.06667" stroke-miterlimit="10" stroke-linecap="round" stroke-linejoin="round"/>
<path fill-rule="evenodd" clip-rule="evenodd" d="M20.5199 30.9333C27.5891 30.9333 35.9866 29.3579 35.9866 23.4667C35.9866 17.5755 27.5891 8 20.5199 8C13.4507 8 5.05322 17.5755 5.05322 23.4667C5.05322 29.3579 13.4507 30.9333 20.5199 30.9333Z" fill="#DDDDDD" stroke="black" stroke-width="1.03111" stroke-miterlimit="10" stroke-linecap="round" stroke-linejoin="round"/>
<path fill-rule="evenodd" clip-rule="evenodd" d="M14.2207 25.6001C16.0445 25.6001 17.1677 23.5452 18.1234 21.2924C19.079 19.0396 17.2454 17.6001 15.4215 17.6001C13.5978 17.6001 10.9185 18.9132 10.9185 21.2924C10.9186 23.6716 12.397 25.6001 14.2207 25.6001Z" fill="#595959" stroke="black" stroke-width="1.06667" stroke-miterlimit="10" stroke-linecap="round" stroke-linejoin="round"/>
<path d="M16.2522 20.7998C16.8413 20.7998 17.3189 20.3223 17.3189 19.7332C17.3189 19.1441 16.8413 18.6665 16.2522 18.6665C15.6631 18.6665 15.1855 19.1441 15.1855 19.7332C15.1855 20.3223 15.6631 20.7998 16.2522 20.7998Z" fill="black"/>
<path fill-rule="evenodd" clip-rule="evenodd" d="M27.351 25.6001C25.5276 25.6001 24.4082 23.7409 23.4492 21.2924C22.4901 18.8444 24.327 17.6001 26.1505 17.6001C27.974 17.6001 30.6528 18.9132 30.6528 21.2924C30.6528 23.6716 29.1745 25.6001 27.351 25.6001Z" fill="#595959" stroke="black" stroke-width="1.06667" stroke-miterlimit="10" stroke-linecap="round" stroke-linejoin="round"/>
<path fill-rule="evenodd" clip-rule="evenodd" d="M20.5196 34.6666C23.3474 34.6666 26.9196 32.7562 26.9196 30.4C26.9196 28.0437 23.3474 26.1333 20.5196 26.1333C17.6919 26.1333 14.1196 28.0437 14.1196 30.4C14.1196 32.7562 17.6919 34.6666 20.5196 34.6666Z" fill="#595959" stroke="black" stroke-width="1.06667" stroke-miterlimit="10" stroke-linecap="round" stroke-linejoin="round"/>
<path d="M25.3186 20.7998C25.9077 20.7998 26.3853 20.3223 26.3853 19.7332C26.3853 19.1441 25.9077 18.6665 25.3186 18.6665C24.7295 18.6665 24.252 19.1441 24.252 19.7332C24.252 20.3223 24.7295 20.7998 25.3186 20.7998Z" fill="black"/>
<path d="M15.7183 30.3999C15.7183 31.2835 16.7928 31.9999 18.1183 31.9999C19.4437 31.9999 20.5183 31.2835 20.5183 30.3999" stroke="black" stroke-width="1.06667" stroke-miterlimit="10" stroke-linecap="round" stroke-linejoin="round"/>
<path d="M20.5181 30.3999C20.5181 31.2835 21.5926 31.9999 22.9181 31.9999C24.2435 31.9999 25.3181 31.2835 25.3181 30.3999" stroke="black" stroke-width="1.06667" stroke-miterlimit="10" stroke-linecap="round" stroke-linejoin="round"/>
<path fill-rule="evenodd" clip-rule="evenodd" d="M21.2243 30.0531C20.6879 30.5161 19.8171 30.515 19.282 30.0531L18.1813 29.1042C17.6449 28.6413 17.7827 28.2666 18.4785 28.2666H22.0276C22.7281 28.2666 22.86 28.6423 22.3248 29.1042L21.2243 30.0531Z" fill="#DDDDDD" stroke="black" stroke-width="1.03111" stroke-miterlimit="10" stroke-linecap="round" stroke-linejoin="round"/>
</svg>
