<svg width="40" height="40" viewBox="0 0 40 40" fill="none" xmlns="http://www.w3.org/2000/svg">
<path d="M10.4845 16.0192C13.2802 15.5342 15.055 12.3072 14.4486 8.81156C13.8422 5.31588 11.0843 2.87521 8.28859 3.36017C5.49291 3.84514 3.71814 7.07209 4.32454 10.5678C4.93093 14.0635 7.68886 16.5041 10.4845 16.0192Z" fill="#B26F2D" stroke="black" stroke-width="1.06094" stroke-miterlimit="10"/>
<path d="M10.5777 13.7411C10.4547 13.7858 10.328 13.8197 10.1991 13.8424C8.55106 14.1331 6.82306 12.4824 6.42573 10.2371C6.0604 8.16244 6.88973 6.19444 8.35906 5.65844C8.4821 5.61373 8.6088 5.57982 8.73773 5.55711C9.14351 5.50159 9.55661 5.53926 9.94566 5.66725C10.3347 5.79524 10.6895 6.01019 10.9831 6.29577C11.8009 7.05182 12.3394 8.06199 12.5111 9.16244C12.8764 11.2398 12.0444 13.2078 10.5777 13.7411Z" fill="#D8985D"/>
<path d="M35.6234 10.5974C36.2428 7.08458 34.4675 3.83529 31.6581 3.33992C28.8487 2.84455 26.0691 5.29068 25.4497 8.80352C24.8303 12.3163 26.6056 15.5656 29.415 16.061C32.2244 16.5564 35.004 14.1103 35.6234 10.5974Z" fill="#B26F2D" stroke="black" stroke-width="1.06667" stroke-miterlimit="10"/>
<path d="M30.1942 13.8664C30.0636 13.8661 29.9334 13.8545 29.8048 13.8317C28.1568 13.5411 27.0982 11.3971 27.4928 9.15172C27.8582 7.07705 29.3115 5.51172 30.8742 5.51172C31.0047 5.51198 31.135 5.52357 31.2635 5.54639C31.6654 5.63162 32.0426 5.8076 32.3661 6.06087C32.6896 6.31414 32.951 6.638 33.1302 7.00772C33.6402 7.9977 33.8009 9.13096 33.5862 10.2237C33.2102 12.3117 31.7542 13.8664 30.1942 13.8664Z" fill="#D8985D"/>
<path d="M7.26747 26.7309C3.26747 20.2322 7.5928 6.99757 13.6675 5.66423C14.8435 2.30157 19.0301 2.24023 19.0301 2.24023C18.2195 3.7549 18.3981 4.92823 18.3981 4.92823C20.2115 2.74157 23.2728 3.06157 23.2728 3.06157C23.0861 5.0829 27.7101 5.37357 30.4915 8.59224C33.2728 11.8109 35.5848 16.1869 33.7421 24.4669C32.9421 22.8669 32.0861 22.8429 32.0861 22.8429C31.9608 28.9762 26.2435 36.4909 21.8355 37.6162C22.0461 34.9709 21.3661 34.0856 20.8355 33.7736C21.0861 35.3362 20.1128 36.8669 20.1128 36.8669C11.9901 34.9282 9.44613 31.0856 8.82213 23.2429C7.40347 25.3549 7.26747 26.7309 7.26747 26.7309Z" fill="#DD852F" stroke="black" stroke-width="1.06667" stroke-miterlimit="10"/>
<path d="M20.1233 31.1333C22.599 31.1333 24.606 29.82 24.606 28.1999C24.606 26.5799 22.599 25.2666 20.1233 25.2666C17.6476 25.2666 15.6406 26.5799 15.6406 28.1999C15.6406 29.82 17.6476 31.1333 20.1233 31.1333Z" fill="#F2C497" stroke="black" stroke-width="0.533333" stroke-miterlimit="10"/>
<path d="M31.952 17.0669C31.952 19.1069 31.432 19.8402 29.7334 21.6002C28.0347 23.3602 25.6 25.3015 20.6134 25.3015H20.1707C15.1867 25.3015 12.7494 23.3629 11.0507 21.6055C9.35203 19.8482 8.83203 19.1149 8.83203 17.0722C8.83203 13.1335 12.864 8.13086 19.3707 8.13086C19.4454 8.13086 20.3174 9.22153 20.392 9.22419C20.4667 9.22686 21.3334 8.13353 21.4134 8.13353C27.92 8.13353 31.952 13.1362 31.952 17.0669Z" fill="#F2C497"/>
<path d="M27.3264 24.4427C27.3264 27.376 24.9771 30.6214 20.1691 27.792C15.3691 30.6214 13.0117 27.384 13.0117 24.4427C13.0117 21.5014 15.3611 19.1094 20.1691 19.1094C24.9771 19.1094 27.3264 21.4987 27.3264 24.4427Z" fill="#EFDFC4" stroke="black" stroke-width="0.533333" stroke-miterlimit="10"/>
<path d="M17.4528 16.1918C17.2235 17.4931 15.8528 18.2558 14.4555 18.0104C13.0582 17.7651 12.0262 17.0664 12.3542 15.1998C12.5835 13.8984 13.7462 13.8931 15.1355 14.1331C16.5248 14.3731 17.6822 14.8904 17.4528 16.1918Z" fill="white" stroke="black" stroke-width="0.533333" stroke-miterlimit="10"/>
<path d="M23.3807 16.1918C23.61 17.4931 24.9807 18.2558 26.378 18.0104C27.7754 17.7651 28.802 17.0664 28.4794 15.1998C28.25 13.8984 27.0874 13.8931 25.698 14.1331C24.3087 14.3731 23.1514 14.8904 23.3807 16.1918Z" fill="white" stroke="black" stroke-width="0.533333" stroke-miterlimit="10"/>
<path d="M16.7175 16.1031C16.8029 15.6187 16.4795 15.1567 15.9951 15.0713C15.5106 14.9859 15.0487 15.3093 14.9633 15.7938C14.8778 16.2782 15.2013 16.7401 15.6857 16.8256C16.1702 16.911 16.6321 16.5875 16.7175 16.1031Z" fill="black"/>
<path d="M25.1435 16.8232C25.6279 16.7378 25.9514 16.2759 25.866 15.7914C25.7805 15.307 25.3186 14.9836 24.8342 15.069C24.3497 15.1544 24.0263 15.6163 24.1117 16.1008C24.1971 16.5852 24.6591 16.9087 25.1435 16.8232Z" fill="black"/>
<path d="M22.5873 20.7042C22.5873 21.6988 21.166 23.2162 20.1687 23.2162C19.1713 23.2162 17.75 21.7015 17.75 20.7042C17.75 19.7068 19.1713 19.6108 20.1687 19.6108C21.166 19.6108 22.5873 19.7095 22.5873 20.7042Z" fill="#4C331C"/>
<path d="M20.1719 27.7919V23.4053" stroke="black" stroke-width="0.533333" stroke-miterlimit="10" stroke-linecap="round"/>
<path d="M22.2227 24.2398L25.372 22.6904" stroke="black" stroke-width="0.266667" stroke-miterlimit="10"/>
<path d="M22.5977 24.9785H25.9043" stroke="black" stroke-width="0.266667" stroke-miterlimit="10"/>
<path d="M22.2227 25.7148L25.372 27.2642" stroke="black" stroke-width="0.266667" stroke-miterlimit="10"/>
<path d="M17.7577 24.2398L14.875 22.6904" stroke="black" stroke-width="0.266667" stroke-miterlimit="10"/>
<path d="M17.3864 24.9785H14.3438" stroke="black" stroke-width="0.266667" stroke-miterlimit="10"/>
<path d="M17.7577 25.7148L14.875 27.2642" stroke="black" stroke-width="0.266667" stroke-miterlimit="10"/>
</svg>
