<svg width="40" height="40" viewBox="0 0 40 40" fill="none" xmlns="http://www.w3.org/2000/svg">
<path d="M27.2752 28.2828C27.2752 33.6161 26.0512 38.8001 20.1259 38.8001C14.2006 38.8001 12.9766 33.6268 12.9766 28.2828C12.9766 22.9388 16.1766 27.7148 20.1259 27.7148C24.0752 27.7148 27.2752 22.9334 27.2752 28.2828Z" fill="#A0683A" stroke="black" stroke-width="0.533333" stroke-miterlimit="10"/>
<path d="M20.1301 37.5146C23.2568 37.5146 25.7914 34.9799 25.7914 31.8532C25.7914 28.7266 23.2568 26.1919 20.1301 26.1919C17.0034 26.1919 14.4688 28.7266 14.4688 31.8532C14.4688 34.9799 17.0034 37.5146 20.1301 37.5146Z" fill="#70411D"/>
<path d="M29.0802 8.17333C31.0508 4.70667 34.2375 2.49867 36.1148 2.54667C37.0828 2.57067 36.6482 4.49867 36.0748 6.98133C35.5415 9.312 34.2722 12.1253 31.0082 14.5973C24.2642 19.7067 29.0802 8.17333 29.0802 8.17333Z" fill="#A0683A" stroke="black" stroke-width="1.06667" stroke-miterlimit="10"/>
<path d="M10.9183 8.17333C8.94768 4.70667 5.76101 2.49867 3.88368 2.54667C2.91568 2.57067 3.35034 4.49867 3.92368 6.98133C4.45701 9.312 5.72634 12.1253 8.99034 14.5973C15.7343 19.7067 10.9183 8.17333 10.9183 8.17333Z" fill="#A0683A" stroke="black" stroke-width="1.06667" stroke-miterlimit="10"/>
<path d="M31.1745 25.4161C29.2892 30.6695 24.4305 33.0321 20.1559 33.0481H20.0945C15.8279 33.0321 10.9612 30.6668 9.07588 25.4161C7.79321 21.8401 7.95588 15.0161 7.95588 11.9468C7.95588 6.03746 13.3852 1.47213 20.0945 1.4668H20.1559C26.8625 1.4668 32.2945 6.03746 32.2945 11.9468C32.2945 15.0188 32.4572 21.8401 31.1745 25.4161Z" fill="#C48A51" stroke="black" stroke-width="1.06667" stroke-miterlimit="10"/>
<path d="M33.9134 16.0321C33.9134 17.8988 32.7587 19.6881 30.8414 19.6854C28.9241 19.6828 27.1641 19.2268 27.1641 17.3628C27.1641 15.4988 28.7641 13.7574 30.5374 13.4561C32.3774 13.1468 33.9134 14.1681 33.9134 16.0321Z" fill="white" stroke="black" stroke-width="0.533333" stroke-miterlimit="10"/>
<path d="M30.2709 18.4002C29.8549 18.4002 28.4922 18.3016 28.4922 17.0322C28.4922 16.0189 29.4575 15.4322 30.4069 15.2429C30.6088 15.2013 30.8175 15.206 31.0173 15.2566C31.2171 15.3072 31.4029 15.4024 31.5607 15.5351C31.7185 15.6677 31.8442 15.8344 31.9284 16.0225C32.0126 16.2107 32.0531 16.4155 32.0469 16.6216C32.0469 17.0928 31.8598 17.5448 31.5268 17.8783C31.1939 18.2118 30.7421 18.3995 30.2709 18.4002Z" fill="black"/>
<path d="M25.6416 22.088C25.6416 22.9547 22.6282 25.6747 20.1216 25.6747C17.6149 25.6747 14.6016 22.9547 14.6016 22.088C14.6016 20.1067 17.6149 14.8667 20.1216 14.8667C22.6282 14.8667 25.6416 20.1067 25.6416 22.088Z" fill="#E29149" stroke="black" stroke-width="0.8" stroke-miterlimit="10"/>
<path d="M6.33984 16.0321C6.33984 17.8988 7.49451 19.6588 9.41184 19.6588C11.3292 19.6588 13.0892 19.2268 13.0892 17.3628C13.0892 15.4988 11.4892 13.7574 9.71584 13.4561C7.87584 13.1468 6.33984 14.1681 6.33984 16.0321Z" fill="white" stroke="black" stroke-width="0.533333" stroke-miterlimit="10"/>
<path d="M25.2451 22.088C25.2291 22.6213 22.5785 25.288 20.1278 25.288C17.6771 25.288 15.0238 22.64 15.0078 22.088C15.0327 21.666 15.1227 21.2504 15.2745 20.856C17.0131 21.536 19.0478 22.9893 20.1385 24.4533C21.2291 22.9893 23.2611 21.5386 24.9998 20.856C25.1443 21.2516 25.2271 21.6671 25.2451 22.088Z" fill="#70411D"/>
<path d="M9.97585 18.3997C10.3918 18.3997 11.7545 18.3011 11.7545 17.0317C11.7545 16.0184 10.7892 15.4317 9.83985 15.2424C9.63794 15.2008 9.42923 15.2055 9.2294 15.2561C9.02956 15.3067 8.84378 15.4019 8.68598 15.5346C8.52819 15.6672 8.40248 15.8339 8.31828 16.0221C8.23409 16.2102 8.1936 16.415 8.19985 16.6211C8.19985 17.0923 8.38687 17.5443 8.71986 17.8778C9.05285 18.2113 9.50458 18.399 9.97585 18.3997Z" fill="black"/>
<path d="M28.4977 29.4801C28.4977 32.4615 24.5457 39.5095 20.1297 35.0961C15.7164 39.5095 11.7617 32.4615 11.7617 29.4801C11.7617 29.3557 11.7617 29.2321 11.7617 29.1095C11.9617 24.7255 15.3404 20.8001 20.1297 25.6001C24.8124 20.9175 28.3111 24.4801 28.4897 29.1068C28.4951 29.233 28.4977 29.3575 28.4977 29.4801Z" fill="#E29149" stroke="black" stroke-width="0.8" stroke-miterlimit="10"/>
<path d="M20.125 25.6025L20.1277 34.6185V26.0372" stroke="black" stroke-width="0.533333" stroke-linecap="round" stroke-linejoin="round"/>
</svg>
