<svg width="40" height="40" viewBox="0 0 40 40" fill="none" xmlns="http://www.w3.org/2000/svg">
<path d="M15 13.125H10C7.84512 13.125 5.77849 12.269 4.25476 10.7452C2.73102 9.22151 1.875 7.15488 1.875 5C1.875 4.66848 2.0067 4.35054 2.24112 4.11612C2.47554 3.8817 2.79348 3.75 3.125 3.75C3.45652 3.75 3.77446 3.8817 4.00888 4.11612C4.2433 4.35054 4.375 4.66848 4.375 5C4.375 6.49184 4.96763 7.92258 6.02252 8.97748C7.07742 10.0324 8.50816 10.625 10 10.625H15C15.3315 10.625 15.6495 10.7567 15.8839 10.9911C16.1183 11.2255 16.25 11.5435 16.25 11.875C16.25 12.2065 16.1183 12.5245 15.8839 12.7589C15.6495 12.9933 15.3315 13.125 15 13.125Z" fill="#3E2C27"/>
<path d="M15 13.125H10C7.84512 13.125 5.77849 12.269 4.25476 10.7452C2.73102 9.22151 1.875 7.15488 1.875 5C1.875 4.66848 2.0067 4.35054 2.24112 4.11612C2.47554 3.8817 2.79348 3.75 3.125 3.75C3.45652 3.75 3.77446 3.8817 4.00888 4.11612C4.2433 4.35054 4.375 4.66848 4.375 5C4.375 6.49184 4.96763 7.92258 6.02252 8.97748C7.07742 10.0324 8.50816 10.625 10 10.625H15C15.3315 10.625 15.6495 10.7567 15.8839 10.9911C16.1183 11.2255 16.25 11.5435 16.25 11.875C16.25 12.2065 16.1183 12.5245 15.8839 12.7589C15.6495 12.9933 15.3315 13.125 15 13.125Z" fill="#3E2C27"/>
<path d="M15 13.125C12.8451 13.125 10.7785 12.269 9.25476 10.7452C7.73102 9.22151 6.875 7.15488 6.875 5C6.875 4.66848 7.0067 4.35054 7.24112 4.11612C7.47554 3.8817 7.79348 3.75 8.125 3.75C8.45652 3.75 8.77446 3.8817 9.00888 4.11612C9.2433 4.35054 9.375 4.66848 9.375 5C9.375 6.49184 9.96763 7.92258 11.0225 8.97748C12.0774 10.0324 13.5082 10.625 15 10.625C15.3315 10.625 15.6495 10.7567 15.8839 10.9911C16.1183 11.2255 16.25 11.5435 16.25 11.875C16.25 12.2065 16.1183 12.5245 15.8839 12.7589C15.6495 12.9933 15.3315 13.125 15 13.125Z" fill="#3E2C27"/>
<path d="M15 13.125C12.8451 13.125 10.7785 12.269 9.25476 10.7452C7.73102 9.22151 6.875 7.15488 6.875 5C6.875 4.66848 7.0067 4.35054 7.24112 4.11612C7.47554 3.8817 7.79348 3.75 8.125 3.75C8.45652 3.75 8.77446 3.8817 9.00888 4.11612C9.2433 4.35054 9.375 4.66848 9.375 5C9.375 6.49184 9.96763 7.92258 11.0225 8.97748C12.0774 10.0324 13.5082 10.625 15 10.625C15.3315 10.625 15.6495 10.7567 15.8839 10.9911C16.1183 11.2255 16.25 11.5435 16.25 11.875C16.25 12.2065 16.1183 12.5245 15.8839 12.7589C15.6495 12.9933 15.3315 13.125 15 13.125Z" fill="#3E2C27"/>
<path d="M16.875 15C16.5435 15 16.2255 14.8683 15.9911 14.6339C15.7567 14.3995 15.625 14.0815 15.625 13.75C15.625 13.5842 15.5592 13.4253 15.4419 13.3081C15.3247 13.1908 15.1658 13.125 15 13.125C14.6685 13.125 14.3505 12.9933 14.1161 12.7589C13.8817 12.5245 13.75 12.2065 13.75 11.875C13.75 11.5435 13.8817 11.2255 14.1161 10.9911C14.3505 10.7567 14.6685 10.625 15 10.625C15.8288 10.625 16.6237 10.9542 17.2097 11.5403C17.7958 12.1263 18.125 12.9212 18.125 13.75C18.125 14.0815 17.9933 14.3995 17.7589 14.6339C17.5245 14.8683 17.2065 15 16.875 15Z" fill="#3E2C27"/>
<path d="M30 13.125H25C24.6685 13.125 24.3505 12.9933 24.1161 12.7589C23.8817 12.5245 23.75 12.2065 23.75 11.875C23.75 11.5435 23.8817 11.2255 24.1161 10.9911C24.3505 10.7567 24.6685 10.625 25 10.625H30C31.4918 10.625 32.9226 10.0324 33.9775 8.97748C35.0324 7.92258 35.625 6.49184 35.625 5C35.625 4.66848 35.7567 4.35054 35.9911 4.11612C36.2255 3.8817 36.5435 3.75 36.875 3.75C37.2065 3.75 37.5245 3.8817 37.7589 4.11612C37.9933 4.35054 38.125 4.66848 38.125 5C38.125 7.15488 37.269 9.22151 35.7452 10.7452C34.2215 12.269 32.1549 13.125 30 13.125Z" fill="#3E2C27"/>
<path d="M30 13.125H25C24.6685 13.125 24.3505 12.9933 24.1161 12.7589C23.8817 12.5245 23.75 12.2065 23.75 11.875C23.75 11.5435 23.8817 11.2255 24.1161 10.9911C24.3505 10.7567 24.6685 10.625 25 10.625H30C31.4918 10.625 32.9226 10.0324 33.9775 8.97748C35.0324 7.92258 35.625 6.49184 35.625 5C35.625 4.66848 35.7567 4.35054 35.9911 4.11612C36.2255 3.8817 36.5435 3.75 36.875 3.75C37.2065 3.75 37.5245 3.8817 37.7589 4.11612C37.9933 4.35054 38.125 4.66848 38.125 5C38.125 7.15488 37.269 9.22151 35.7452 10.7452C34.2215 12.269 32.1549 13.125 30 13.125Z" fill="#3E2C27"/>
<path d="M25 13.125C24.6685 13.125 24.3505 12.9933 24.1161 12.7589C23.8817 12.5245 23.75 12.2065 23.75 11.875C23.75 11.5435 23.8817 11.2255 24.1161 10.9911C24.3505 10.7567 24.6685 10.625 25 10.625C26.4918 10.625 27.9226 10.0324 28.9775 8.97748C30.0324 7.92258 30.625 6.49184 30.625 5C30.625 4.66848 30.7567 4.35054 30.9911 4.11612C31.2255 3.8817 31.5435 3.75 31.875 3.75C32.2065 3.75 32.5245 3.8817 32.7589 4.11612C32.9933 4.35054 33.125 4.66848 33.125 5C33.125 6.06699 32.9148 7.12353 32.5065 8.1093C32.0982 9.09507 31.4997 9.99077 30.7452 10.7452C29.9908 11.4997 29.0951 12.0982 28.1093 12.5065C27.1235 12.9148 26.067 13.125 25 13.125Z" fill="#3E2C27"/>
<path d="M25 13.125C24.6685 13.125 24.3505 12.9933 24.1161 12.7589C23.8817 12.5245 23.75 12.2065 23.75 11.875C23.75 11.5435 23.8817 11.2255 24.1161 10.9911C24.3505 10.7567 24.6685 10.625 25 10.625C26.4918 10.625 27.9226 10.0324 28.9775 8.97748C30.0324 7.92258 30.625 6.49184 30.625 5C30.625 4.66848 30.7567 4.35054 30.9911 4.11612C31.2255 3.8817 31.5435 3.75 31.875 3.75C32.2065 3.75 32.5245 3.8817 32.7589 4.11612C32.9933 4.35054 33.125 4.66848 33.125 5C33.125 6.06699 32.9148 7.12353 32.5065 8.1093C32.0982 9.09507 31.4997 9.99077 30.7452 10.7452C29.9908 11.4997 29.0951 12.0982 28.1093 12.5065C27.1235 12.9148 26.067 13.125 25 13.125Z" fill="#3E2C27"/>
<path d="M23.125 15C22.7935 15 22.4755 14.8683 22.2411 14.6339C22.0067 14.3995 21.875 14.0815 21.875 13.75C21.875 12.9212 22.2042 12.1263 22.7903 11.5403C23.3763 10.9542 24.1712 10.625 25 10.625C25.3315 10.625 25.6495 10.7567 25.8839 10.9911C26.1183 11.2255 26.25 11.5435 26.25 11.875C26.25 12.2065 26.1183 12.5245 25.8839 12.7589C25.6495 12.9933 25.3315 13.125 25 13.125C24.8342 13.125 24.6753 13.1908 24.5581 13.3081C24.4408 13.4253 24.375 13.5842 24.375 13.75C24.375 14.0815 24.2433 14.3995 24.0089 14.6339C23.7745 14.8683 23.4565 15 23.125 15Z" fill="#3E2C27"/>
<path d="M35.624 13.75C35.624 15.4076 34.9655 16.9973 33.7934 18.1694C32.6213 19.3415 31.0316 20 29.374 20H28.749V18.125C28.7504 17.2497 28.4891 16.394 27.999 15.6687L28.0803 15.5813C29.2521 14.4091 30.8416 13.7504 32.499 13.75H35.624Z" fill="#703F00"/>
<path d="M28.75 18.125V23.1875C28.7584 24.3434 28.309 25.4556 27.5 26.2812C26.2958 27.4831 25.4533 28.999 25.0687 30.6562L24.3375 33.8188C24.1788 34.5161 23.7857 35.138 23.2237 35.5804C22.6618 36.0229 21.9651 36.2593 21.25 36.25H18.75C18.0432 36.2496 17.3574 36.0096 16.8046 35.5691C16.2518 35.1287 15.8646 34.5139 15.7062 33.825L14.975 30.6625C14.5904 29.0052 13.748 27.4893 12.5437 26.2875C12.1345 25.8815 11.8095 25.3986 11.5875 24.8666C11.3655 24.3346 11.2508 23.764 11.25 23.1875V18.125C11.25 16.9647 11.7109 15.8519 12.5314 15.0314C13.3519 14.2109 14.4647 13.75 15.625 13.75H24.375C25.5353 13.75 26.6481 14.2109 27.4686 15.0314C28.2891 15.8519 28.75 16.9647 28.75 18.125Z" fill="#965500"/>
<path d="M24.0625 23.75C24.5803 23.75 25 23.3303 25 22.8125C25 22.2947 24.5803 21.875 24.0625 21.875C23.5447 21.875 23.125 22.2947 23.125 22.8125C23.125 23.3303 23.5447 23.75 24.0625 23.75Z" fill="#2D2D2D"/>
<path d="M15.9375 23.75C16.4553 23.75 16.875 23.3303 16.875 22.8125C16.875 22.2947 16.4553 21.875 15.9375 21.875C15.4197 21.875 15 22.2947 15 22.8125C15 23.3303 15.4197 23.75 15.9375 23.75Z" fill="#2D2D2D"/>
<path d="M21.8756 34.6813C21.8745 34.8012 21.8512 34.9198 21.8068 35.0312C21.7286 35.2326 21.5827 35.4006 21.3943 35.5063L20.0006 36.25L18.6068 35.5063C18.4184 35.4006 18.2725 35.2326 18.1943 35.0312C18.1499 34.9198 18.1266 34.8012 18.1256 34.6813C18.1214 34.563 18.1406 34.4452 18.182 34.3344C18.2234 34.2236 18.2862 34.122 18.3669 34.0355C18.4476 33.9491 18.5445 33.8793 18.6522 33.8303C18.7598 33.7813 18.8761 33.754 18.9943 33.75H21.0068C21.125 33.754 21.2413 33.7813 21.3489 33.8303C21.4566 33.8793 21.5535 33.9491 21.6342 34.0355C21.7149 34.122 21.7777 34.2236 21.8192 34.3344C21.8606 34.4452 21.8797 34.563 21.8756 34.6813Z" fill="#3E2C27"/>
<path d="M12 15.6687C11.5099 16.394 11.2486 17.2497 11.25 18.125V20H10.625C8.9674 20 7.37769 19.3415 6.20558 18.1694C5.03348 16.9973 4.375 15.4076 4.375 13.75H7.5C9.15747 13.7504 10.7469 14.4091 11.9187 15.5813L12 15.6687Z" fill="#703F00"/>
</svg>
