<svg width="40" height="40" viewBox="0 0 40 40" fill="none" xmlns="http://www.w3.org/2000/svg">
<path d="M35.575 30.4688L34.5938 27.2813C33.6196 24.1123 33.1246 20.8154 33.125 17.5C33.125 17.05 33.125 16.6 33.0562 16.1563C32.9584 15.1752 32.7487 14.2085 32.4312 13.275C32.1919 12.5767 31.895 11.8994 31.5438 11.25C30.5347 9.39209 29.0916 7.80542 27.3375 6.62505C26.9875 6.38755 26.6312 6.1688 26.2562 5.96255C24.3356 4.92756 22.188 4.38574 20.0062 4.38574C17.8245 4.38574 15.6769 4.92756 13.7563 5.96255C13.3813 6.1688 13.025 6.38755 12.675 6.62505C11.9765 7.09379 11.3255 7.62967 10.7312 8.22505C9.53229 9.4215 8.57711 10.8394 7.91875 12.4C7.40991 13.5941 7.08538 14.8585 6.95625 16.15C6.875 16.6 6.875 17.05 6.875 17.5C6.87543 20.8154 6.38038 24.1123 5.40625 27.2813L4.425 30.4688C4.39319 30.5721 4.37635 30.6795 4.375 30.7875C4.375 30.9304 4.40313 31.0718 4.45778 31.2037C4.51243 31.3357 4.59254 31.4555 4.69352 31.5565C4.7945 31.6575 4.91439 31.7376 5.04633 31.7923C5.17827 31.8469 5.31969 31.875 5.4625 31.875H6.875C7.64975 31.8742 8.4052 31.6333 9.03753 31.1857C9.66985 30.738 10.148 30.1055 10.4062 29.375C10.5521 28.9745 10.6261 28.5513 10.625 28.125V31.875C10.6248 32.3638 10.8155 32.8333 11.1564 33.1835C11.4973 33.5337 11.9614 33.737 12.45 33.75C13.0287 33.7567 13.603 33.6484 14.1396 33.4315C14.6762 33.2146 15.1644 32.8934 15.576 32.4865C15.9875 32.0795 16.3143 31.595 16.5373 31.0609C16.7602 30.5268 16.875 29.9538 16.875 29.375V32.3625C16.8594 33.1583 17.1387 33.9318 17.659 34.5341C18.1794 35.1364 18.9041 35.5249 19.6938 35.625C20.1291 35.6679 20.5686 35.6189 20.9839 35.4812C21.3991 35.3435 21.7808 35.1201 22.1042 34.8255C22.4277 34.5309 22.6857 34.1717 22.8615 33.7711C23.0373 33.3706 23.1271 32.9375 23.125 32.5V29.375C23.125 29.9538 23.2398 30.5268 23.4627 31.0609C23.6857 31.595 24.0125 32.0795 24.424 32.4865C24.8356 32.8934 25.3238 33.2146 25.8604 33.4315C26.397 33.6484 26.9713 33.7567 27.55 33.75C28.0386 33.737 28.5027 33.5337 28.8436 33.1835C29.1845 32.8333 29.3752 32.3638 29.375 31.875V28.125C29.3739 28.5513 29.4479 28.9745 29.5938 29.375C29.852 30.1055 30.3301 30.738 30.9625 31.1857C31.5948 31.6333 32.3503 31.8742 33.125 31.875H34.5375C34.8259 31.875 35.1025 31.7605 35.3065 31.5565C35.5104 31.3526 35.625 31.076 35.625 30.7875C35.6236 30.6795 35.6068 30.5721 35.575 30.4688Z" fill="#EAEAEA"/>
<path d="M23.9819 19.5976L24.8437 20.4594C24.9609 20.5766 25.0267 20.7356 25.0267 20.9013C25.0267 21.0671 24.9609 21.2261 24.8437 21.3433L19.9823 26.2046L15.143 21.3654C15.0258 21.2481 14.96 21.0892 14.96 20.9234C14.96 20.7577 15.0258 20.5987 15.143 20.4815L16.0269 19.5976C17.0818 18.5427 18.5126 17.9501 20.0044 17.9501C21.4962 17.9501 22.927 18.5427 23.9819 19.5976Z" fill="#BD7F00"/>
<path d="M27.1875 16.25C27.7053 16.25 28.125 15.8303 28.125 15.3125C28.125 14.7947 27.7053 14.375 27.1875 14.375C26.6697 14.375 26.25 14.7947 26.25 15.3125C26.25 15.8303 26.6697 16.25 27.1875 16.25Z" fill="#2D2D2D"/>
<path d="M12.8125 16.25C13.3303 16.25 13.75 15.8303 13.75 15.3125C13.75 14.7947 13.3303 14.375 12.8125 14.375C12.2947 14.375 11.875 14.7947 11.875 15.3125C11.875 15.8303 12.2947 16.25 12.8125 16.25Z" fill="#2D2D2D"/>
</svg>
