<svg width="40" height="40" viewBox="0 0 40 40" fill="none" xmlns="http://www.w3.org/2000/svg">
<path d="M37.0791 29.5067C34.5324 35.1067 24.2284 38.4267 19.9991 38.4267C15.7698 38.4267 5.46576 35.1067 2.91909 29.5067C0.841756 24.9467 6.10309 18.2853 6.10309 15.4667C6.10309 11.7809 7.56727 8.24603 10.1735 5.63977C12.7798 3.03351 16.3146 1.56934 20.0004 1.56934C23.6862 1.56934 27.2211 3.03351 29.8273 5.63977C32.4336 8.24603 33.8978 11.7809 33.8978 15.4667C33.8951 18.2853 39.1564 24.9467 37.0791 29.5067Z" fill="#B7B4B3" stroke="black" stroke-width="1.06667" stroke-miterlimit="10"/>
<path d="M25.2165 25.8C22.5925 24.6427 20.1712 23.5573 19.5445 22.584C18.9179 23.5547 16.4939 24.6427 13.8672 25.8C14.0485 26.0027 16.4059 29.624 19.5392 29.6266C22.6672 29.624 25.0325 26 25.2165 25.8Z" fill="#7A5342" stroke="black" stroke-width="0.533333" stroke-miterlimit="10" stroke-linecap="round"/>
<path d="M29.9793 23.1468C30.8718 23.1468 31.5953 21.8598 31.5953 20.2721C31.5953 18.6845 30.8718 17.3975 29.9793 17.3975C29.0868 17.3975 28.3633 18.6845 28.3633 20.2721C28.3633 21.8598 29.0868 23.1468 29.9793 23.1468Z" fill="#C9C9C9" stroke="black" stroke-width="0.533333" stroke-miterlimit="10"/>
<path d="M10.0223 23.1468C10.9147 23.1468 11.6382 21.8598 11.6382 20.2721C11.6382 18.6845 10.9147 17.3975 10.0223 17.3975C9.12976 17.3975 8.40625 18.6845 8.40625 20.2721C8.40625 21.8598 9.12976 23.1468 10.0223 23.1468Z" fill="#C9C9C9" stroke="black" stroke-width="0.533333" stroke-miterlimit="10"/>
<path d="M25.2059 25.6211C22.5872 26.6611 20.1685 27.5277 19.5445 28.4024C18.9205 27.5251 16.4992 26.6664 13.8672 25.6211C14.0485 25.4397 16.4005 22.0691 19.5285 22.0664C22.6672 22.0691 25.0245 25.4397 25.2059 25.6211Z" fill="#4C3E38" stroke="black" stroke-width="0.533333" stroke-miterlimit="10" stroke-linecap="round"/>
<path d="M29.7136 22.8159C30.4205 22.8159 30.9936 21.7963 30.9936 20.5386C30.9936 19.2808 30.4205 18.2612 29.7136 18.2612C29.0067 18.2612 28.4336 19.2808 28.4336 20.5386C28.4336 21.7963 29.0067 22.8159 29.7136 22.8159Z" fill="black"/>
<path d="M10.2878 22.8159C10.9947 22.8159 11.5678 21.7963 11.5678 20.5386C11.5678 19.2808 10.9947 18.2612 10.2878 18.2612C9.58089 18.2612 9.00781 19.2808 9.00781 20.5386C9.00781 21.7963 9.58089 22.8159 10.2878 22.8159Z" fill="black"/>
<path d="M36.9918 27.8027C36.9398 28.3151 36.8056 28.8157 36.5945 29.2854C34.1945 34.5414 24.3545 37.8934 19.9998 37.8934C15.6451 37.8934 5.79448 34.5414 3.40515 29.2854C3.19402 28.8157 3.05986 28.3151 3.00781 27.8027C7.25048 30.8961 13.2931 32.8294 19.9998 32.8294C26.7065 32.8294 32.7491 30.8961 36.9918 27.8027Z" fill="#9B9998"/>
</svg>
