<svg width="40" height="40" viewBox="0 0 40 40" fill="none" xmlns="http://www.w3.org/2000/svg">
<path d="M23.4468 32.9126C22.9128 34.0591 22.1367 35.0762 21.1718 35.8938L19.9968 36.8751L18.8218 35.8938C17.8546 35.0768 17.0763 34.0597 16.5405 32.9126C17.0068 33.0531 17.4911 33.1246 17.978 33.1251H22.0155C22.5004 33.1247 22.9827 33.0531 23.4468 32.9126Z" fill="#AEADB3"/>
<path d="M28.7456 18.75V22.7375C28.7461 23.4087 28.6385 24.0756 28.4269 24.7125L26.7706 29.6687V29.7062C26.438 30.7039 25.7994 31.5712 24.9455 32.185C24.0916 32.7988 23.0659 33.1277 22.0144 33.125H17.9769C16.9274 33.1251 15.9045 32.7949 15.0531 32.1814C14.2017 31.5678 13.565 30.7018 13.2331 29.7062V29.6687L11.5769 24.7125C11.361 24.0763 11.2491 23.4094 11.2456 22.7375V18.75C11.2457 17.9189 11.4116 17.0961 11.7336 16.3299C12.0555 15.5636 12.5271 14.8693 13.1206 14.2875C13.2456 14.1688 13.3706 14.05 13.5081 13.9375C14.4615 13.1404 15.6336 12.6502 16.8706 12.5312C17.0769 12.5312 17.2831 12.5 17.4956 12.5H22.4956C22.7081 12.5 22.9144 12.5 23.1206 12.5312C23.3307 12.5526 23.5394 12.586 23.7456 12.6312C23.8748 12.6562 24.006 12.6875 24.1394 12.725H24.2144C24.3434 12.758 24.4707 12.7976 24.5956 12.8437L24.7519 12.9062C24.8614 12.9441 24.9679 12.9901 25.0706 13.0438C25.2706 13.1312 25.4647 13.2314 25.6519 13.3438C25.745 13.3941 25.8348 13.4504 25.9206 13.5125C26.1089 13.6331 26.2885 13.7668 26.4581 13.9125C26.5956 14.025 26.7206 14.1437 26.8456 14.2625C27.4467 14.8451 27.9246 15.5426 28.251 16.3134C28.5774 17.0843 28.7456 17.9129 28.7456 18.75Z" fill="#D8D9DD"/>
<path d="M33.1202 3.70625C33.1184 3.81489 33.0864 3.9209 33.028 4.01247C32.9695 4.10405 32.8868 4.17762 32.789 4.225C31.203 5.00878 29.8379 6.17616 28.8174 7.62121C27.7969 9.06625 27.1534 10.7432 26.9452 12.5C26.8948 12.9147 26.8697 13.3322 26.8702 13.75V14.2875C26.7452 14.1687 26.6202 14.05 26.4827 13.9375C26.3131 13.7918 26.1335 13.6581 25.9452 13.5375C25.8594 13.4754 25.7696 13.4191 25.6765 13.3687C25.4893 13.2564 25.2952 13.1562 25.0952 13.0687C24.9925 13.0151 24.886 12.9691 24.7765 12.9312L24.6202 12.8687C24.4953 12.8226 24.368 12.783 24.239 12.75H24.164C24.0348 12.7125 23.9035 12.6812 23.7702 12.6562C23.564 12.611 23.3553 12.5776 23.1452 12.5562C22.939 12.5562 22.7327 12.525 22.5202 12.525H21.9702C22.2701 9.94156 23.507 7.55781 25.4468 5.82537C27.3866 4.09293 29.8944 3.13214 32.4952 3.125H32.539C32.6931 3.125 32.841 3.18624 32.95 3.29524C33.059 3.40425 33.1202 3.55209 33.1202 3.70625Z" fill="#464548"/>
<path d="M18.0485 12.5002H17.4985C17.286 12.5002 17.0797 12.5002 16.8735 12.5315C15.6387 12.6517 14.4689 13.1418 13.5172 13.9377C13.3797 14.0502 13.2547 14.169 13.1297 14.2877V13.7502C13.1302 13.3324 13.1052 12.915 13.0547 12.5002C12.846 10.7428 12.2015 9.06544 11.1799 7.62034C10.1583 6.17523 8.79186 5.00821 7.20475 4.22522C7.08317 4.17105 6.98416 4.07639 6.92459 3.95737C6.86501 3.83835 6.84857 3.70235 6.87807 3.57257C6.90757 3.44278 6.98117 3.32725 7.08633 3.24567C7.1915 3.16409 7.3217 3.12152 7.45475 3.12522H7.4985C10.0998 3.12552 12.6105 4.08007 14.555 5.80796C16.4994 7.53585 17.7425 9.91703 18.0485 12.5002Z" fill="#464548"/>
<path d="M19.9956 33.75C19.8298 33.75 19.6709 33.6842 19.5537 33.5669C19.4365 33.4497 19.3706 33.2908 19.3706 33.125V30C19.3706 29.8342 19.4365 29.6753 19.5537 29.5581C19.6709 29.4408 19.8298 29.375 19.9956 29.375C20.1614 29.375 20.3203 29.4408 20.4375 29.5581C20.5548 29.6753 20.6206 29.8342 20.6206 30V33.125C20.6206 33.2908 20.5548 33.4497 20.4375 33.5669C20.3203 33.6842 20.1614 33.75 19.9956 33.75Z" fill="#AEADB3"/>
<path d="M13.122 13.7939V14.2877C12.5284 14.8695 12.0569 15.5638 11.7349 16.3301C11.413 17.0963 11.2471 17.9191 11.247 18.7502V22.7064C10.2912 23.5263 9.06133 23.9553 7.80303 23.9078C6.54474 23.8603 5.3507 23.3397 4.45947 22.4502L13.122 13.7939Z" fill="#AEADB3"/>
<path d="M35.5331 22.4502C34.6419 23.3397 33.4478 23.8603 32.1895 23.9078C30.9313 23.9553 29.7014 23.5263 28.7456 22.7064V18.7502C28.7455 17.9191 28.5796 17.0963 28.2576 16.3301C27.9357 15.5638 27.4642 14.8695 26.8706 14.2877V13.7939L35.5331 22.4502Z" fill="#AEADB3"/>
<path d="M21.8712 28.4313C21.8701 28.5512 21.8468 28.6698 21.8024 28.7812C21.7242 28.9826 21.5784 29.1506 21.3899 29.2563L19.9962 30L18.6024 29.2563C18.414 29.1506 18.2682 28.9826 18.1899 28.7812C18.1455 28.6698 18.1222 28.5512 18.1212 28.4313C18.117 28.313 18.1362 28.1952 18.1776 28.0844C18.219 27.9736 18.2818 27.872 18.3625 27.7855C18.4432 27.6991 18.5401 27.6293 18.6478 27.5803C18.7554 27.5313 18.8717 27.504 18.9899 27.5H21.0024C21.1206 27.504 21.2369 27.5313 21.3445 27.5803C21.4522 27.6293 21.5491 27.6991 21.6298 27.7855C21.7105 27.872 21.7734 27.9736 21.8148 28.0844C21.8562 28.1952 21.8753 28.313 21.8712 28.4313Z" fill="#3E2C27"/>
<path d="M24.0581 23.125C24.5759 23.125 24.9956 22.7053 24.9956 22.1875C24.9956 21.6697 24.5759 21.25 24.0581 21.25C23.5403 21.25 23.1206 21.6697 23.1206 22.1875C23.1206 22.7053 23.5403 23.125 24.0581 23.125Z" fill="#2D2D2D"/>
<path d="M15.9331 23.125C16.4509 23.125 16.8706 22.7053 16.8706 22.1875C16.8706 21.6697 16.4509 21.25 15.9331 21.25C15.4153 21.25 14.9956 21.6697 14.9956 22.1875C14.9956 22.7053 15.4153 23.125 15.9331 23.125Z" fill="#2D2D2D"/>
</svg>
