<svg width="40" height="40" viewBox="0 0 40 40" fill="none" xmlns="http://www.w3.org/2000/svg">
<path d="M25.5686 15.0984C24.1899 9.95709 25.6833 2.59442 29.9099 1.55176C33.8539 7.99976 29.0139 12.1811 25.5686 15.0984Z" fill="#91592C" stroke="black" stroke-width="1.06667" stroke-miterlimit="10"/>
<path d="M27.9844 12.1814C28.8857 9.42142 29.7577 5.93608 29.6004 2.20808L29.6644 2.18408C32.1124 6.49342 30.3817 9.68542 27.9844 12.1814Z" fill="#91592C"/>
<path d="M14.4329 15.0984C15.8115 9.95709 14.3182 2.59442 10.0915 1.55176C6.14752 7.99976 10.9875 12.1811 14.4329 15.0984Z" fill="#91592C" stroke="black" stroke-width="1.06667" stroke-miterlimit="10"/>
<path d="M12.0149 12.1814C9.61493 9.68542 7.88693 6.49342 10.3349 2.18408L10.3989 2.20808C10.2416 5.93608 11.1136 9.42142 12.0149 12.1814Z" fill="#91592C"/>
<path d="M12.0149 12.1814C9.61493 9.68542 7.88693 6.49342 10.3349 2.18408L10.3989 2.20808C10.2416 5.93608 11.1136 9.42142 12.0149 12.1814Z" fill="#683023"/>
<path d="M27.9844 12.1814C28.8857 9.42142 29.7577 5.93608 29.6004 2.20808L29.6644 2.18408C32.1124 6.49342 30.3817 9.68542 27.9844 12.1814Z" fill="#683023"/>
<path d="M29.3592 17.3731C29.3592 20.3305 27.3299 25.1065 27.1459 28.6398C26.9112 33.2318 22.5779 36.7998 20.0019 36.7998C17.4259 36.7998 13.0925 33.2318 12.8579 28.6398C12.6739 25.1038 10.6445 20.3305 10.6445 17.3731C10.6445 12.2665 14.8339 6.5918 20.0019 6.5918C25.1699 6.5918 29.3592 12.2665 29.3592 17.3731Z" fill="#91592C" stroke="black" stroke-width="1.06667" stroke-miterlimit="10"/>
<path d="M25.3144 33.9468C25.3144 36.5922 22.7597 38.7922 19.997 38.7922C17.2344 38.7922 14.6797 36.5895 14.6797 33.9468C14.6797 31.3042 17.2344 27.6802 19.997 27.6802C22.7597 27.6802 25.3144 31.3015 25.3144 33.9468Z" fill="#281614" stroke="black" stroke-width="0.533333" stroke-miterlimit="10"/>
<path d="M19.9986 5.65862C20.8513 5.64539 21.6999 5.77796 22.5079 6.05062C24.8359 7.06128 24.3373 9.74395 23.8173 11.2266C21.1293 9.86662 20.5479 10.3013 22.1319 13.5359C15.8653 12.7359 14.3079 7.42128 17.2946 6.14128C17.9773 5.84795 18.5986 5.65862 19.9986 5.65862Z" fill="#6D3722" stroke="black" stroke-width="0.533333" stroke-miterlimit="20"/>
<path d="M28.8009 17.9092C28.6996 19.2585 28.2676 20.9412 27.7876 22.7092C27.2542 24.7225 26.7049 26.8052 26.6089 28.6105C26.4916 30.9145 25.2756 32.8932 23.8516 34.2638C24.4062 28.4158 26.3529 20.3492 28.8009 17.9092Z" fill="#683023"/>
<path d="M16.1486 34.2666C14.7166 32.8959 13.5086 30.9172 13.3912 28.6132C13.2952 26.8079 12.7459 24.7252 12.2126 22.7146C11.7459 20.9412 11.3006 19.2479 11.1992 17.9146C13.6499 20.3492 15.5966 28.4159 16.1486 34.2666Z" fill="#683023"/>
<path d="M11.1992 17.9092C13.6499 20.3492 15.5966 28.4158 16.1486 34.2665C14.7166 32.8958 13.5086 30.9172 13.3912 28.6132C13.2952 26.8078 12.7459 24.7252 12.2126 22.7145C11.7326 20.9412 11.2979 19.2585 11.1992 17.9092Z" fill="#683023"/>
<path d="M28.8009 17.9092C28.6996 19.2585 28.2676 20.9412 27.7876 22.7092C27.2542 24.7225 26.7049 26.8052 26.6089 28.6105C26.4916 30.9145 25.2756 32.8932 23.8516 34.2638C24.4062 28.4158 26.3529 20.3492 28.8009 17.9092Z" fill="#683023"/>
<path d="M25.9345 30.9066C25.9345 33.7786 23.0812 36.992 19.9985 36.992C16.9158 36.992 14.0625 33.792 14.0625 30.9066C14.0625 28.0213 16.9158 25.3066 19.9985 25.3066C23.0812 25.3066 25.9345 28.0346 25.9345 30.9066Z" fill="#5E3730" stroke="black" stroke-width="1.06667" stroke-miterlimit="10"/>
<path d="M17.9129 30.9056C18.4862 30.752 18.7717 29.9586 18.5506 29.1335C18.3295 28.3084 17.6856 27.764 17.1123 27.9177C16.539 28.0713 16.2534 28.8647 16.4745 29.6898C16.6956 30.5149 17.3396 31.0592 17.9129 30.9056Z" fill="black"/>
<path d="M23.5233 29.6912C23.7444 28.8661 23.4588 28.0727 22.8855 27.9191C22.3122 27.7655 21.6683 28.3098 21.4472 29.1349C21.2261 29.96 21.5116 30.7534 22.0849 30.9071C22.6582 31.0607 23.3022 30.5163 23.5233 29.6912Z" fill="black"/>
<path d="M28.2966 18.2615C28.63 19.5015 28.1793 20.9015 26.902 21.2429C25.6246 21.5842 24.3713 21.6002 24.038 20.3522C23.7046 19.1042 24.5553 18.0402 25.6886 17.5229C26.822 17.0055 27.9633 17.0189 28.2966 18.2615Z" fill="white" stroke="black" stroke-width="0.533333" stroke-miterlimit="10"/>
<path d="M26.2122 20.6988C25.9109 20.7788 24.9082 20.9655 24.6816 20.1335C24.5002 19.4588 25.0922 18.8722 25.7482 18.5708C25.8794 18.4995 26.0248 18.4586 26.1738 18.451C26.3229 18.4434 26.4717 18.4694 26.6094 18.5269C26.7471 18.5845 26.8701 18.6723 26.9693 18.7837C27.0686 18.8951 27.1416 19.0274 27.1829 19.1708C27.2554 19.502 27.194 19.8485 27.0122 20.1347C26.8304 20.4209 26.5429 20.6236 26.2122 20.6988Z" fill="black"/>
<path d="M11.6606 18.2615C11.3272 19.5015 11.7779 20.9015 13.0552 21.2429C14.3326 21.5842 15.5859 21.6002 15.9192 20.3522C16.2526 19.1042 15.4019 18.0402 14.2686 17.5229C13.1352 17.0055 12.0019 17.0189 11.6606 18.2615Z" fill="white" stroke="black" stroke-width="0.533333" stroke-miterlimit="10"/>
<path d="M13.7425 20.6988C14.0439 20.7788 15.0465 20.9655 15.2732 20.1335C15.4545 19.4588 14.8625 18.8722 14.2065 18.5708C14.0754 18.4995 13.93 18.4586 13.781 18.451C13.6319 18.4434 13.4831 18.4694 13.3454 18.5269C13.2077 18.5845 13.0847 18.6723 12.9855 18.7837C12.8862 18.8951 12.8132 19.0274 12.7719 19.1708C12.6994 19.502 12.7608 19.8485 12.9426 20.1347C13.1244 20.4209 13.4119 20.6236 13.7425 20.6988Z" fill="black"/>
</svg>
