<svg width="40" height="40" viewBox="0 0 40 40" fill="none" xmlns="http://www.w3.org/2000/svg">
<path d="M25.2636 16.3629C24.7116 10.0509 27.9836 1.72824 33.1543 1.37891C36.445 9.74157 29.9063 13.6536 25.2636 16.3629Z" fill="#CCCCCC" stroke="black" stroke-width="1.06667" stroke-miterlimit="10"/>
<path d="M14.7393 16.3626C15.294 10.048 12.022 1.72531 6.84866 1.37598C3.558 9.74131 10.0967 13.6533 14.7393 16.3626Z" fill="#CCCCCC" stroke="black" stroke-width="1.06667" stroke-miterlimit="10"/>
<path d="M27.3359 14.4906C27.9786 10.3093 29.5519 5.33326 32.8026 1.98926C35.1306 8.42659 31.2799 11.9733 27.3359 14.4906Z" fill="#B7B7B7"/>
<path d="M12.6644 14.4906C8.72041 11.9733 4.86975 8.42659 7.19775 1.98926C10.4484 5.33326 12.0217 10.3093 12.6644 14.4906Z" fill="#B7B7B7"/>
<path d="M30.0274 17.4264C30.0274 20.2478 28.3874 23.3411 28.1767 26.7144C27.9101 31.0958 22.7581 35.0104 19.9981 35.0104C17.2381 35.0104 12.0888 31.0931 11.8194 26.7144C11.6088 23.3384 9.96875 20.2478 9.96875 17.4264C9.96875 11.2131 14.4594 6.17578 19.9981 6.17578C25.5367 6.17578 30.0274 11.2131 30.0274 17.4264Z" fill="#CCCCCC" stroke="black" stroke-width="1.06667" stroke-miterlimit="10"/>
<path d="M17.4632 23.9761C16.0632 24.6694 14.2925 26.1334 12.5939 28.0001C12.4771 27.6117 12.4012 27.2122 12.3672 26.8081C13.9699 25.4987 15.7645 24.3921 17.4632 23.9761Z" fill="#424242"/>
<path d="M16.6315 22.8774C15.4422 23.1174 13.8422 23.9441 12.1648 25.1254C12.1062 24.7894 12.0395 24.4588 11.9648 24.1281C13.5515 23.3441 15.1995 22.8268 16.6315 22.8774Z" fill="#424242"/>
<path d="M27.6351 26.8134C27.6011 27.2175 27.5251 27.617 27.4084 28.0054C25.7097 26.1387 23.9417 24.6694 22.5391 23.9761C24.2377 24.3921 26.0324 25.4987 27.6351 26.8134Z" fill="#424242"/>
<path d="M28.0339 24.1281C27.9592 24.4588 27.8925 24.7894 27.8339 25.1254C26.1565 23.9494 24.5565 23.1174 23.3672 22.8774C24.7992 22.8268 26.4472 23.3441 28.0339 24.1281Z" fill="#424242"/>
<path d="M25.4044 33.9866C25.4044 36.6746 22.8071 38.9146 19.9991 38.9146C17.1911 38.9146 14.5938 36.6773 14.5938 33.9866C14.5938 31.2959 17.1911 27.6133 19.9991 27.6133C22.8071 27.6133 25.4044 31.2986 25.4044 33.9866Z" fill="#3F3F3F" stroke="black" stroke-width="0.533333" stroke-miterlimit="10"/>
<path d="M26.3307 31.28C26.3307 33.9467 23.2881 36.9013 19.9974 36.9013C16.7067 36.9013 13.6641 33.9333 13.6641 31.28C13.6641 28.6267 16.7094 26.104 19.9974 26.104C23.2854 26.104 26.3307 28.624 26.3307 31.28Z" fill="#666666" stroke="black" stroke-width="1.06667" stroke-miterlimit="10"/>
<path d="M28.6057 18.6399C28.6057 19.9465 27.8057 21.2025 26.451 21.1999C25.0963 21.1972 23.875 20.8799 23.875 19.5732C23.875 18.2665 24.9897 17.0452 26.2403 16.8345C27.491 16.6239 28.6057 17.3332 28.6057 18.6399Z" fill="white" stroke="black" stroke-width="0.533333" stroke-miterlimit="10"/>
<path d="M26.2453 20.2987C25.928 20.2987 24.8906 20.2294 24.8906 19.3414C24.8906 18.6321 25.6266 18.2107 26.3493 18.0881C26.4966 18.0531 26.6499 18.0514 26.798 18.0833C26.9461 18.1152 27.0851 18.1797 27.205 18.2723C27.3249 18.3648 27.4226 18.483 27.4909 18.6181C27.5593 18.7533 27.5965 18.902 27.6 19.0534C27.584 19.3977 27.4327 19.7217 27.179 19.955C26.9253 20.1882 26.5897 20.3118 26.2453 20.2987Z" fill="black"/>
<path d="M11.3945 18.6399C11.3945 19.9465 12.1945 21.1812 13.5492 21.1839C14.9039 21.1865 16.1252 20.8799 16.1252 19.5839C16.1252 18.2879 15.0105 17.0559 13.7599 16.8452C12.5092 16.6345 11.3945 17.3332 11.3945 18.6399Z" fill="white" stroke="black" stroke-width="0.533333" stroke-miterlimit="10"/>
<path d="M13.7531 20.2987C14.0704 20.2987 15.1078 20.2294 15.1078 19.3414C15.1078 18.6321 14.3718 18.2107 13.6491 18.0881C13.5018 18.0531 13.3484 18.0514 13.2004 18.0833C13.0523 18.1152 12.9133 18.1797 12.7934 18.2723C12.6735 18.3648 12.5758 18.483 12.5075 18.6181C12.4391 18.7533 12.4019 18.902 12.3984 19.0534C12.4144 19.3977 12.5657 19.7217 12.8194 19.955C13.0731 20.1882 13.4087 20.3118 13.7531 20.2987Z" fill="black"/>
<path d="M23.3319 11.3064C22.5852 10.6851 21.3612 10.2798 19.9745 10.2798C18.5879 10.2798 17.3639 10.6851 16.6172 11.3064C17.2119 10.3918 18.4839 9.75977 19.9745 9.75977C21.4652 9.75977 22.7345 10.3998 23.3319 11.3064Z" fill="#424242"/>
<path d="M24.7238 14.1999C23.6571 13.3225 21.9371 12.7492 19.9771 12.7492C18.0171 12.7492 16.2865 13.3332 15.2305 14.1999C16.0731 12.9065 17.8811 12.0132 19.9771 12.0132C22.0731 12.0132 23.8811 12.9065 24.7238 14.1999Z" fill="#424242"/>
<path d="M16.8239 32.1604C17.4541 31.9916 17.7675 31.1178 17.524 30.2088C17.2804 29.2997 16.5721 28.6997 15.9419 28.8686C15.3117 29.0374 14.9982 29.9112 15.2418 30.8203C15.4854 31.7293 16.1937 32.3293 16.8239 32.1604Z" fill="black"/>
<path d="M24.7583 30.8191C25.0019 29.9101 24.6885 29.0363 24.0583 28.8674C23.4281 28.6985 22.7198 29.2986 22.4762 30.2076C22.2326 31.1166 22.546 31.9904 23.1762 32.1593C23.8064 32.3281 24.5148 31.7281 24.7583 30.8191Z" fill="black"/>
<path d="M20.8022 7.57074L20.5008 7.83741C20.3636 7.96738 20.1818 8.03982 19.9928 8.03982C19.8038 8.03982 19.622 7.96738 19.4848 7.83741L19.1835 7.57074C19.0509 7.44673 18.9581 7.28618 18.9168 7.10941L18.0688 3.61074C18.0166 3.23408 18.0783 2.85042 18.2461 2.50917C18.4139 2.16792 18.68 1.88473 19.0102 1.69607L19.2928 1.54941C19.5064 1.43773 19.7438 1.37939 19.9848 1.37939C20.2258 1.37939 20.4633 1.43773 20.6768 1.54941L20.9835 1.70674C21.3168 1.89397 21.5859 2.17733 21.7558 2.51983C21.9256 2.86234 21.9882 3.24809 21.9355 3.62674L21.0688 7.11207C21.0271 7.28789 20.9343 7.44745 20.8022 7.57074Z" fill="#3F3F3F" stroke="black" stroke-width="0.533333" stroke-linecap="round" stroke-linejoin="round"/>
</svg>
