<svg width="40" height="40" viewBox="0 0 40 40" fill="none" xmlns="http://www.w3.org/2000/svg">
<path d="M27.72 20.6666C27.9872 20.6921 28.2438 20.7837 28.4667 20.9332C32.9253 23.7999 36.3093 21.0586 37.9653 19.5279C35.9467 18.9546 32.2667 16.1599 28.7013 18.5039C25.9787 20.2959 27.0587 20.6159 27.72 20.6666Z" fill="#261C1A" stroke="black" stroke-width="0.8" stroke-miterlimit="10"/>
<path d="M12.2817 20.6666C12.0146 20.6921 11.7579 20.7837 11.5351 20.9332C7.07906 23.7999 3.69506 21.0666 2.03906 19.5279C4.05506 18.9546 7.73506 16.1599 11.3004 18.5039C14.0231 20.2959 12.9431 20.6159 12.2817 20.6666Z" fill="#261C1A" stroke="black" stroke-width="0.8" stroke-miterlimit="10"/>
<path d="M30.3822 4C33.6782 5.48267 36.6995 14.6853 30.3822 17.5733C24.0648 20.4613 22.1822 13.736 22.1875 13.04C25.3715 14.7093 33.8222 14.4 30.3822 4Z" fill="#FCEEBB" stroke="black" stroke-width="0.528" stroke-miterlimit="10"/>
<path d="M9.61583 4C6.31983 5.48267 3.2985 14.6853 9.61583 17.5733C15.9332 20.4613 17.8158 13.736 17.8105 13.04C14.6265 14.7093 6.17583 14.4 9.61583 4Z" fill="#FCEEBB" stroke="black" stroke-width="0.528" stroke-miterlimit="10"/>
<path d="M30.7882 19.8135C30.7882 23.1575 27.2975 24.8961 27.2975 26.2561C27.2975 31.6508 27.2762 34.2028 24.0068 35.1041C24.0013 35.3296 23.9078 35.5439 23.7464 35.7013C23.5849 35.8588 23.3683 35.9469 23.1428 35.9468H16.8575C16.6329 35.9455 16.4177 35.8568 16.2574 35.6995C16.0971 35.5422 16.0044 35.3287 15.9988 35.1041C12.7295 34.2028 12.7082 31.6508 12.7082 26.2561C12.7082 24.8961 9.21484 23.1575 9.21484 19.8135C9.21484 12.0188 14.0468 10.8135 20.0042 10.8135C25.9615 10.8135 30.7882 12.0188 30.7882 19.8135Z" fill="#261C1A" stroke="black" stroke-width="1.06667" stroke-miterlimit="10"/>
<path d="M25.2937 30.536C25.2937 32.56 24.123 33.8587 22.947 33.8587C21.771 33.8587 21.0804 33.1414 20.259 33.1414C19.3577 33.1414 18.5897 33.8587 17.2964 33.8587C16.003 33.8587 14.707 32.5627 14.707 30.536C14.707 28.5094 16.5737 27.2134 17.7204 27.2134C18.867 27.2134 18.4697 27.792 20.259 27.792C21.8804 27.792 21.5097 27.2134 22.5604 27.2134C23.611 27.2134 25.2937 28.5094 25.2937 30.536Z" fill="#3F3432" stroke="black" stroke-width="1.06667" stroke-miterlimit="10"/>
<path d="M27.2926 19.0907C27.2926 20.1361 25.7993 21.6294 24.754 21.6294C24.5052 21.6294 24.2589 21.5803 24.0292 21.485C23.7995 21.3896 23.5908 21.2499 23.4152 21.0738C23.2395 20.8976 23.1004 20.6886 23.0057 20.4586C22.911 20.2286 22.8626 19.9821 22.8633 19.7334C22.8633 19.1307 23.8046 18.5227 24.434 18.3334C25.65 17.9707 27.2926 18.0481 27.2926 19.0907Z" fill="white" stroke="black" stroke-width="0.533333" stroke-miterlimit="10"/>
<path d="M24.6055 20.4455C25.1902 20.4455 25.6642 19.9715 25.6642 19.3868C25.6642 18.8021 25.1902 18.3281 24.6055 18.3281C24.0209 18.3281 23.5469 18.8021 23.5469 19.3868C23.5469 19.9715 24.0209 20.4455 24.6055 20.4455Z" fill="black"/>
<path d="M12.6992 19.0907C12.6992 20.1361 14.0806 21.6294 15.0486 21.6294C15.2881 21.6201 15.5236 21.5637 15.7413 21.4634C15.9591 21.363 16.1549 21.2208 16.3177 21.0447C16.4804 20.8686 16.6068 20.6621 16.6897 20.4371C16.7725 20.2121 16.8102 19.973 16.8006 19.7334C16.8006 19.1307 15.9286 18.5227 15.3472 18.3334C14.2192 17.9707 12.6992 18.0481 12.6992 19.0907Z" fill="white" stroke="black" stroke-width="0.533333" stroke-miterlimit="10"/>
<path d="M15.1857 20.4455C15.7262 20.4455 16.1644 19.9715 16.1644 19.3868C16.1644 18.8021 15.7262 18.3281 15.1857 18.3281C14.6452 18.3281 14.207 18.8021 14.207 19.3868C14.207 19.9715 14.6452 20.4455 15.1857 20.4455Z" fill="black"/>
<path d="M17.5336 31.4481C17.9578 31.4481 18.3016 31.244 18.3016 30.9921C18.3016 30.7403 17.9578 30.5361 17.5336 30.5361C17.1095 30.5361 16.7656 30.7403 16.7656 30.9921C16.7656 31.244 17.1095 31.4481 17.5336 31.4481Z" fill="#190E0C"/>
<path d="M22.4633 31.4481C22.8875 31.4481 23.2313 31.244 23.2313 30.9921C23.2313 30.7403 22.8875 30.5361 22.4633 30.5361C22.0392 30.5361 21.6953 30.7403 21.6953 30.9921C21.6953 31.244 22.0392 31.4481 22.4633 31.4481Z" fill="#190E0C"/>
</svg>
