<svg width="40" height="40" viewBox="0 0 40 40" fill="none" xmlns="http://www.w3.org/2000/svg">
<path d="M8.53125 17.6001H33.0646" stroke="black" stroke-width="1.06667" stroke-miterlimit="10" stroke-linecap="round" stroke-linejoin="round"/>
<path d="M20.7983 13.3334C22.8601 13.3334 24.5316 11.6619 24.5316 9.60003C24.5316 7.53817 22.8601 5.8667 20.7983 5.8667C18.7364 5.8667 17.0649 7.53817 17.0649 9.60003C17.0649 11.6619 18.7364 13.3334 20.7983 13.3334Z" fill="#595959" stroke="black" stroke-width="1.06667" stroke-miterlimit="10" stroke-linecap="round" stroke-linejoin="round"/>
<path d="M9.06543 9.6517L15.109 14.9334H26.4842L32.5321 9.6001" stroke="black" stroke-width="1.06667" stroke-miterlimit="10" stroke-linecap="round" stroke-linejoin="round"/>
<path fill-rule="evenodd" clip-rule="evenodd" d="M23.4661 20.9438V15.953C23.4661 14.5063 22.2933 13.3335 20.8466 13.3335H20.7522C19.3055 13.3335 18.1327 14.5063 18.1327 15.953V20.9438C15.9295 22.1235 14.3994 24.72 14.3994 27.7334C14.3994 31.8571 17.2647 35.2 20.7994 35.2C24.3341 35.2 27.1994 31.8571 27.1994 27.7334C27.1994 24.7199 25.6693 22.1235 23.4661 20.9438Z" fill="#777777" stroke="black" stroke-width="1.06667" stroke-miterlimit="10" stroke-linecap="round" stroke-linejoin="round"/>
<path d="M20.7993 33.0669C21.9776 33.0669 22.9327 32.5894 22.9327 32.0003C22.9327 31.4112 21.9776 30.9336 20.7993 30.9336C19.6211 30.9336 18.666 31.4112 18.666 32.0003C18.666 32.5894 19.6211 33.0669 20.7993 33.0669Z" fill="#ED5481" stroke="black" stroke-width="1.06667" stroke-miterlimit="10" stroke-linecap="round" stroke-linejoin="round"/>
<path d="M5.86523 28.7947L12.1395 22.3941L20.5319 20.2666L29.2343 22.4381L35.1986 28.7999" stroke="black" stroke-width="1.06667" stroke-miterlimit="10" stroke-linecap="round" stroke-linejoin="round"/>
</svg>
