<svg width="40" height="40" viewBox="0 0 40 40" fill="none" xmlns="http://www.w3.org/2000/svg">
<path d="M18.4827 5.28798C17.7733 3.99998 16.9547 1.70398 16 1.41064C17.6453 1.42931 19.7333 2.42664 20.1493 3.81064C20.6587 2.22398 22.016 2.22398 22.8827 2.16531C21.5707 3.33864 21.4827 4.51464 21.4827 5.04531C21.4827 5.57598 18.7947 5.86664 18.4827 5.28798Z" fill="#FFC533" stroke="black" stroke-width="0.533333" stroke-linecap="round" stroke-linejoin="round"/>
<path d="M36.3293 25.1279C36.3293 32.6559 26.8706 36.8879 19.9986 36.8879C13.1266 36.8879 3.66797 32.6586 3.66797 25.1279C3.66797 21.8666 5.8653 19.7333 7.55864 16.2666C10.1613 10.9333 11.2706 4.57861 19.9986 4.57861C28.7266 4.57861 29.836 10.9333 32.4386 16.2666C34.132 19.7333 36.3293 21.8666 36.3293 25.1279Z" fill="#FFC533" stroke="black" stroke-width="1.06667" stroke-miterlimit="10"/>
<path d="M16.6519 16.6812C17.0712 14.3714 16.2224 12.2831 14.7559 12.0169C13.2894 11.7506 11.7607 13.4073 11.3413 15.7171C10.922 18.0269 11.7708 20.1152 13.2373 20.3815C14.7038 20.6477 16.2325 18.9911 16.6519 16.6812Z" fill="white" stroke="black" stroke-width="0.533333" stroke-miterlimit="10"/>
<path d="M15.3865 18.0399C15.5696 17.0313 15.0849 16.0988 14.3039 15.957C13.5228 15.8152 12.7412 16.5178 12.5581 17.5264C12.375 18.5349 12.8597 19.4675 13.6408 19.6093C14.4218 19.7511 15.2034 19.0484 15.3865 18.0399Z" fill="black"/>
<path d="M26.7637 20.383C28.2302 20.1168 29.079 18.0285 28.6597 15.7187C28.2403 13.4088 26.7116 11.7522 25.2451 12.0184C23.7786 12.2847 22.9298 14.373 23.3491 16.6828C23.7685 18.9926 25.2972 20.6493 26.7637 20.383Z" fill="white" stroke="black" stroke-width="0.533333" stroke-miterlimit="10"/>
<path d="M26.3546 19.6109C27.1357 19.4691 27.6204 18.5365 27.4373 17.528C27.2542 16.5194 26.4726 15.8168 25.6916 15.9586C24.9105 16.1004 24.4258 17.0329 24.6089 18.0415C24.792 19.05 25.5736 19.7527 26.3546 19.6109Z" fill="black"/>
<path d="M31.6849 30.576C29.3569 34.184 30.0103 38.3094 19.4343 38.3094C9.69292 38.3094 10.2956 34.1707 8.14892 30.576C6.81559 28.3307 5.51692 26.4267 6.64492 25.4374C7.77292 24.448 11.0849 25.368 13.4289 25.368C15.7729 25.368 16.0743 21.6587 19.4343 21.6587C23.0849 21.6587 23.4103 25.368 25.9543 25.368C28.4983 25.368 32.0609 24.424 33.3196 25.4374C34.5783 26.4507 33.1329 28.3307 31.6849 30.576Z" fill="#EA6726" stroke="black" stroke-width="1.06667" stroke-miterlimit="10"/>
<path d="M15.6245 28.2507C15.1685 27.4507 15.2912 26.8534 15.7258 26.6054C16.1605 26.3574 16.7392 26.5547 17.1952 27.3494C17.6512 28.1441 17.8112 29.2401 17.3765 29.4827C16.9418 29.7254 16.0805 29.0454 15.6245 28.2507Z" fill="black"/>
<path d="M24.3706 28.2507C24.8266 27.4507 24.704 26.8534 24.2693 26.6054C23.8346 26.3574 23.256 26.5547 22.8 27.3494C22.344 28.1441 22.184 29.2401 22.6186 29.4827C23.0533 29.7254 23.9146 29.0454 24.3706 28.2507Z" fill="black"/>
</svg>
