<svg width="40" height="40" viewBox="0 0 40 40" fill="none" xmlns="http://www.w3.org/2000/svg">
<path d="M33.0693 19.2883C35.9897 19.2883 38.3573 16.5316 38.3573 13.131C38.3573 9.73037 35.9897 6.97363 33.0693 6.97363C30.1488 6.97363 27.7812 9.73037 27.7812 13.131C27.7812 16.5316 30.1488 19.2883 33.0693 19.2883Z" fill="#CC5621" stroke="black" stroke-width="1.06667" stroke-miterlimit="10"/>
<path d="M6.93253 19.2883C9.85301 19.2883 12.2205 16.5316 12.2205 13.131C12.2205 9.73037 9.85301 6.97363 6.93253 6.97363C4.01205 6.97363 1.64453 9.73037 1.64453 13.131C1.64453 16.5316 4.01205 19.2883 6.93253 19.2883Z" fill="#CC5621" stroke="black" stroke-width="1.06667" stroke-miterlimit="10"/>
<path d="M32.0903 17.9653C34.1272 17.9653 35.7783 15.9559 35.7783 13.4773C35.7783 10.9986 34.1272 8.98926 32.0903 8.98926C30.0535 8.98926 28.4023 10.9986 28.4023 13.4773C28.4023 15.9559 30.0535 17.9653 32.0903 17.9653Z" fill="#A53620"/>
<path d="M7.91066 17.9653C9.94748 17.9653 11.5987 15.9559 11.5987 13.4773C11.5987 10.9986 9.94748 8.98926 7.91066 8.98926C5.87383 8.98926 4.22266 10.9986 4.22266 13.4773C4.22266 15.9559 5.87383 17.9653 7.91066 17.9653Z" fill="#A53620"/>
<path d="M26.9169 24.8613C27.4023 25.7626 29.7409 34.1146 20.0023 34.1146C10.2636 34.1146 12.5996 25.7626 13.0876 24.8613C10.9143 23.1706 8.46094 20.1493 8.46094 16.7546C8.46094 11.0373 12.5863 6.35465 18.5089 5.88532C18.8236 5.86132 19.6796 6.81065 20.0049 6.81065C20.3303 6.81065 21.1836 5.85865 21.5009 5.88532C27.4236 6.34665 31.5489 11.0373 31.5489 16.7546C31.5463 20.152 29.0903 23.1733 26.9169 24.8613Z" fill="#CC5621" stroke="black" stroke-width="1.06667" stroke-miterlimit="10"/>
<path d="M26.5364 25.3335C26.8297 26.1709 27.4831 28.9069 26.2457 30.9789C25.2164 32.7042 23.1151 33.5789 20.0004 33.5789C16.8857 33.5789 14.7844 32.7042 13.7551 30.9789C12.5177 28.9069 13.1711 26.1789 13.4644 25.3335C13.9524 24.5726 14.554 23.8909 15.2484 23.3122C13.4564 22.2962 10.8164 19.5175 10.8164 15.2535C10.8164 12.6935 13.1577 10.6162 15.7204 10.6162C17.9684 10.6162 19.3711 11.9682 19.9871 11.9682C20.6031 11.9682 22.0164 10.6162 24.2537 10.6162C26.8137 10.6162 29.1577 12.6935 29.1577 15.2535C29.1577 19.5202 26.5151 22.2989 24.7257 23.3175C25.4293 23.8925 26.04 24.5725 26.5364 25.3335Z" fill="#E5C1A1"/>
<path d="M15.2358 17.0161C16.283 17.0161 17.1318 16.1673 17.1318 15.1201C17.1318 14.073 16.283 13.2241 15.2358 13.2241C14.1887 13.2241 13.3398 14.073 13.3398 15.1201C13.3398 16.1673 14.1887 17.0161 15.2358 17.0161Z" fill="#F2CFC9" stroke="black" stroke-width="0.266667" stroke-miterlimit="10" stroke-linecap="round"/>
<path d="M15.5034 16.2534C15.982 16.2534 16.3701 15.8653 16.3701 15.3867C16.3701 14.908 15.982 14.52 15.5034 14.52C15.0247 14.52 14.6367 14.908 14.6367 15.3867C14.6367 15.8653 15.0247 16.2534 15.5034 16.2534Z" fill="black"/>
<path d="M24.771 17.0161C25.8181 17.0161 26.667 16.1673 26.667 15.1201C26.667 14.073 25.8181 13.2241 24.771 13.2241C23.7239 13.2241 22.875 14.073 22.875 15.1201C22.875 16.1673 23.7239 17.0161 24.771 17.0161Z" fill="#F2CFC9" stroke="black" stroke-width="0.266667" stroke-miterlimit="10" stroke-linecap="round"/>
<path d="M24.4995 16.2534C24.9781 16.2534 25.3661 15.8653 25.3661 15.3867C25.3661 14.908 24.9781 14.52 24.4995 14.52C24.0208 14.52 23.6328 14.908 23.6328 15.3867C23.6328 15.8653 24.0208 16.2534 24.4995 16.2534Z" fill="black"/>
<path d="M18.8503 22.8426C19.2185 22.8426 19.5169 22.5441 19.5169 22.1759C19.5169 21.8078 19.2185 21.5093 18.8503 21.5093C18.4821 21.5093 18.1836 21.8078 18.1836 22.1759C18.1836 22.5441 18.4821 22.8426 18.8503 22.8426Z" fill="black"/>
<path d="M21.1471 22.8426C21.5153 22.8426 21.8138 22.5441 21.8138 22.1759C21.8138 21.8078 21.5153 21.5093 21.1471 21.5093C20.7789 21.5093 20.4805 21.8078 20.4805 22.1759C20.4805 22.5441 20.7789 22.8426 21.1471 22.8426Z" fill="black"/>
<path d="M24.0005 26.728C24.0005 26.728 22.2165 28.344 20.1018 28.344C17.9845 28.344 16.2031 26.728 16.2031 26.728" stroke="black" stroke-width="0.8" stroke-miterlimit="10" stroke-linecap="round"/>
</svg>
