<svg width="40" height="40" viewBox="0 0 40 40" fill="none" xmlns="http://www.w3.org/2000/svg">
<path d="M21.6179 12.9439C19.9886 19.8426 20.5513 25.8799 22.8979 26.4292C25.2446 26.9786 29.1486 17.6986 30.0766 14.9332C31.0046 12.1679 31.1433 1.99724 28.7966 1.4479C26.4499 0.898569 23.2446 6.04524 21.6179 12.9439Z" fill="#ACB3BA" stroke="black" stroke-width="1.06667" stroke-miterlimit="10"/>
<path d="M18.3863 12.9442C20.0156 19.8428 19.4529 25.8802 17.1063 26.4295C14.7596 26.9789 10.8556 17.6989 9.92761 14.9335C8.99961 12.1682 8.87427 2.00018 11.2023 1.45085C13.5303 0.901518 16.7596 6.04552 18.3863 12.9442Z" fill="#ACB3BA" stroke="black" stroke-width="1.06667" stroke-miterlimit="10"/>
<path d="M29.5667 14.768C28.7509 17.1065 27.7605 19.3805 26.604 21.5706C26.132 16.5146 27.3294 9.00797 28.9187 2.1333C29.0239 2.24622 29.1136 2.37267 29.1854 2.5093C30.5267 4.90397 30.2894 12.6133 29.5667 14.768Z" fill="#72767A"/>
<path d="M13.3952 21.5708C12.2387 19.3806 11.2484 17.1067 10.4325 14.7682C9.70987 12.6135 9.47254 4.90149 10.8085 2.50149C10.8803 2.36486 10.97 2.23841 11.0752 2.12549C12.6699 9.00816 13.8672 16.5148 13.3952 21.5708Z" fill="#72767A"/>
<path d="M19.9995 38.5894C13.0528 38.5894 5.59951 33.168 8.67951 25.92C11.4475 19.4347 13.0528 13.248 19.9995 13.248C26.9462 13.248 28.5515 19.4347 31.3195 25.9174C34.3995 33.168 26.9462 38.5894 19.9995 38.5894Z" fill="#D1D1D1" stroke="black" stroke-width="1.06667" stroke-miterlimit="10"/>
<path d="M31.4695 29.9654C31.346 31.083 30.9524 32.1538 30.3229 33.0854C28.3602 36.0588 24.2135 38.0561 20.0082 38.0561C15.8029 38.0561 11.6562 36.0588 9.69354 33.0854C9.06398 32.1538 8.67045 31.083 8.54688 29.9654C11.7175 28.4348 15.6935 27.5654 20.0135 27.5654C24.3335 27.5654 28.2935 28.4348 31.4695 29.9654Z" fill="#ACB3BA"/>
<path d="M25.384 26.2239C26.4547 26.2239 27.3226 25.3045 27.3226 24.1705C27.3226 23.0365 26.4547 22.1172 25.384 22.1172C24.3133 22.1172 23.4453 23.0365 23.4453 24.1705C23.4453 25.3045 24.3133 26.2239 25.384 26.2239Z" fill="white" stroke="black" stroke-width="0.266667" stroke-miterlimit="10"/>
<path d="M24.8458 25.4376C25.507 25.4376 26.0431 24.8705 26.0431 24.171C26.0431 23.4714 25.507 22.9043 24.8458 22.9043C24.1845 22.9043 23.6484 23.4714 23.6484 24.171C23.6484 24.8705 24.1845 25.4376 24.8458 25.4376Z" fill="black"/>
<path d="M14.6184 26.2239C15.6891 26.2239 16.557 25.3045 16.557 24.1705C16.557 23.0365 15.6891 22.1172 14.6184 22.1172C13.5477 22.1172 12.6797 23.0365 12.6797 24.1705C12.6797 25.3045 13.5477 26.2239 14.6184 26.2239Z" fill="white" stroke="black" stroke-width="0.266667" stroke-miterlimit="10"/>
<path d="M15.1505 25.4376C15.8117 25.4376 16.3478 24.8705 16.3478 24.171C16.3478 23.4714 15.8117 22.9043 15.1505 22.9043C14.4892 22.9043 13.9531 23.4714 13.9531 24.171C13.9531 24.8705 14.4892 25.4376 15.1505 25.4376Z" fill="black"/>
<path d="M20.0009 32.4985V33.8319C20.0009 34.044 19.9166 34.2475 19.7666 34.3976C19.6165 34.5476 19.413 34.6319 19.2009 34.6319H19.0969C18.8847 34.6319 18.6812 34.5476 18.5312 34.3976C18.3812 34.2475 18.2969 34.044 18.2969 33.8319V33.0665" fill="white"/>
<path d="M20.0009 32.4985V33.8319C20.0009 34.044 19.9166 34.2475 19.7666 34.3976C19.6165 34.5476 19.413 34.6319 19.2009 34.6319H19.0969C18.8847 34.6319 18.6812 34.5476 18.5312 34.3976C18.3812 34.2475 18.2969 34.044 18.2969 33.8319V33.0665" stroke="black" stroke-width="0.266667" stroke-miterlimit="10"/>
<path d="M20 32.2319V33.8319C20 34.0441 20.0843 34.2476 20.2343 34.3976C20.3843 34.5476 20.5878 34.6319 20.8 34.6319H20.904C21.1162 34.6319 21.3197 34.5476 21.4697 34.3976C21.6197 34.2476 21.704 34.0441 21.704 33.8319V33.0666" fill="white"/>
<path d="M20 32.2319V33.8319C20 34.0441 20.0843 34.2476 20.2343 34.3976C20.3843 34.5476 20.5878 34.6319 20.8 34.6319H20.904C21.1162 34.6319 21.3197 34.5476 21.4697 34.3976C21.6197 34.2476 21.704 34.0441 21.704 33.8319V33.0666" stroke="black" stroke-width="0.266667" stroke-miterlimit="10"/>
<path d="M16.2852 32.7708C17.2665 33.6001 19.9998 32.8001 19.9998 32.1201" stroke="black" stroke-width="0.266667" stroke-linecap="round" stroke-linejoin="round"/>
<path d="M23.7147 32.7708C22.7333 33.6001 20 32.8001 20 32.1201" stroke="black" stroke-width="0.266667" stroke-linecap="round" stroke-linejoin="round"/>
<path d="M22.1358 30.6664C22.1225 31.8504 20.4292 32.1144 19.9732 32.1091C19.5172 32.1038 17.8398 31.8024 17.8398 30.6158C17.8398 29.4291 18.8398 27.1251 20.0265 27.1491C21.2132 27.1731 22.1518 29.4904 22.1358 30.6664Z" fill="#6B6E70" stroke="black" stroke-width="0.533333" stroke-miterlimit="10"/>
</svg>
