<svg width="40" height="40" viewBox="0 0 40 40" fill="none" xmlns="http://www.w3.org/2000/svg">
<path d="M35.625 25.6248C35.625 30.2436 32.0375 32.8873 27.5 33.1248C27.2938 33.1248 27.0875 33.1248 26.875 33.1248C25.8068 33.1279 24.7472 32.9329 23.75 32.5498H23.7062C21.3244 31.6122 18.6756 31.6122 16.2937 32.5498H16.25C15.2528 32.9329 14.1932 33.1279 13.125 33.1248C12.9125 33.1248 12.7063 33.1248 12.5 33.1248C7.9625 32.9061 4.375 30.2623 4.375 25.6248C4.375 22.3873 6.13125 20.8123 8.75 19.2998V15.3123C8.74987 13.2127 9.35441 11.1575 10.4913 9.39234C11.6283 7.6272 13.2495 6.22683 15.1612 5.35866C17.0729 4.49048 19.1942 4.19122 21.2715 4.49667C23.3488 4.80211 25.2941 5.69933 26.875 7.08106C27.0625 7.24356 27.2375 7.40606 27.4125 7.58106C28.1199 8.28915 28.7275 9.09025 29.2188 9.96231C30.1424 11.594 30.6269 13.4374 30.625 15.3123V18.9686C33.5812 20.3748 35.625 22.1373 35.625 25.6248Z" fill="#87868A"/>
<path d="M13.0695 6.61231C11.8649 7.52436 10.8644 8.67822 10.132 9.99981C9.60938 9.96547 9.10668 9.78586 8.6806 9.48122C8.25451 9.17657 7.92197 8.75899 7.72043 8.27552C7.51889 7.79205 7.45637 7.26191 7.5399 6.74482C7.62344 6.22773 7.84971 5.74424 8.19323 5.34883C8.53676 4.95341 8.98387 4.66179 9.48421 4.5068C9.98455 4.35181 10.5182 4.33963 11.0251 4.47162C11.532 4.6036 11.992 4.87452 12.3532 5.25384C12.7144 5.63317 12.9625 6.10582 13.0695 6.61856V6.61231Z" fill="#646467"/>
<path d="M14.6875 13.75C15.2053 13.75 15.625 13.3303 15.625 12.8125C15.625 12.2947 15.2053 11.875 14.6875 11.875C14.1697 11.875 13.75 12.2947 13.75 12.8125C13.75 13.3303 14.1697 13.75 14.6875 13.75Z" fill="#2D2D2D"/>
<path d="M25.3125 13.75C25.8303 13.75 26.25 13.3303 26.25 12.8125C26.25 12.2947 25.8303 11.875 25.3125 11.875C24.7947 11.875 24.375 12.2947 24.375 12.8125C24.375 13.3303 24.7947 13.75 25.3125 13.75Z" fill="#2D2D2D"/>
<path d="M32.5021 7.18742C32.5011 7.59562 32.4115 7.99875 32.2394 8.36893C32.0674 8.73911 31.817 9.06749 31.5055 9.33139C31.1941 9.59528 30.829 9.78838 30.4356 9.89733C30.0422 10.0063 29.6299 10.0285 29.2271 9.96242C28.7358 9.09036 28.1282 8.28925 27.4208 7.58117C27.2458 7.40617 27.0708 7.24367 26.8833 7.08117C26.8974 6.33525 27.2072 5.62547 27.7446 5.10799C28.282 4.59051 29.003 4.3077 29.7489 4.32179C30.4948 4.33588 31.2046 4.64571 31.7221 5.18312C32.2396 5.72053 32.5224 6.4415 32.5083 7.18742H32.5021Z" fill="#646467"/>
<path d="M16.25 32.5498V34.9998C16.25 35.1656 16.1842 35.3245 16.0669 35.4417C15.9497 35.559 15.7908 35.6248 15.625 35.6248H13.125C12.9592 35.6248 12.8003 35.559 12.6831 35.4417C12.5658 35.3245 12.5 35.1656 12.5 34.9998V33.1248C12.7063 33.1248 12.9125 33.1248 13.125 33.1248C14.1932 33.1279 15.2528 32.9329 16.25 32.5498Z" fill="#D8D9DD"/>
<path d="M27.5 33.1248V34.9998C27.5 35.1656 27.4342 35.3245 27.3169 35.4417C27.1997 35.559 27.0408 35.6248 26.875 35.6248H24.375C24.2092 35.6248 24.0503 35.559 23.9331 35.4417C23.8158 35.3245 23.75 35.1656 23.75 34.9998V32.5498C24.7472 32.9329 25.8068 33.1279 26.875 33.1248C27.0875 33.1248 27.2938 33.1248 27.5 33.1248Z" fill="#D8D9DD"/>
<path d="M11.5625 27.5C12.4254 27.5 13.125 26.8004 13.125 25.9375C13.125 25.0746 12.4254 24.375 11.5625 24.375C10.6996 24.375 10 25.0746 10 25.9375C10 26.8004 10.6996 27.5 11.5625 27.5Z" fill="#434347"/>
<path d="M28.4375 27.5C29.3004 27.5 30 26.8004 30 25.9375C30 25.0746 29.3004 24.375 28.4375 24.375C27.5746 24.375 26.875 25.0746 26.875 25.9375C26.875 26.8004 27.5746 27.5 28.4375 27.5Z" fill="#434347"/>
</svg>
