<svg width="40" height="40" viewBox="0 0 40 40" fill="none" xmlns="http://www.w3.org/2000/svg">
<path d="M12.7127 12.0747C10.566 9.14137 10.3767 4.16804 12.686 1.9867C12.7046 1.97151 12.7272 1.9621 12.751 1.95964C12.7749 1.95717 12.799 1.96175 12.8203 1.97282C12.8415 1.98389 12.8591 2.00095 12.8708 2.02191C12.8825 2.04286 12.8878 2.06678 12.886 2.0907C12.7153 4.8667 15.0193 7.33337 16.6407 8.70404C16.8101 8.8471 16.9451 9.02655 17.0356 9.22902C17.1261 9.43148 17.1698 9.65176 17.1634 9.87344C17.157 10.0951 17.1007 10.3125 16.9986 10.5094C16.8966 10.7063 16.7514 10.8777 16.574 11.0107L14.7713 12.3627C14.6173 12.479 14.4418 12.5639 14.2549 12.6124C14.0681 12.6608 13.8735 12.672 13.6823 12.6453C13.4911 12.6185 13.3071 12.5544 13.1407 12.4565C12.9743 12.3586 12.8289 12.2288 12.7127 12.0747Z" fill="#FCEEBB" stroke="black" stroke-width="0.533333" stroke-miterlimit="10"/>
<path d="M27.2873 12.0747C29.434 9.14137 29.6233 4.16804 27.314 1.9867C27.2954 1.97151 27.2728 1.9621 27.2489 1.95964C27.2251 1.95717 27.201 1.96175 27.1797 1.97282C27.1584 1.98389 27.1409 2.00095 27.1292 2.02191C27.1175 2.04286 27.1122 2.06678 27.114 2.0907C27.2846 4.8667 24.9806 7.33337 23.3593 8.70404C23.1898 8.8471 23.0548 9.02655 22.9643 9.22902C22.8738 9.43148 22.8301 9.65176 22.8366 9.87344C22.843 10.0951 22.8993 10.3125 23.0013 10.5094C23.1034 10.7063 23.2485 10.8777 23.426 11.0107L25.2286 12.3627C25.3827 12.479 25.5582 12.5639 25.745 12.6124C25.9319 12.6608 26.1265 12.672 26.3177 12.6453C26.5088 12.6185 26.6929 12.5544 26.8593 12.4565C27.0256 12.3586 27.1711 12.2288 27.2873 12.0747Z" fill="#FCEEBB" stroke="black" stroke-width="0.533333" stroke-miterlimit="10"/>
<path d="M27.3035 13.3892C27.5669 13.2701 27.7961 13.0867 27.9701 12.8559C31.5248 8.45325 37.3488 9.73858 37.6768 10.8132C38.0048 11.8879 33.4101 16.4132 29.0235 15.2372C25.6608 14.3492 26.6501 13.6639 27.3035 13.3892Z" fill="#7D7D81" stroke="black" stroke-width="0.8" stroke-miterlimit="10"/>
<path d="M12.6946 13.3895C12.4312 13.2703 12.202 13.0869 12.0279 12.8561C8.47594 8.46679 2.64927 9.75212 2.32127 10.8268C1.99327 11.9015 6.58794 16.4268 10.9746 15.2508C14.3373 14.3495 13.3479 13.6641 12.6946 13.3895Z" fill="#7D7D81" stroke="black" stroke-width="0.8" stroke-miterlimit="10"/>
<path d="M31.0602 18.1331C31.0602 25.7758 26.1082 34.6905 19.9988 34.6905C13.8895 34.6905 8.9375 25.7678 8.9375 18.1331C8.9375 10.4985 13.8895 7.00781 19.9988 7.00781C26.1082 7.00781 31.0602 10.4825 31.0602 18.1331Z" fill="#DBDBDB" stroke="black" stroke-width="1.06667" stroke-miterlimit="10"/>
<path d="M20.0019 37.7759C24.4643 37.7759 28.0819 34.6897 28.0819 30.8826C28.0819 27.0755 24.4643 23.9893 20.0019 23.9893C15.5394 23.9893 11.9219 27.0755 11.9219 30.8826C11.9219 34.6897 15.5394 37.7759 20.0019 37.7759Z" fill="#E2BDA8" stroke="black" stroke-width="1.06667" stroke-miterlimit="10"/>
<path d="M15.0157 17.1627C15.7535 17.1627 16.3517 16.5646 16.3517 15.8267C16.3517 15.0889 15.7535 14.4907 15.0157 14.4907C14.2778 14.4907 13.6797 15.0889 13.6797 15.8267C13.6797 16.5646 14.2778 17.1627 15.0157 17.1627Z" fill="black"/>
<path d="M24.9844 17.1627C25.7223 17.1627 26.3204 16.5646 26.3204 15.8267C26.3204 15.0889 25.7223 14.4907 24.9844 14.4907C24.2466 14.4907 23.6484 15.0889 23.6484 15.8267C23.6484 16.5646 24.2466 17.1627 24.9844 17.1627Z" fill="black"/>
<path d="M16.7533 32.7707C17.5662 32.7707 18.2252 32.1116 18.2252 31.2987C18.2252 30.4857 17.5662 29.8267 16.7533 29.8267C15.9403 29.8267 15.2812 30.4857 15.2812 31.2987C15.2812 32.1116 15.9403 32.7707 16.7533 32.7707Z" fill="white" stroke="black" stroke-width="0.533333" stroke-miterlimit="10"/>
<path d="M23.2454 32.7707C24.0584 32.7707 24.7174 32.1116 24.7174 31.2987C24.7174 30.4857 24.0584 29.8267 23.2454 29.8267C22.4325 29.8267 21.7734 30.4857 21.7734 31.2987C21.7734 32.1116 22.4325 32.7707 23.2454 32.7707Z" fill="white" stroke="black" stroke-width="0.533333" stroke-miterlimit="10"/>
</svg>
