<svg width="40" height="40" viewBox="0 0 40 40" fill="none" xmlns="http://www.w3.org/2000/svg">
<path d="M38.2416 23.2801C38.8069 24.0134 39.1429 27.0268 36.9829 27.0268C35.2389 27.0268 30.9562 25.2028 30.9562 21.5948C30.9562 17.9868 26.1562 7.87744 26.1562 7.87744C32.1429 7.87744 37.7989 8.11211 37.7989 15.5654C37.8016 15.5654 37.6763 22.5468 38.2416 23.2801Z" fill="#915A31" stroke="black" stroke-width="1.06667" stroke-miterlimit="10"/>
<path d="M1.75943 23.2801C1.1941 24.0134 0.8581 27.0268 3.0181 27.0268C4.7621 27.0268 9.04477 25.2028 9.04477 21.5948C9.04477 17.9868 13.8448 7.87744 13.8448 7.87744C7.8581 7.87744 2.2021 8.11211 2.2021 15.5654C2.19943 15.5654 2.32477 22.5468 1.75943 23.2801Z" fill="#915A31" stroke="black" stroke-width="1.06667" stroke-miterlimit="10"/>
<path d="M31.806 19.5253C31.806 32.1439 27.2966 35.9306 20.0006 35.9306C12.7046 35.9306 8.19531 32.1439 8.19531 19.5253C8.19531 6.90659 14.8006 4.05859 20.0006 4.05859C25.2006 4.05859 31.806 6.90659 31.806 19.5253Z" fill="#A06538" stroke="black" stroke-width="1.06667" stroke-miterlimit="10"/>
<path d="M27.9167 32.4772C26.13 34.4665 23.5967 35.4105 19.9994 35.4105C16.402 35.4105 13.866 34.4799 12.082 32.4772C12.866 29.1465 14.2154 25.3652 15.8314 22.9439C17.866 19.8932 18.53 10.3839 18.0314 4.75187C19.3358 4.55276 20.6629 4.55276 21.9674 4.75187C21.4687 10.3839 22.1327 19.8932 24.1674 22.9332C25.7834 25.3652 27.1327 29.1465 27.9167 32.4772Z" fill="#D6D6D6"/>
<path d="M20.2038 31.8212C19.3558 31.8212 16.0305 27.4772 16.3051 26.7972C16.5798 26.1172 17.6945 25.4639 20.2038 25.4639C22.7131 25.4639 23.8278 26.1092 24.1078 26.7972C24.3878 27.4852 21.0651 31.8212 20.2038 31.8212Z" fill="#333333" stroke="black" stroke-width="0.533333" stroke-miterlimit="10"/>
<path d="M21.9772 32.6318C21.8519 33.7438 20.8439 34.2318 20.0732 34.2318C19.3025 34.2318 18.2945 33.7412 18.1719 32.6318" stroke="black" stroke-width="0.533333" stroke-miterlimit="10"/>
<path d="M14.139 22.8185C15.6957 22.8185 16.9576 21.5565 16.9576 19.9998C16.9576 18.4431 15.6957 17.1812 14.139 17.1812C12.5823 17.1812 11.3203 18.4431 11.3203 19.9998C11.3203 21.5565 12.5823 22.8185 14.139 22.8185Z" fill="white" stroke="black" stroke-width="0.533333" stroke-miterlimit="10"/>
<path d="M25.8577 22.8185C27.4144 22.8185 28.6764 21.5565 28.6764 19.9998C28.6764 18.4431 27.4144 17.1812 25.8577 17.1812C24.301 17.1812 23.0391 18.4431 23.0391 19.9998C23.0391 21.5565 24.301 22.8185 25.8577 22.8185Z" fill="white" stroke="black" stroke-width="0.533333" stroke-miterlimit="10"/>
<path d="M14.7544 21.5787C15.6263 21.5787 16.3331 20.8719 16.3331 20.0001C16.3331 19.1282 15.6263 18.4214 14.7544 18.4214C13.8826 18.4214 13.1758 19.1282 13.1758 20.0001C13.1758 20.8719 13.8826 21.5787 14.7544 21.5787Z" fill="black"/>
<path d="M25.2427 21.5787C26.1146 21.5787 26.8214 20.8719 26.8214 20.0001C26.8214 19.1282 26.1146 18.4214 25.2427 18.4214C24.3709 18.4214 23.6641 19.1282 23.6641 20.0001C23.6641 20.8719 24.3709 21.5787 25.2427 21.5787Z" fill="black"/>
</svg>
