<svg width="40" height="40" viewBox="0 0 40 40" fill="none" xmlns="http://www.w3.org/2000/svg">
<path d="M20.3533 36.6828C20.236 36.6828 20.116 36.6828 19.9986 36.6828C19.8813 36.6828 19.7613 36.6828 19.644 36.6828C9.68663 36.6828 2.9293 30.5495 3.58263 22.9335C4.38263 13.6001 9.4493 1.77881 19.644 1.77881H20.3533C30.548 1.77881 35.6146 13.6001 36.4146 22.9335C37.0653 30.5601 30.3106 36.6828 20.3533 36.6828Z" fill="#0980AA" stroke="black" stroke-width="1.06667" stroke-miterlimit="10" stroke-linecap="round"/>
<path d="M28.3503 25.9387C29.0783 33.4987 25.2516 31.0294 20.3503 31.0294C15.449 31.0294 11.625 33.5014 12.3503 25.9387C12.9663 19.5387 13.9956 15.04 20.3503 15.04C26.705 15.04 27.7316 19.544 28.3503 25.9387Z" fill="#083A47"/>
<path d="M28.3997 27.6027C29.1757 31.6027 25.3117 38.224 20.357 38.224C15.4024 38.224 11.5384 31.5974 12.3144 27.6027C12.965 24.256 14.013 28.4774 20.357 28.4774C26.701 28.4774 27.7517 24.2667 28.3997 27.6027Z" fill="#73BBD8" stroke="black" stroke-width="1.06667" stroke-miterlimit="10" stroke-linecap="round"/>
<path d="M28.4376 24.7761C29.5043 37.0427 24.7229 22.8027 20.3523 22.8027C15.9816 22.8027 11.1976 37.0454 12.2643 24.7761C13.1096 15.0667 14.4243 6.31738 20.3523 6.31738C26.2803 6.31738 27.5949 15.0667 28.4376 24.7761Z" fill="#73BBD8" stroke="black" stroke-width="1.06667" stroke-miterlimit="10" stroke-linecap="round"/>
<path d="M13.349 12.518C13.9509 10.2717 13.3017 8.1461 11.899 7.77026C10.4964 7.39442 8.87137 8.91068 8.26949 11.1569C7.66761 13.4032 8.31677 15.5288 9.71943 15.9046C11.1221 16.2805 12.7471 14.7642 13.349 12.518Z" fill="#86D9E2" stroke="black" stroke-width="0.533333" stroke-miterlimit="10" stroke-linecap="round"/>
<path d="M12.8563 13.114C13.2775 11.5421 12.8233 10.0545 11.8417 9.79152C10.8601 9.5285 9.72292 10.5896 9.30172 12.1616C8.88051 13.7335 9.33479 15.221 10.3164 15.484C11.2979 15.7471 12.4351 14.686 12.8563 13.114Z" fill="black"/>
<path d="M31.1267 15.9343C32.5353 15.5567 33.187 13.422 32.5824 11.1663C31.9778 8.91059 30.3457 7.38804 28.9372 7.76559C27.5286 8.14315 26.8769 10.2778 27.4815 12.5336C28.0861 14.7893 29.7181 16.3118 31.1267 15.9343Z" fill="#86D9E2" stroke="black" stroke-width="0.535595" stroke-miterlimit="10" stroke-linecap="round"/>
<path d="M30.3964 15.4849C31.3779 15.2218 31.8322 13.7343 31.411 12.1624C30.9898 10.5904 29.8526 9.52931 28.8711 9.79233C27.8895 10.0553 27.4352 11.5429 27.8564 13.1148C28.2776 14.6868 29.4148 15.7479 30.3964 15.4849Z" fill="black"/>
<path d="M32.4369 28.6565C32.6127 27.8748 32.442 27.1707 32.0554 27.0837C31.6689 26.9968 31.213 27.5599 31.0372 28.3416C30.8613 29.1232 31.0321 29.8273 31.4186 29.9143C31.8051 30.0013 32.261 29.4381 32.4369 28.6565Z" fill="#0D5F75"/>
<path d="M33.9017 26.3227C34.2168 26.3148 34.4593 25.7904 34.4433 25.1514C34.4273 24.5125 34.159 24.0008 33.8439 24.0087C33.5289 24.0166 33.2864 24.5409 33.3023 25.1799C33.3183 25.8189 33.5866 26.3305 33.9017 26.3227Z" fill="#0D5F75"/>
<path d="M31.4094 25.1439C31.7071 25.0406 31.8123 24.5643 31.6442 24.0801C31.4762 23.5959 31.0986 23.2872 30.8008 23.3905C30.5031 23.4939 30.3979 23.9701 30.566 24.4543C30.734 24.9385 31.1116 25.2473 31.4094 25.1439Z" fill="#0D5F75"/>
<path d="M8.56613 29.9143C8.9512 29.8276 9.12132 29.1261 8.94611 28.3473C8.77089 27.5685 8.31669 27.0075 7.93161 27.0941C7.54654 27.1807 7.37642 27.8823 7.55163 28.6611C7.72685 29.4398 8.18106 30.0009 8.56613 29.9143Z" fill="#0D5F75"/>
<path d="M6.69707 25.1967C6.71295 24.5606 6.4704 24.0386 6.15533 24.0308C5.84026 24.0229 5.57197 24.5321 5.55609 25.1682C5.54022 25.8042 5.78276 26.3262 6.09783 26.3341C6.4129 26.3419 6.68119 25.8327 6.69707 25.1967Z" fill="#0D5F75"/>
<path d="M9.42939 24.4541C9.59743 23.9699 9.49228 23.4936 9.19454 23.3903C8.89679 23.2869 8.51919 23.5957 8.35115 24.0798C8.1831 24.564 8.28825 25.0403 8.586 25.1437C8.88374 25.247 9.26134 24.9382 9.42939 24.4541Z" fill="#0D5F75"/>
<path d="M20.0047 10.4798C19.8313 11.4611 19.2793 12.1865 18.7726 12.0985C18.266 12.0105 17.5806 11.9785 17.754 10.9945C17.9273 10.0105 18.8846 8.44781 19.3913 8.53314C19.898 8.61847 20.17 9.49581 20.0047 10.4798Z" fill="black"/>
<path d="M20.7225 10.4798C20.8959 11.4611 21.4479 12.1865 21.9545 12.0985C22.4612 12.0105 23.1465 11.9785 22.9732 10.9945C22.7999 10.0105 21.8345 8.44781 21.3359 8.53314C20.8372 8.61847 20.5492 9.49581 20.7225 10.4798Z" fill="black"/>
</svg>
