<svg width="40" height="40" viewBox="0 0 40 40" fill="none" xmlns="http://www.w3.org/2000/svg">
<path d="M26.1709 38.6002C26.1709 38.6002 24.5709 25.1309 25.8322 22.3096H14.1629C15.4349 25.1309 13.8242 38.6002 13.8242 38.6002" fill="#CCCCCC"/>
<path d="M26.1709 38.6002C26.1709 38.6002 24.5709 25.1309 25.8322 22.3096H14.1629C15.4349 25.1309 13.8242 38.6002 13.8242 38.6002" stroke="black" stroke-width="1.06667" stroke-linejoin="round"/>
<path d="M31.8156 18.368C31.8156 23.5814 26.5249 26.824 19.9996 26.824C13.4743 26.824 8.18359 23.5814 8.18359 18.368C8.18359 14.344 10.3623 12.688 11.2716 10.2267C12.2423 7.5947 14.7783 1.8667 19.9996 1.8667C25.2209 1.8667 27.7569 7.59203 28.7276 10.224C29.6343 12.688 31.8156 14.344 31.8156 18.368Z" fill="#CCCCCC" stroke="black" stroke-width="1.06667" stroke-linejoin="round"/>
<path d="M19.9986 13.3335C21.0146 13.3335 22.172 12.3601 22.9746 12.9655C23.3666 13.2615 23.3506 16.7495 24.1933 19.5121C25.0653 22.4001 25.8466 24.9335 25.804 25.7068C25.716 27.2161 21.724 31.7681 19.9986 31.7681C18.2733 31.7681 14.2813 27.2161 14.1933 25.7068C14.148 24.9335 14.9186 22.4028 15.7933 19.5041C16.636 16.7415 16.62 13.2535 17.012 12.9575C17.8253 12.3521 18.9826 13.3335 19.9986 13.3335Z" fill="#BF7D47" stroke="black" stroke-width="0.8" stroke-miterlimit="10" stroke-linecap="round"/>
<path d="M27.0327 11.9093C26.6407 12.9307 25.9847 13.128 25.166 13.0427C24.406 12.9627 23.8327 12.5093 24.2327 11.4907C24.6327 10.472 25.6674 9.48266 26.366 9.75466C27.0647 10.0267 27.4247 10.8907 27.0327 11.9093Z" fill="#EDDBAE" stroke="black" stroke-width="0.266667" stroke-miterlimit="10" stroke-linecap="round"/>
<path d="M25.5354 12.7066C25.8785 12.7066 26.1567 12.229 26.1567 11.6399C26.1567 11.0508 25.8785 10.5732 25.5354 10.5732C25.1922 10.5732 24.9141 11.0508 24.9141 11.6399C24.9141 12.229 25.1922 12.7066 25.5354 12.7066Z" fill="black"/>
<path d="M12.9662 11.9093C13.3582 12.9307 14.0142 13.128 14.8329 13.0427C15.5929 12.9627 16.1662 12.5093 15.7662 11.4907C15.3662 10.472 14.3315 9.48266 13.6329 9.75466C12.9342 10.0267 12.5742 10.8907 12.9662 11.9093Z" fill="#EDDBAE" stroke="black" stroke-width="0.266667" stroke-miterlimit="10" stroke-linecap="round"/>
<path d="M14.4651 12.7066C14.8082 12.7066 15.0864 12.229 15.0864 11.6399C15.0864 11.0508 14.8082 10.5732 14.4651 10.5732C14.1219 10.5732 13.8438 11.0508 13.8438 11.6399C13.8438 12.229 14.1219 12.7066 14.4651 12.7066Z" fill="black"/>
<path d="M18.2003 18.8029C18.035 19.3869 18.051 19.8909 18.235 19.9309C18.419 19.9709 18.7043 19.5309 18.8696 18.9469C19.035 18.3629 19.019 17.8589 18.835 17.8189C18.651 17.7789 18.3656 18.2189 18.2003 18.8029Z" fill="black"/>
<path d="M21.8032 18.8029C21.9686 19.3869 21.9526 19.8909 21.7686 19.9309C21.5846 19.9709 21.2992 19.5309 21.1339 18.9469C20.9686 18.3629 20.9846 17.8589 21.1686 17.8189C21.3526 17.7789 21.6379 18.2189 21.8032 18.8029Z" fill="black"/>
<path d="M23.843 28.3172C22.571 29.8398 20.859 31.3678 19.9977 31.3678C19.1363 31.3678 17.4243 29.8398 16.1523 28.3172C16.644 27.789 17.2391 27.3678 17.9007 27.0797C18.5623 26.7917 19.2761 26.6431 19.9977 26.6431C20.7192 26.6431 21.4331 26.7917 22.0946 27.0797C22.7562 27.3678 23.3514 27.789 23.843 28.3172Z" fill="#E2A350"/>
</svg>
