<svg width="40" height="40" viewBox="0 0 40 40" fill="none" xmlns="http://www.w3.org/2000/svg">
<path d="M1.46484 8.80016C1.46484 12.9255 4.26751 18.0215 7.96884 18.0215C11.6702 18.0215 14.6942 14.6828 14.6942 10.5602C14.6942 6.4375 10.0995 1.3335 6.38484 1.3335C2.67018 1.3335 1.46484 4.6855 1.46484 8.80016Z" fill="#969696" stroke="black" stroke-width="0.8" stroke-miterlimit="10"/>
<path d="M9.04294 16.8664C11.2776 16.8664 13.0963 14.7171 13.0963 12.0664C13.0963 9.23976 9.5496 5.51709 7.45894 5.51709C6.57627 5.51709 6.2296 5.82109 5.93094 6.34909C5.5976 6.93309 5.21094 8.09309 5.21094 10.3171C5.21094 13.3758 7.25094 16.8664 9.04294 16.8664Z" fill="#5E5E5E"/>
<path d="M38.5347 8.80016C38.5347 12.9202 35.7507 18.0162 32.0414 18.0162C28.332 18.0162 25.332 14.6828 25.332 10.5602C25.332 6.4375 29.9107 1.3335 33.62 1.3335C37.3294 1.3335 38.5347 4.6855 38.5347 8.80016Z" fill="#969696" stroke="black" stroke-width="0.8" stroke-miterlimit="10"/>
<path d="M30.966 16.8664C28.734 16.8664 26.918 14.7171 26.918 12.0664C26.918 9.23976 30.4593 5.51709 32.5473 5.51709C33.43 5.51709 33.7766 5.82109 34.0753 6.34909C34.4033 6.92776 34.7953 8.08509 34.7953 10.3091C34.7926 13.3758 32.7553 16.8664 30.966 16.8664Z" fill="#5E5E5E"/>
<path d="M33.0669 22.7254C33.0669 29.944 24.4029 38.5227 20.0003 38.5227C15.5976 38.5227 6.93359 29.9414 6.93359 22.7254C6.93359 19.2599 8.31026 15.9363 10.7607 13.4858C13.2112 11.0354 16.5348 9.65869 20.0003 9.65869C23.4658 9.65869 26.7893 11.0354 29.2398 13.4858C31.6903 15.9363 33.0669 19.2599 33.0669 22.7254Z" fill="#969696" stroke="black" stroke-width="1.06667" stroke-miterlimit="10"/>
<path d="M28.5927 32.0158C25.8487 35.4452 22.2834 37.9865 20.0034 37.9865C17.7234 37.9865 14.1581 35.4452 11.4141 32.0158C13.4407 29.0825 16.5367 27.2158 20.0034 27.2158C23.4701 27.2158 26.5661 29.0825 28.5927 32.0158Z" fill="#5E5E5E"/>
<path d="M26.0947 23.4588C27.4673 23.4588 28.58 22.2804 28.58 20.8268C28.58 19.3732 27.4673 18.1948 26.0947 18.1948C24.7221 18.1948 23.6094 19.3732 23.6094 20.8268C23.6094 22.2804 24.7221 23.4588 26.0947 23.4588Z" fill="white" stroke="black" stroke-width="0.266667" stroke-miterlimit="10"/>
<path d="M25.4083 22.4506C26.2552 22.4506 26.9417 21.7235 26.9417 20.8266C26.9417 19.9297 26.2552 19.2026 25.4083 19.2026C24.5615 19.2026 23.875 19.9297 23.875 20.8266C23.875 21.7235 24.5615 22.4506 25.4083 22.4506Z" fill="black"/>
<path d="M13.8994 23.4588C15.272 23.4588 16.3847 22.2804 16.3847 20.8268C16.3847 19.3732 15.272 18.1948 13.8994 18.1948C12.5268 18.1948 11.4141 19.3732 11.4141 20.8268C11.4141 22.2804 12.5268 23.4588 13.8994 23.4588Z" fill="white" stroke="black" stroke-width="0.266667" stroke-miterlimit="10"/>
<path d="M14.588 22.4506C15.4349 22.4506 16.1214 21.7235 16.1214 20.8266C16.1214 19.9297 15.4349 19.2026 14.588 19.2026C13.7412 19.2026 13.0547 19.9297 13.0547 20.8266C13.0547 21.7235 13.7412 22.4506 14.588 22.4506Z" fill="black"/>
<path d="M19.7681 33.1226V36.8826C19.7681 37.0339 19.7085 37.1793 19.6022 37.2871C19.4959 37.3948 19.3514 37.4565 19.2001 37.4586H18.9787C18.8523 37.4582 18.7294 37.4162 18.6292 37.3391C18.5289 37.262 18.4569 37.154 18.4241 37.0319L17.6641 34.1946" fill="white"/>
<path d="M19.7681 33.1226V36.8826C19.7681 37.0339 19.7085 37.1793 19.6022 37.2871C19.4959 37.3948 19.3514 37.4565 19.2001 37.4586H18.9787C18.8523 37.4582 18.7294 37.4162 18.6292 37.3391C18.5289 37.262 18.4569 37.154 18.4241 37.0319L17.6641 34.1946" stroke="black" stroke-width="0.266667" stroke-miterlimit="10"/>
<path d="M20.2305 33.1226V36.8826C20.2305 37.0339 20.29 37.1793 20.3963 37.2871C20.5026 37.3948 20.6471 37.4565 20.7985 37.4586H21.0198C21.1463 37.4582 21.2691 37.4162 21.3694 37.3391C21.4696 37.262 21.5417 37.154 21.5745 37.0319L22.3345 34.1946" fill="white"/>
<path d="M20.2305 33.1226V36.8826C20.2305 37.0339 20.29 37.1793 20.3963 37.2871C20.5026 37.3948 20.6471 37.4565 20.7985 37.4586H21.0198C21.1463 37.4582 21.2691 37.4162 21.3694 37.3391C21.4696 37.262 21.5417 37.154 21.5745 37.0319L22.3345 34.1946" stroke="black" stroke-width="0.266667" stroke-miterlimit="10"/>
<path d="M17.3008 28.2215C17.3008 27.2908 18.7434 26.4722 19.9994 26.4722C21.2554 26.4722 22.6981 27.2908 22.6981 28.2215C22.6981 29.1522 21.4021 30.3735 19.9994 30.3735C18.5968 30.3735 17.3008 29.1522 17.3008 28.2215Z" fill="#424242" stroke="black" stroke-width="0.533333" stroke-miterlimit="10"/>
<path d="M16.1953 33.6001C17.062 34.8881 19.9073 33.5201 20.0006 32.4268" stroke="black" stroke-width="0.533333" stroke-linecap="round" stroke-linejoin="round"/>
<path d="M23.8053 33.6001C22.9387 34.8881 20.0933 33.5201 20 32.4268V30.5361" stroke="black" stroke-width="0.533333" stroke-linecap="round" stroke-linejoin="round"/>
<path d="M26.2812 31.6294L32.8653 32.8374" stroke="black" stroke-width="0.533333" stroke-miterlimit="10"/>
<path d="M26.2812 29.4159L35.4279 28.9146" stroke="black" stroke-width="0.533333" stroke-miterlimit="10"/>
<path d="M25.6289 27.8828L37.1969 22.8481" stroke="black" stroke-width="0.533333" stroke-miterlimit="10"/>
<path d="M13.7246 31.6294L7.14062 32.8374" stroke="black" stroke-width="0.533333" stroke-miterlimit="10"/>
<path d="M13.7248 29.4159L4.57812 28.9146" stroke="black" stroke-width="0.533333" stroke-miterlimit="10"/>
<path d="M14.3727 27.8828L2.80469 22.8481" stroke="black" stroke-width="0.533333" stroke-miterlimit="10"/>
</svg>
